<?xml version="1.0" encoding="UTF-8"?>
<svg id="Layer_1" data-name="Layer 1" xmlns="http://www.w3.org/2000/svg" xmlns:xlink="http://www.w3.org/1999/xlink" viewBox="0 0 100 100">
  <defs>
    <style>
      .cls-1 {
        fill: #fff;
      }

      .cls-2 {
        fill: #0c121c;
      }

      .cls-3 {
        fill: #f2f1e7;
      }

      .cls-4 {
        clip-path: url(#clippath);
      }

      .cls-5 {
        fill: #00bce9;
      }

      .cls-6 {
        fill: none;
      }

      .cls-7 {
        fill: #0f6fa3;
      }
    </style>
    <clipPath id="clippath">
      <circle class="cls-6" cx="50" cy="50" r="50" transform="translate(-9.91 87.57) rotate(-77.09)"/>
    </clipPath>
  </defs>
  <g class="cls-4">
    <circle class="cls-3" cx="50" cy="50" r="50" transform="translate(-9.91 87.57) rotate(-77.09)"/>
    <g>
      <g>
        <path class="cls-7" d="m80.58,94.47s0,0,0,0c-1.8,1.07-3.66,2.12-5.6,2.9-.43.18-.86.38-1.28.58.27-1.56.27-3.19.34-4.77.04-.95.12-1.89.24-2.83.07-.56.15-1.12.22-1.68,0-.07,0-.33.02-.54,1.56.86,3.09,2.15,4.12,3.55.52.71.89,1.5,1.49,2.15.19.2.33.42.47.63Z"/>
        <path class="cls-7" d="m92.38,82.39c.45.28,1.02.75,1.61,1.03-1.01,1.47-2.03,2.93-3.34,4.15-1.44,1.34-2.92,2.62-4.53,3.74-.42.3-.86.57-1.31.83-.2-.93-.45-1.86-.66-2.78-.32-1.39-.49-2.81-.87-4.18-.39-1.38-.64-2.73-.85-4.15-.18-1.23-.39-2.63-.03-3.85.11-.36,0-.42.43-.36.27.03.51.2.75.33.58.3,1.17.62,1.74.95,1.17.68,2.33,1.33,3.46,2.08,1.18.78,2.41,1.45,3.61,2.2Z"/>
        <path class="cls-7" d="m79.51,70.16c.36.1.63.11.59.42-.07.65-.67,1.45-.94,2.04-.29.61-.55,1.24-.78,1.87-.4,1.12-.62,2.34-.58,3.53-.28,1.36-.51,2.71-.98,4.04-.04.11-.16.35-.26.59-.1-.24-.24-.51-.3-.69-.11-.35-.22-.7-.33-1.05-.45-1.45-.95-2.9-1.43-4.34-.49-1.43-1.11-2.81-1.62-4.24-.19-.52-.85-1.69-.72-2.24.08-.34.49-.4.84-.46.98-.17,2.08-.1,3.06-.02.82.07,1.64.2,2.45.35.33.06.68.11,1.01.2Z"/>
        <path class="cls-7" d="m98.77,71.29c.23,2.11-.67,4.15-1.42,6.06-.31.8-.75,1.5-1.14,2.25-.37-.33-.74-.64-1.14-.92-1.14-.79-2.25-1.61-3.35-2.46-1.23-.95-2.5-1.85-3.7-2.82-1.04-.84-2.23-1.69-3.09-2.73-.51-.61-.97-1.37-.49-2.13.39-.61.95-.99,1.51-1.42,1.14-.87,2.28-1.72,3.48-2.49,1.13-.73,2.18-1.54,3.2-2.43.3-.26.57-.55.86-.83.85,1.44,1.71,2.88,2.63,4.28,1.11,1.71,2.43,3.55,2.66,5.63Z"/>
        <path class="cls-7" d="m61.79,20.9c-.25.1-.5.2-.76.26-.54.12-1.1.13-1.64.26-.51.11-.99.32-1.49.45-.46.11-1,.35-1.5.39.02-.58.2-1.22.31-1.74.14-.67.25-1.34.39-2,.1-.48.42-1.08.62-1.67.15.15.31.29.47.44,1.18,1.23,2.4,2.42,3.61,3.63Z"/>
        <path class="cls-7" d="m65.83,25.09c-.18,1.05-.24,2.1-.39,3.16-.09.63-.19,1.26-.33,1.88-.09.39-.24.77-.36,1.15-1.41-.22-2.89-.82-4.21-1.29-.68-.25-1.35-.58-2.06-.72-.06-.03-.11-.05-.15-.07.1-.13.2-.24.32-.35.18-.21.33-.42.49-.64.8-1.11,2.12-2.01,3.18-2.86.63-.5,1.6-.95,2.26-1.57.41.44.82.87,1.23,1.32Z"/>
        <path class="cls-7" d="m72.38,32.35c.14.15.27.3.4.46-.42.43-.79.97-1.04,1.3-.49.64-1.02,1.21-1.54,1.81-.17.19-.33.4-.49.59-.17-.72-.34-1.44-.44-2.17-.14-1.01-.12-2.02-.14-3.03-.02-.86,0-1.68.07-2.52,1.06,1.19,2.12,2.38,3.18,3.57Z"/>
        <path class="cls-7" d="m58.8,62.38c.24,1.43-.61,3.22-1.53,4.27-.53.6-1.01,1.01-1.7,1.41-.53.3-1.11.53-1.64.82-.03,0-.07,0-.1,0-.72.02-1.42.21-2.13.28-.71.07-1.42.08-2.14.09-.82.02-1.48-.14-2.28-.26-.49-.08-.95-.09-1.42-.22-.48-.24-.99-.45-1.45-.72-.69-.4-1.17-.81-1.7-1.41-.92-1.04-1.76-2.84-1.53-4.27.26-1.59,1.55-2.06,2.91-2.56.02,0,.03-.01.05-.02.22-.03.44-.06.65-.09.64-.1,1.25-.31,1.89-.41.61-.1,1.22.05,1.83,0,1.32-.09,2.62-.18,3.95-.07.52.04,1.08.11,1.62.11.62.12,1.22.27,1.79.48,1.36.51,2.65.97,2.91,2.56Z"/>
        <path class="cls-7" d="m83.93,47.07c-.11.04-.21.07-.3.1-.57.18-1.17.25-1.76.34-.6.1-1.2.2-1.79.38-.12.04-.28.12-.42.15.03-.13.05-.26.07-.39.1-.64.17-1.14.45-1.74.24-.51.41-1.03.58-1.56.11-.37.24-.72.38-1.07.92,1.26,1.85,2.53,2.77,3.79Z"/>
        <path class="cls-7" d="m91.33,57.77c-.36.27-.72.52-1.04.75-.74.54-1.53,1.01-2.22,1.61-.82.7-1.59,1.4-2.45,2.04-.4.3-.8.6-1.22.87-.15.09-.29.22-.45.33-.14-.49-.19-1.08-.31-1.49-.25-.84-.51-1.66-.72-2.51-.41-1.69-.9-3.36-1.31-5.04-.11-.46-.27-.82.3-1.06.27-.11.86-.13,1.14-.15.83-.08,1.66.12,2.49.1.86-.02,1.72-.14,2.58-.21.02,0,.04,0,.06,0,.37.53.74,1.06,1.1,1.59.71,1.04,1.38,2.1,2.04,3.18Z"/>
        <path class="cls-7" d="m79.35,63.92c.06.23.3.86.1,1.02-.16.13-.31.02-.51,0-.56-.07-1.15.01-1.71,0-.63-.01-1.25-.05-1.87-.13-.48-.06-.58-.03-.58-.5,0-1.28.41-2.47.83-3.68.46-1.33.98-2.73,1.56-4.02.05-.11.13-.23.19-.35.11.25.26.53.29.67.18.7.11,1.84.69,2.37.05.33.09.67.14,1,.2,1.24.56,2.42.87,3.63Z"/>
        <path class="cls-7" d="m26.22,97.24c.07.27.11.52.16.74-.45-.21-.89-.43-1.35-.61-1.95-.78-3.81-1.83-5.6-2.9-.04-.03-.09-.05-.13-.07.04-.07.08-.15.12-.22.22-.37.51-.69.75-1.04.59-.86,1.08-1.79,1.63-2.67.46-.73.96-1.48,1.52-2.14.2-.24.52-.7.86-.57.33.12.37.65.45.97.42,1.92.57,3.92.93,5.86.09.46.17.93.25,1.39.08.46.29.82.41,1.26Z"/>
        <path class="cls-7" d="m24.39,60.62c.42,1.2.84,2.39.83,3.68,0,.47-.11.44-.58.5-.62.08-1.25.12-1.87.13-.56.01-1.15-.07-1.71,0-.2.03-.35.14-.51,0-.2-.16.04-.79.1-1.02.31-1.22.66-2.39.87-3.63.05-.33.1-.66.14-1,.58-.53.51-1.66.69-2.37.03-.13.18-.42.29-.67.06.12.14.24.19.35.59,1.28,1.1,2.68,1.56,4.02Z"/>
        <path class="cls-7" d="m27.84,70.08c.13.55-.53,1.72-.72,2.24-.51,1.42-1.14,2.8-1.62,4.24-.49,1.44-.98,2.89-1.43,4.34-.11.35-.21.7-.33,1.05-.06.18-.2.44-.3.69-.1-.24-.22-.48-.26-.59-.48-1.32-.7-2.68-.98-4.04.04-1.2-.18-2.41-.58-3.53-.23-.64-.49-1.26-.78-1.87-.27-.59-.87-1.39-.94-2.04-.04-.3.24-.32.59-.42.32-.09.68-.14,1.01-.2.81-.16,1.62-.28,2.45-.35.98-.08,2.08-.15,3.06.02.35.06.76.11.84.46Z"/>
        <path class="cls-7" d="m17.61,77.19c.36,1.22.15,2.62-.03,3.85-.21,1.42-.46,2.77-.85,4.15-.39,1.37-.55,2.79-.87,4.18-.21.93-.46,1.85-.66,2.78-.45-.26-.89-.53-1.31-.83-1.61-1.13-3.09-2.4-4.53-3.74-1.3-1.22-2.33-2.69-3.34-4.15.59-.29,1.16-.75,1.61-1.03,1.2-.75,2.43-1.42,3.61-2.2,1.13-.75,2.29-1.4,3.46-2.08.57-.33,1.15-.64,1.74-.95.24-.12.48-.29.75-.33.43-.05.33,0,.43.36Z"/>
        <path class="cls-7" d="m15.57,68.54c.48.76.02,1.52-.49,2.13-.86,1.03-2.04,1.89-3.09,2.73-1.21.97-2.47,1.88-3.7,2.82-1.1.85-2.21,1.67-3.35,2.46-.41.28-.78.59-1.14.92-.39-.75-.82-1.45-1.14-2.25-.75-1.91-1.65-3.95-1.42-6.06.23-2.08,1.55-3.92,2.66-5.63.91-1.4,1.77-2.84,2.63-4.28.29.28.56.57.86.83,1.01.89,2.06,1.7,3.2,2.43,1.2.77,2.34,1.63,3.48,2.49.56.43,1.12.81,1.51,1.42Z"/>
        <path class="cls-7" d="m18.08,53.26c.57.24.41.6.3,1.06-.41,1.69-.89,3.36-1.31,5.04-.21.85-.47,1.68-.72,2.51-.12.41-.17,1-.31,1.49-.15-.12-.3-.24-.45-.33-.42-.27-.82-.57-1.22-.87-.86-.65-1.63-1.35-2.45-2.04-.7-.59-1.48-1.07-2.22-1.61-.32-.23-.68-.49-1.04-.75.66-1.07,1.33-2.14,2.04-3.18.36-.53.73-1.06,1.1-1.59.02,0,.04,0,.06,0,.86.07,1.72.18,2.58.21.83.02,1.66-.18,2.49-.1.28.03.87.04,1.14.15Z"/>
        <path class="cls-7" d="m20.26,47.66c.02.13.05.26.07.39-.14-.03-.3-.11-.42-.15-.58-.18-1.19-.28-1.79-.38-.59-.09-1.19-.16-1.76-.34-.08-.03-.18-.06-.3-.1.93-1.26,1.85-2.53,2.77-3.79.14.35.27.7.38,1.07.17.54.34,1.05.58,1.56.28.6.35,1.1.45,1.74Z"/>
        <path class="cls-7" d="m30.8,28.79c.06.85.09,1.66.07,2.52-.02,1.01,0,2.02-.14,3.03-.1.73-.27,1.45-.44,2.17-.16-.2-.32-.4-.49-.59-.52-.6-1.05-1.18-1.54-1.81-.25-.32-.62-.86-1.04-1.3.13-.15.27-.3.4-.46,1.06-1.19,2.12-2.38,3.18-3.57Z"/>
        <path class="cls-7" d="m41.67,29.2s-.09.04-.15.07c-.72.14-1.38.48-2.06.72-1.31.47-2.8,1.07-4.21,1.29-.11-.39-.27-.76-.36-1.15-.15-.62-.25-1.25-.33-1.88-.15-1.06-.21-2.11-.39-3.16.41-.44.82-.88,1.23-1.32.67.61,1.64,1.06,2.26,1.57,1.07.85,2.39,1.76,3.18,2.86.16.22.31.43.49.64.12.11.22.23.32.35Z"/>
        <path class="cls-7" d="m43.3,20.51c.11.52.3,1.17.31,1.74-.5-.04-1.04-.28-1.5-.39-.51-.12-.99-.33-1.49-.45-.54-.12-1.1-.13-1.64-.26-.27-.06-.52-.16-.76-.26,1.37-1.36,2.74-2.7,4.07-4.1.2.6.52,1.22.63,1.71.14.66.25,1.34.39,2Z"/>
        <path class="cls-7" d="m55.36,14.26c-.08-.02-.17,0-.24.03-.44.26-.57.5-.72.97-.22.68-.52,1.24-.93,1.83-.49.7-1.14,1.27-1.83,1.78-.58.43-1.1.51-1.8.64-.68.12-1.41.56-2.02.07-.47-.38-.72-1.26-.95-1.78-.59-1.33-1.21-2.75-1.64-4.16.41-.43.81-.86,1.22-1.28,1.38-1.02,2.87-2.2,4.65-1.96.27.04.52.13.75.26,1.2,1.18,2.36,2.38,3.5,3.6Z"/>
        <path class="cls-5" d="m53.66,56.15c0,.33.04.73.13,1.12-1.72-.52-3.53-.45-5.39-.21-.59.08-1.19.04-1.78.17-.14.03-.28.07-.42.12.09-.42.13-.85.14-1.2.03-1.15.07-2.67-.42-3.83,1.12-.68,2.17-1.61,2.73-2.71.41-.52.75-1.11.97-1.64.1-.22.19-.47.27-.72.31.57.72,1.21,1.2,1.66.39,1.41,1.66,2.59,3,3.41-.49,1.16-.45,2.68-.42,3.83Z"/>
        <path class="cls-1" d="m44.41,53.08c-.04.76.04,1.56.02,2.21-.02.68-.1,1.29-.24,1.95-.05.23-.13.46-.18.69-.34.07-.68.16-1.04.25-1.9.52-3.33,1.85-3.75,3.78-.03.12-.04.24-.06.36-.45-.03-.92.04-1.39.01-.63-.04-1.29-.18-1.92-.27-1.45-.2-2.84-.53-3.96-1.51-1.14-.99-1.94-2.69-2.32-4.12-.22-.83-.4-1.7-.5-2.55-.05-.39-.05-.78-.1-1.15.99.32,2,.47,3.04.59,1,.12,1.99.33,2.98.48-.23.68-.33,1.36-.1,2.1.26.82.88,1.59,1.72,1.85,1.71.53,3.58-1.02,3.62-2.76,0-.37-.08-.78-.24-1.15h.03c.7-.03,1.37.05,2.07-.05.69-.1,1.33-.34,1.98-.59.11-.04.22-.09.34-.13Z"/>
        <path class="cls-1" d="m71.02,52.74c-.05.38-.05.76-.1,1.15-.1.85-.28,1.73-.5,2.55-.39,1.43-1.19,3.14-2.32,4.12-1.12.97-2.51,1.31-3.96,1.51-.63.08-1.29.23-1.92.27-.47.03-.94-.04-1.39-.01-.01-.12-.03-.24-.06-.36-.42-1.94-1.85-3.26-3.75-3.78-.35-.1-.7-.18-1.04-.25-.05-.23-.13-.46-.18-.69-.14-.66-.22-1.27-.24-1.95-.02-.65.06-1.45.02-2.21.11.05.23.09.34.13.65.24,1.29.48,1.98.59.69.1,1.37.03,2.07.05h.03c-.16.37-.25.78-.24,1.15.04,1.73,1.91,3.29,3.62,2.76.84-.26,1.46-1.03,1.72-1.85.23-.74.14-1.42-.1-2.1,1-.14,1.98-.36,2.98-.48,1.05-.12,2.06-.27,3.04-.59Z"/>
        <path class="cls-5" d="m95.31,80.41c.11.11.23.21.35.3-.34.66-.69,1.29-1.12,1.92-.04.05-.07.11-.11.16-.44-.32-.9-.78-1.19-1-.55-.42-1.12-.76-1.7-1.13-1.35-.84-2.6-1.84-3.96-2.65-1.25-.74-2.54-1.56-3.87-2.16-.75-.34-1.91-.51-2.33.39-.49,1.06-.43,2.56-.32,3.69.14,1.52.32,3.17.73,4.64.41,1.47.69,2.94,1.01,4.44.27,1.26.59,2.51.86,3.77-.76.41-1.53.8-2.29,1.22-.08-.23-.2-.43-.38-.67-.64-.87-1.04-1.88-1.7-2.74-1.22-1.58-2.91-3.02-4.7-3.89-.2-.09-.46-.14-.65,0-.64.45-.64,1.05-.73,1.78-.13,1.13-.31,2.25-.4,3.38-.09,1.11-.12,2.22-.21,3.33-.05.59-.05,1.18-.06,1.77,0,.48-.19.91-.15,1.39,0,.05.01.09.03.14-.08.03-.16.06-.24.08-1,.33-1.99.66-2.98,1.04-2.02.78-4.12,1.37-6.23,1.85-.04,0-.08.02-.12.03-.38-.03-.78-.03-1.13-.05-.49-.02-1.09.01-1.58.05-1.31.1-2.59.55-3.89.72-.71.09-1.41-.01-2.13.11-.61.1-1.22.16-1.84.24-.53.07-1.05.02-1.59.07-.7.07-1.37.21-2.08.22-1.31.03-2.57-.19-3.87-.32-.41-.04-.81.01-1.21.03-.83-.17-1.66-.3-2.49-.43-.07-.01-.14-.02-.21-.03-.86-.11-1.75-.33-2.63-.41-.39-.07-.78-.15-1.17-.24-2.12-.48-4.21-1.07-6.23-1.85-.97-.37-1.95-.7-2.93-1.02,0-.02,0-.03,0-.05-.01-.47-.27-.54-.42-.93-.07-.18-.04-.49-.09-.69-.07-.23-.22-.44-.29-.67-.36-1.07-.44-2.32-.65-3.43-.24-1.28-.33-2.57-.57-3.84-.13-.7-.25-1.58-.8-2.08-1.3-1.21-2.65.79-3.3,1.72-1.2,1.7-2.14,3.57-3.17,5.37-.74-.41-1.49-.79-2.24-1.2.27-1.26.59-2.51.86-3.77.32-1.5.6-2.97,1.01-4.44.41-1.47.59-3.12.73-4.64.11-1.13.17-2.63-.32-3.69-.41-.91-1.58-.73-2.33-.39-1.33.6-2.62,1.41-3.87,2.16-1.36.81-2.61,1.81-3.96,2.65-.58.36-1.16.71-1.7,1.13-.28.22-.75.68-1.19,1-.04-.05-.07-.11-.11-.16-.43-.62-.79-1.26-1.12-1.92.12-.09.24-.2.35-.3.51-.49,1.12-.86,1.7-1.27,1.33-.94,2.6-1.96,3.89-2.95,1.19-.91,2.38-1.79,3.52-2.75,1.05-.9,2.23-1.75,2.85-3.03,1.22-2.53-1.89-4.22-3.62-5.44-1.22-.86-2.54-1.58-3.74-2.47-.62-.46-1.24-.91-1.86-1.37-.18-.13-.36-.26-.55-.37.44-.75.88-1.49,1.33-2.24.85.85,1.95,1.49,2.84,2.26.81.7,1.55,1.47,2.41,2.12.43.33.85.68,1.3.98.42.28.8.66,1.25.87.3.15.6.07.8-.21.45-.63.48-1.61.7-2.34.32-1.05.63-2.09.89-3.15.26-1.09.55-2.17.84-3.25.22-.81.65-1.78.37-2.63-.52-1.6-3.09-1.26-4.36-1.18-.88.05-1.76-.03-2.64-.11.96-1.36,1.94-2.7,2.92-4.05.53.26,1.11.44,1.58.54.84.18,1.7.31,2.52.59.41.14.87.37,1.31.2.43-.17.56-.59.54-1.02-.03-.67-.12-1.5-.36-2.13-.26-.7-.6-1.36-.83-2.08-.18-.59-.4-1.17-.62-1.75,2.19-2.96,4.51-5.86,6.93-8.65.1.16.2.31.28.42.39.53.74,1.1,1.13,1.63.65.87,1.36,1.92,2.19,2.61.33.28.9.21,1.02-.27.28-1.16.62-2.3.77-3.48.16-1.24.14-2.5.18-3.75.03-1.08-.14-2.13-.18-3.21.51-.56,1.01-1.12,1.52-1.67-.01.9.04,1.82.11,2.69.05.54.1,1.07.18,1.61.09.61.34,1.22.41,1.83.03.3.24.61.58.58.87-.06,1.68-.36,2.51-.6.93-.26,1.85-.55,2.76-.89.77-.29,1.72-.46,2.43-.86.47-.27.58-.67.37-1.17-.26-.63-.87-1.21-1.3-1.74-.51-.64-1.23-1.12-1.83-1.68-1.09-1.02-2.35-1.77-3.54-2.63.48-.5.97-.99,1.46-1.48.02-.02.04-.04.06-.06.86.5,1.76.62,2.78.98,1.1.39,2.44,1.14,3.64,1,.24-.03.5-.16.55-.42.23-1.25-.24-2.58-.47-3.79-.22-1.17-.55-2.31-.96-3.43.48-.52.96-1.03,1.44-1.55.13.57.38,1.16.53,1.66.29.91.68,1.8,1.06,2.68.54,1.26,1.15,2.43,2.71,2.1.75-.16,1.61-.19,2.31-.5.71-.31,1.37-.9,1.95-1.41.66-.58,1.2-1.29,1.64-2.05.37-.62.46-1.31.71-1.98.02-.04.02-.08.02-.12.27.29.55.59.82.88.08.1.16.2.25.3-.41,1.11-.73,2.24-.95,3.4-.23,1.22-.69,2.55-.47,3.79.05.26.32.39.55.42,1.2.15,2.53-.61,3.64-1,1.02-.36,1.92-.48,2.79-.98.02.02.04.04.06.06.49.49.98.99,1.46,1.48-1.19.86-2.45,1.61-3.54,2.63-.59.55-1.32,1.04-1.83,1.68-.42.53-1.03,1.11-1.3,1.74-.21.5-.1.91.37,1.17.71.4,1.66.57,2.43.86.9.34,1.83.63,2.76.89.83.24,1.64.55,2.51.6.34.02.55-.29.58-.58.07-.61.32-1.22.41-1.83.08-.53.14-1.07.18-1.61.07-.87.13-1.79.11-2.69.51.55,1.01,1.11,1.52,1.67-.03,1.08-.21,2.13-.18,3.21.04,1.25.02,2.51.18,3.75.15,1.18.49,2.33.77,3.48.11.48.68.55,1.02.27.83-.69,1.55-1.74,2.19-2.61.39-.53.74-1.1,1.13-1.63.08-.11.18-.26.28-.42,2.42,2.78,4.74,5.68,6.93,8.65-.22.58-.44,1.16-.62,1.75-.22.72-.57,1.38-.83,2.08-.23.63-.32,1.46-.36,2.13-.02.43.11.85.54,1.02.44.18.89-.05,1.31-.2.82-.28,1.67-.41,2.52-.59.47-.1,1.05-.28,1.58-.54.98,1.35,1.96,2.69,2.92,4.05-.88.08-1.76.16-2.64.11-1.27-.08-3.85-.42-4.36,1.18-.27.85.15,1.82.37,2.63.3,1.08.58,2.16.84,3.25.26,1.07.57,2.1.89,3.15.22.73.25,1.72.7,2.34.2.28.5.36.8.21.45-.22.83-.6,1.25-.87.45-.3.87-.65,1.3-.98.86-.65,1.59-1.42,2.41-2.12.89-.77,1.99-1.41,2.84-2.26.45.74.89,1.49,1.33,2.24-.19.11-.36.24-.55.37-.62.46-1.24.91-1.86,1.37-1.2.89-2.52,1.61-3.74,2.47-1.73,1.22-4.84,2.91-3.62,5.44.62,1.28,1.79,2.14,2.85,3.03,1.14.97,2.33,1.85,3.52,2.75,1.29.99,2.56,2.01,3.89,2.95.58.41,1.19.78,1.7,1.27Zm-14.73-8.04c.27-.57.89-1.48.76-2.15-.14-.7-.9-1.05-1.51-1.22-1.73-.47-3.62-.73-5.41-.71-.94,0-2.11,0-2.9.59-1.23.91-.21,2.66.19,3.77.68,1.84,1.47,3.61,2.05,5.48.53,1.72,1.08,3.5,1.78,5.15.21.49.44,1.22,1.11,1.16.53-.04.68-.5.82-.93.31-.97.67-1.92.88-2.92.19-.9.26-1.83.41-2.74.05-.29.1-.58.15-.87.16-.52.24-1.06.39-1.58.3-1.06.8-2.05,1.27-3.03Zm-.84-6.17c.92-.12.92-1.05.79-1.78-.23-1.36-.81-2.68-1.14-4.02-.17-.7-.34-1.41-.49-2.11-.03-.16-.07-.3-.11-.44.01-.24.02-.47,0-.64-.08-.53-.2-1.04-.41-1.53-.26-.64-.84-1.42-1.58-.84-.37.29-.53.93-.71,1.34-.26.57-.45,1.17-.67,1.76-.52,1.43-1.12,2.82-1.53,4.28-.18.62-.22,1.19-.24,1.83-.02.45-.17.91.1,1.31.44.65,1.57.62,2.25.68.67.06,1.34.07,2.01.06.57-.01,1.17.18,1.73.11Zm-4.76-15.84c.68-1.05.81-2.44.71-3.65-.11-1.29-.4-2.62-.88-3.83-.2-.51-.46-1.12-.85-1.52-.34-.35-.81-.49-1.25-.67-.15-.06-.33.11-.19.25,1.02.99,1.2,2.63,1.31,4,.1,1.25.24,2.72-.36,3.87-.57,1.07-2.28,1.54-3.39,1.82-1.32.34-2.68.39-4.02.62-1.31.22-2.58.28-3.91.29-.69,0-1.33-.11-2.02-.15-.62-.04-1.25.08-1.88,0-1.3-.16-2.67-.64-3.83-1.23-.7-.35-1.58-.94-2.17-1.63-.03-.17,0-.37-.04-.51-.05-.22-.16-.41-.25-.6-.25-.57-.55-1.14-.74-1.73-.2-.6-.19-1.24-.26-1.86-.07-.68-.17-1.4.27-1.98.72-.93,2.2-1.47,3.23-1.95.89-.41,1.83-.69,2.75-1.01.46-.04.92-.08,1.39-.12,1.5-.11,2.99.38,4.48.15.39-.06.39-.72,0-.79-1.55-.28-2.92-.57-4.47-.49-.03-.02-.06-.03-.1-.04-1.77-.29-3.62.45-5.25,1.09-1.48.58-3.31,1.18-4.02,2.72,0,.02-.01.03-.02.05-1.39-1.65-3.82-2.3-5.99-2.11-.69-.09-1.35-.12-2.08-.13-1.87-.01-3.64.31-5.48.6-.33.05-.33.62,0,.68,1.76.28,3.55-.12,5.31-.12.34,0,.67,0,1,.02.01,0,.03.01.04.01,1.32.33,2.7.36,3.9,1.07,1.18.7,2.02,1.64,2,3.06-.02,1.26-.28,2.37-.73,3.55-.16.41-.43.92-.57,1.43-.36.25-.72.47-1.04.63-1.16.59-2.53,1.07-3.83,1.23-.62.08-1.25-.04-1.88,0-.69.04-1.32.16-2.02.15-1.33,0-2.6-.06-3.91-.29-1.34-.23-2.71-.28-4.02-.62-1.1-.28-2.82-.74-3.39-1.82-.61-1.15-.46-2.62-.37-3.87.11-1.37.29-3.01,1.31-4,.14-.13-.04-.31-.19-.25-.44.19-.91.32-1.25.67-.39.41-.65,1.01-.85,1.52-.48,1.2-.77,2.53-.88,3.83-.1,1.22.03,2.6.71,3.65.57.87,1.56,1.38,2.52,1.81-.58,1.5-.22,3.54.12,5,.41,1.75,1.36,3.74,2.72,4.95.66.58,1.31,1.07,2.12,1.4.81.32,1.63.41,2.47.61.76.18,1.59.36,2.38.43.57.05,1.34.13,1.99,0,.02.14.05.27.07.4.2,1.04.58,2.02,1.24,2.85,1.14,1.44,2.47,2.46,4.17,2.77.57.27,1.17.46,1.86.62.78.18,1.45.41,2.26.44.72.03,1.45.03,2.17,0,.71-.03,1.42-.14,2.12-.26.73-.12,1.39-.15,1.93-.72.03-.03.06-.07.09-.11,1.66-.33,2.97-1.34,4.09-2.76.66-.83,1.04-1.81,1.24-2.85.03-.13.05-.26.07-.4.65.12,1.42.05,1.99,0,.79-.07,1.61-.25,2.38-.43.84-.2,1.66-.29,2.47-.61.81-.32,1.47-.82,2.12-1.4,1.37-1.2,2.31-3.19,2.72-4.95.34-1.46.7-3.49.12-5,.96-.43,1.95-.93,2.52-1.81Zm-18.3-14.91c.34-.13.46-.74,0-.81-.63-.1-1.15.04-1.73.28-.8.34-1.66.55-2.5.77-1.98.53-3.92.7-5.96.7-1.96,0-3.91-.2-5.87-.24-.94-.02-1.88.05-2.83.03-.95-.02-1.89.05-2.81.32-.25.07-.14.43.11.38,1.04-.2,2.02.06,3.05.2.94.12,1.89.16,2.84.25,1.96.17,3.89.41,5.86.43,1.8.02,3.59-.08,5.34-.5.88-.21,1.76-.42,2.61-.74.7-.26,1.22-.81,1.89-1.07Zm-.38-2.61c.4-.11.31-.7-.1-.71-4.52-.2-8.96,1.93-13.45.72-.24-.06-.33.29-.1.37,2.19.81,4.4,1.19,6.73.96,2.33-.24,4.66-.72,6.92-1.34Zm-5.86,51.48c.83.19,4.08,2.07,3.78-.14-.24-1.81-3.13-2.26-4.56-2.29-1.06-.02-1.98.2-2.9.74-.35.21-.69.44-.96.76-.29.34-.41.81-.73,1.12-.31.3-.09.91.36.88.76-.05,1.37-.56,2.06-.84.98-.4,1.91-.46,2.94-.22Zm2.66-53.56c.35-.03.35-.51,0-.54-2.56-.19-5.1-.04-7.67.04-.29,0-.29.45,0,.46,2.56.08,5.11.23,7.67.04Zm-24.81,41.9c.41-1.1,1.42-2.85.19-3.77-.79-.59-1.96-.59-2.9-.59-1.79-.02-3.69.24-5.41.71-.62.17-1.37.51-1.51,1.22-.13.67.49,1.58.76,2.15.48.99.97,1.98,1.27,3.03.15.52.23,1.06.39,1.58.05.29.1.58.15.87.16.91.22,1.84.41,2.74.21.99.57,1.95.88,2.92.14.43.3.89.82.93.67.06.9-.67,1.11-1.16.7-1.66,1.25-3.44,1.78-5.15.58-1.87,1.37-3.65,2.05-5.48Zm-2.03-7.3c.27-.4.12-.87.1-1.31-.02-.64-.07-1.21-.24-1.83-.41-1.47-1.01-2.85-1.53-4.28-.22-.59-.41-1.19-.67-1.76-.18-.41-.34-1.05-.71-1.34-.74-.58-1.32.2-1.58.84-.2.49-.32,1-.41,1.53-.03.17-.02.4,0,.64-.04.14-.08.29-.11.44-.15.71-.32,1.41-.49,2.11-.33,1.34-.91,2.66-1.14,4.02-.13.74-.13,1.67.79,1.78.56.07,1.16-.12,1.73-.11.67.01,1.35,0,2.01-.06.68-.06,1.81-.03,2.25-.68Z"/>
      </g>
      <g>
        <path class="cls-2" d="m101.09,69.44c-.55-2.16-2.01-4.09-3.22-5.93-1.29-1.97-2.44-4.04-3.69-6.03-1.25-1.99-2.53-3.96-3.9-5.87-2.8-3.89-5.67-7.78-8.61-11.56-2.96-3.8-6.05-7.48-9.32-11-3.15-3.38-6.27-6.74-9.58-9.96-.63-.62-1.28-1.22-1.92-1.82-1.18-1.79-2.64-3.48-4.1-5-1.56-1.62-3.18-3.83-5.6-4.01-1.09-.08-2.33.21-3.28.76-.44.25-.88.62-1.22.99-.37.4-.78.72-1.18,1.09-.9.81-1.71,1.66-2.54,2.55-.33.36-.77.69-1.05,1.1-1.53,1.46-3.1,2.88-4.61,4.36-3.31,3.22-6.44,6.58-9.58,9.96-3.28,3.52-6.37,7.21-9.32,11-2.95,3.78-5.81,7.67-8.61,11.56-1.38,1.91-2.65,3.88-3.9,5.87-1.26,1.99-2.4,4.07-3.69,6.03-1.21,1.84-2.67,3.77-3.22,5.93-.53,2.08-.34,4.34.44,6.34.39,1,.79,1.99,1.22,2.97.42.96.99,1.82,1.42,2.77.88,1.94,2.24,3.72,3.54,5.41.64.84,1.32,1.66,2.1,2.38.8.74,1.58,1.57,2.46,2.21.82.59,1.61,1.23,2.43,1.81.95.68,2,1.16,3.01,1.74,2.16,1.24,4.31,2.5,6.55,3.59,2.14,1.03,4.29,1.91,6.53,2.7,1.22.43,2.4,1,3.65,1.34,1.16.31,2.31.66,3.48.95,1.48.36,3,.7,4.52.84.14.03.27.06.41.09.69.14,1.35.43,2.05.53.66.1,1.32,0,1.97.08,1.37.18,2.71.41,4.1.4.68,0,1.33-.15,2-.19.67-.04,1.3.03,1.97-.07.56-.08,1.13-.09,1.69-.17.71-.1,1.4,0,2.11-.08,1.08-.11,2.13-.4,3.19-.59,1.53-.13,3.05-.47,4.53-.84,1.17-.29,2.32-.64,3.48-.95,1.25-.33,2.43-.91,3.65-1.34,2.24-.78,4.39-1.66,6.53-2.7,2.24-1.08,4.39-2.35,6.55-3.59,1.01-.58,2.06-1.06,3.01-1.74.82-.58,1.61-1.22,2.43-1.81.88-.64,1.66-1.47,2.46-2.21.78-.72,1.45-1.54,2.1-2.38,1.3-1.69,2.65-3.47,3.54-5.41.43-.95,1.01-1.81,1.42-2.77.43-.98.83-1.98,1.22-2.97.77-2,.97-4.26.44-6.34Zm-12.89-16.44c.37.53.74,1.06,1.1,1.59.71,1.04,1.38,2.1,2.04,3.18-.36.27-.72.52-1.04.75-.74.54-1.53,1.01-2.22,1.61-.82.7-1.59,1.4-2.45,2.04-.4.3-.8.6-1.22.87-.15.09-.29.22-.45.33-.14-.49-.19-1.08-.31-1.49-.25-.84-.51-1.66-.72-2.51-.41-1.69-.9-3.36-1.31-5.04-.11-.46-.27-.82.3-1.06.27-.11.86-.13,1.14-.15.83-.08,1.66.12,2.49.1.86-.02,1.72-.14,2.58-.21.02,0,.04,0,.06,0Zm-7.04-9.72c.92,1.26,1.85,2.53,2.77,3.79-.11.04-.21.07-.3.1-.57.18-1.17.25-1.76.34-.6.1-1.2.2-1.79.38-.12.04-.28.12-.42.15.03-.13.05-.26.07-.39.1-.64.17-1.14.45-1.74.24-.51.41-1.03.58-1.56.11-.37.24-.72.38-1.07Zm-11.95-14.49c1.06,1.19,2.12,2.38,3.18,3.57.14.15.27.3.4.46-.42.43-.79.97-1.04,1.3-.49.64-1.02,1.21-1.54,1.81-.17.19-.33.4-.49.59-.17-.72-.34-1.44-.44-2.17-.14-1.01-.12-2.02-.14-3.03-.02-.86,0-1.68.07-2.52Zm-4.6-5.02c.41.44.82.87,1.23,1.32-.18,1.05-.24,2.1-.39,3.16-.09.63-.19,1.26-.33,1.88-.09.39-.24.77-.36,1.15-1.41-.22-2.89-.82-4.21-1.29-.68-.25-1.35-.58-2.06-.72-.06-.03-.11-.05-.15-.07.1-.13.2-.24.32-.35.18-.21.33-.42.49-.64.8-1.11,2.12-2.01,3.18-2.86.63-.5,1.6-.95,2.26-1.57Zm-7.5-5.26c.1-.48.42-1.08.62-1.67.15.15.31.29.47.44,1.18,1.23,2.4,2.42,3.61,3.63-.25.1-.5.2-.76.26-.54.12-1.1.13-1.64.26-.51.11-.99.32-1.49.45-.46.11-1,.35-1.5.39.02-.58.2-1.22.31-1.74.14-.67.25-1.34.39-2Zm-10.64-6.15c1.38-1.02,2.87-2.2,4.65-1.96.27.04.52.13.75.26,1.2,1.18,2.36,2.38,3.5,3.6-.08-.02-.17,0-.24.03-.44.26-.57.5-.72.97-.22.68-.52,1.24-.93,1.83-.49.7-1.14,1.27-1.83,1.78-.58.43-1.1.51-1.8.64-.68.12-1.41.56-2.02.07-.47-.38-.72-1.26-.95-1.78-.59-1.33-1.21-2.75-1.64-4.16.41-.43.81-.86,1.22-1.28Zm-4.17,4.44c.2.6.52,1.22.63,1.71.14.66.25,1.34.39,2,.11.52.3,1.17.31,1.74-.5-.04-1.04-.28-1.5-.39-.51-.12-.99-.33-1.49-.45-.54-.12-1.1-.13-1.64-.26-.27-.06-.52-.16-.76-.26,1.37-1.36,2.74-2.7,4.07-4.1Zm-6.88,6.97c.67.61,1.64,1.06,2.26,1.57,1.07.85,2.39,1.76,3.18,2.86.16.22.31.43.49.64.12.11.22.23.32.35-.04.02-.09.04-.15.07-.72.14-1.38.48-2.06.72-1.31.47-2.8,1.07-4.21,1.29-.11-.39-.27-.76-.36-1.15-.15-.62-.25-1.25-.33-1.88-.15-1.06-.21-2.11-.39-3.16.41-.44.82-.88,1.23-1.32Zm-7.78,8.58c1.06-1.19,2.12-2.38,3.18-3.57.06.85.09,1.66.07,2.52-.02,1.01,0,2.02-.14,3.03-.1.73-.27,1.45-.44,2.17-.16-.2-.32-.4-.49-.59-.52-.6-1.05-1.18-1.54-1.81-.25-.32-.62-.86-1.04-1.3.13-.15.27-.3.4-.46Zm-8.77,10.92c.14.35.27.7.38,1.07.17.54.34,1.05.58,1.56.28.6.35,1.1.45,1.74.02.13.05.26.07.39-.14-.03-.3-.11-.42-.15-.58-.18-1.19-.28-1.79-.38-.59-.09-1.19-.16-1.76-.34-.08-.03-.18-.06-.3-.1.93-1.26,1.85-2.53,2.77-3.79Zm-8.14,11.31c.36-.53.73-1.06,1.1-1.59.02,0,.04,0,.06,0,.86.07,1.72.18,2.58.21.83.02,1.66-.18,2.49-.1.28.03.87.04,1.14.15.57.24.41.6.3,1.06-.41,1.69-.89,3.36-1.31,5.04-.21.85-.47,1.68-.72,2.51-.12.41-.17,1-.31,1.49-.15-.12-.3-.24-.45-.33-.42-.27-.82-.57-1.22-.87-.86-.65-1.63-1.35-2.45-2.04-.7-.59-1.48-1.07-2.22-1.61-.32-.23-.68-.49-1.04-.75.66-1.07,1.33-2.14,2.04-3.18Zm-8.06,22.76c-.75-1.91-1.65-3.95-1.42-6.06.23-2.08,1.55-3.92,2.66-5.63.91-1.4,1.77-2.84,2.63-4.28.29.28.56.57.86.83,1.01.89,2.06,1.7,3.2,2.43,1.2.77,2.34,1.63,3.48,2.49.56.43,1.12.81,1.51,1.42.48.76.02,1.52-.49,2.13-.86,1.03-2.04,1.89-3.09,2.73-1.21.97-2.47,1.88-3.7,2.82-1.1.85-2.21,1.67-3.35,2.46-.41.28-.78.59-1.14.92-.39-.75-.82-1.45-1.14-2.25Zm12.54,14.81c-.45-.26-.89-.53-1.31-.83-1.61-1.13-3.09-2.4-4.53-3.74-1.3-1.22-2.33-2.69-3.34-4.15.59-.29,1.16-.75,1.61-1.03,1.2-.75,2.43-1.42,3.61-2.2,1.13-.75,2.29-1.4,3.46-2.08.57-.33,1.15-.64,1.74-.95.24-.12.48-.29.75-.33.43-.05.33,0,.43.36.36,1.22.15,2.62-.03,3.85-.21,1.42-.46,2.77-.85,4.15-.39,1.37-.55,2.79-.87,4.18-.21.93-.46,1.85-.66,2.78Zm9.84,5.22c-1.95-.78-3.81-1.83-5.6-2.9-.04-.03-.09-.05-.13-.07.04-.07.08-.15.12-.22.22-.37.51-.69.75-1.04.59-.86,1.08-1.79,1.63-2.67.46-.73.96-1.48,1.52-2.14.2-.24.52-.7.86-.57.33.12.37.65.45.97.42,1.92.57,3.92.93,5.86.09.46.17.93.25,1.39.08.46.29.82.41,1.26.07.27.11.52.16.74-.45-.21-.89-.43-1.35-.61Zm55.55-2.9c-1.8,1.07-3.66,2.12-5.6,2.9-.43.18-.86.38-1.28.58.27-1.56.27-3.19.34-4.77.04-.95.12-1.89.24-2.83.07-.56.15-1.12.22-1.68,0-.07,0-.33.02-.54,1.56.86,3.09,2.15,4.12,3.55.52.71.89,1.5,1.49,2.15.19.2.33.42.47.63,0,0,0,0,0,0Zm10.07-6.89c-1.44,1.34-2.92,2.62-4.53,3.74-.42.3-.86.57-1.31.83-.2-.93-.45-1.86-.66-2.78-.32-1.39-.49-2.81-.87-4.18-.39-1.38-.64-2.73-.85-4.15-.18-1.23-.39-2.63-.03-3.85.11-.36,0-.42.43-.36.27.03.51.2.75.33.58.3,1.17.62,1.74.95,1.17.68,2.33,1.33,3.46,2.08,1.18.78,2.41,1.45,3.61,2.2.45.28,1.02.75,1.61,1.03-1.01,1.47-2.03,2.93-3.34,4.15Zm3.89-4.96c-.04.05-.07.11-.11.16-.44-.32-.9-.78-1.19-1-.55-.42-1.12-.76-1.7-1.13-1.35-.84-2.6-1.84-3.96-2.65-1.25-.74-2.54-1.56-3.87-2.16-.75-.34-1.91-.51-2.33.39-.49,1.06-.43,2.56-.32,3.69.14,1.52.32,3.17.73,4.64.41,1.47.69,2.94,1.01,4.44.27,1.26.59,2.51.86,3.77-.76.41-1.53.8-2.29,1.22-.08-.23-.2-.43-.38-.67-.64-.87-1.04-1.88-1.7-2.74-1.22-1.58-2.91-3.02-4.7-3.89-.2-.09-.46-.14-.65,0-.64.45-.64,1.05-.73,1.78-.13,1.13-.31,2.25-.4,3.38-.09,1.11-.12,2.22-.21,3.33-.05.59-.05,1.18-.06,1.77,0,.48-.19.91-.15,1.39,0,.05.01.09.03.14-.08.03-.16.06-.24.08-1,.33-1.99.66-2.98,1.04-2.02.78-4.12,1.37-6.23,1.85-.04,0-.08.02-.12.03-.38-.03-.78-.03-1.13-.05-.49-.02-1.09.01-1.58.05-1.31.1-2.59.55-3.89.72-.71.09-1.41-.01-2.13.11-.61.1-1.22.16-1.84.24-.53.07-1.05.02-1.59.07-.7.07-1.37.21-2.08.22-1.31.03-2.57-.19-3.87-.32-.41-.04-.81.01-1.21.03-.83-.17-1.66-.3-2.49-.43-.07-.01-.14-.02-.21-.03-.86-.11-1.75-.33-2.63-.41-.39-.07-.78-.15-1.17-.24-2.12-.48-4.21-1.07-6.23-1.85-.97-.37-1.95-.7-2.93-1.02,0-.02,0-.03,0-.05-.01-.47-.27-.54-.42-.93-.07-.18-.04-.49-.09-.69-.07-.23-.22-.44-.29-.67-.36-1.07-.44-2.32-.65-3.43-.24-1.28-.33-2.57-.57-3.84-.13-.7-.25-1.58-.8-2.08-1.3-1.21-2.65.79-3.3,1.72-1.2,1.7-2.14,3.57-3.17,5.37-.74-.41-1.49-.79-2.24-1.2.27-1.26.59-2.51.86-3.77.32-1.5.6-2.97,1.01-4.44.41-1.47.59-3.12.73-4.64.11-1.13.17-2.63-.32-3.69-.41-.91-1.58-.73-2.33-.39-1.33.6-2.62,1.41-3.87,2.16-1.36.81-2.61,1.81-3.96,2.65-.58.36-1.16.71-1.7,1.13-.28.22-.75.68-1.19,1-.04-.05-.07-.11-.11-.16-.43-.62-.79-1.26-1.12-1.92.12-.09.24-.2.35-.3.51-.49,1.12-.86,1.7-1.27,1.33-.94,2.6-1.96,3.89-2.95,1.19-.91,2.38-1.79,3.52-2.75,1.05-.9,2.23-1.75,2.85-3.03,1.22-2.53-1.89-4.22-3.62-5.44-1.22-.86-2.54-1.58-3.74-2.47-.62-.46-1.24-.91-1.86-1.37-.18-.13-.36-.26-.55-.37.44-.75.88-1.49,1.33-2.24.85.85,1.95,1.49,2.84,2.26.81.7,1.55,1.47,2.41,2.12.43.33.85.68,1.3.98.42.28.8.66,1.25.87.3.15.6.07.8-.21.45-.63.48-1.61.7-2.34.32-1.05.63-2.09.89-3.15.26-1.09.55-2.17.84-3.25.22-.81.65-1.78.37-2.63-.52-1.6-3.09-1.26-4.36-1.18-.88.05-1.76-.03-2.64-.11.96-1.36,1.94-2.7,2.92-4.05.53.26,1.11.44,1.58.54.84.18,1.7.31,2.52.59.41.14.87.37,1.31.2.43-.17.56-.59.54-1.02-.03-.67-.12-1.5-.36-2.13-.26-.7-.6-1.36-.83-2.08-.18-.59-.4-1.17-.62-1.75,2.19-2.96,4.51-5.86,6.93-8.65.1.16.2.31.28.42.39.53.74,1.1,1.13,1.63.65.87,1.36,1.92,2.19,2.61.33.28.9.21,1.02-.27.28-1.16.62-2.3.77-3.48.16-1.24.14-2.5.18-3.75.03-1.08-.14-2.13-.18-3.21.51-.56,1.01-1.12,1.52-1.67-.01.9.04,1.82.11,2.69.05.54.1,1.07.18,1.61.09.61.34,1.22.41,1.83.03.3.24.61.58.58.87-.06,1.68-.36,2.51-.6.93-.26,1.85-.55,2.76-.89.77-.29,1.72-.46,2.43-.86.47-.27.58-.67.37-1.17-.26-.63-.87-1.21-1.3-1.74-.51-.64-1.23-1.12-1.83-1.68-1.09-1.02-2.35-1.77-3.54-2.63.48-.5.97-.99,1.46-1.48.02-.02.04-.04.06-.06.86.5,1.76.62,2.78.98,1.1.39,2.44,1.14,3.64,1,.24-.03.5-.16.55-.42.23-1.25-.24-2.58-.47-3.79-.22-1.17-.55-2.31-.96-3.43.48-.52.96-1.03,1.44-1.55.13.57.38,1.16.53,1.66.29.91.68,1.8,1.06,2.68.54,1.26,1.15,2.43,2.71,2.1.75-.16,1.61-.19,2.31-.5.71-.31,1.37-.9,1.95-1.41.66-.58,1.2-1.29,1.64-2.05.37-.62.46-1.31.71-1.98.02-.04.02-.08.02-.12.27.29.55.59.82.88.08.1.16.2.25.3-.41,1.11-.73,2.24-.95,3.4-.23,1.22-.69,2.55-.47,3.79.05.26.32.39.55.42,1.2.15,2.53-.61,3.64-1,1.02-.36,1.92-.48,2.79-.98.02.02.04.04.06.06.49.49.98.99,1.46,1.48-1.19.86-2.45,1.61-3.54,2.63-.59.55-1.32,1.04-1.83,1.68-.42.53-1.03,1.11-1.3,1.74-.21.5-.1.91.37,1.17.71.4,1.66.57,2.43.86.9.34,1.83.63,2.76.89.83.24,1.64.55,2.51.6.34.02.55-.29.58-.58.07-.61.32-1.22.41-1.83.08-.53.14-1.07.18-1.61.07-.87.13-1.79.11-2.69.51.55,1.01,1.11,1.52,1.67-.03,1.08-.21,2.13-.18,3.21.04,1.25.02,2.51.18,3.75.15,1.18.49,2.33.77,3.48.11.48.68.55,1.02.27.83-.69,1.55-1.74,2.19-2.61.39-.53.74-1.1,1.13-1.63.08-.11.18-.26.28-.42,2.42,2.78,4.74,5.68,6.93,8.65-.22.58-.44,1.16-.62,1.75-.22.72-.57,1.38-.83,2.08-.23.63-.32,1.46-.36,2.13-.02.43.11.85.54,1.02.44.18.89-.05,1.31-.2.82-.28,1.67-.41,2.52-.59.47-.1,1.05-.28,1.58-.54.98,1.35,1.96,2.69,2.92,4.05-.88.08-1.76.16-2.64.11-1.27-.08-3.85-.42-4.36,1.18-.27.85.15,1.82.37,2.63.3,1.08.58,2.16.84,3.25.26,1.07.57,2.1.89,3.15.22.73.25,1.72.7,2.34.2.28.5.36.8.21.45-.22.83-.6,1.25-.87.45-.3.87-.65,1.3-.98.86-.65,1.59-1.42,2.41-2.12.89-.77,1.99-1.41,2.84-2.26.45.74.89,1.49,1.33,2.24-.19.11-.36.24-.55.37-.62.46-1.24.91-1.86,1.37-1.2.89-2.52,1.61-3.74,2.47-1.73,1.22-4.84,2.91-3.62,5.44.62,1.28,1.79,2.14,2.85,3.03,1.14.97,2.33,1.85,3.52,2.75,1.29.99,2.56,2.01,3.89,2.95.58.41,1.19.78,1.7,1.27.11.11.23.21.35.3-.34.66-.69,1.29-1.12,1.92Zm2.81-5.27c-.31.8-.75,1.5-1.14,2.25-.37-.33-.74-.64-1.14-.92-1.14-.79-2.25-1.61-3.35-2.46-1.23-.95-2.5-1.85-3.7-2.82-1.04-.84-2.23-1.69-3.09-2.73-.51-.61-.97-1.37-.49-2.13.39-.61.95-.99,1.51-1.42,1.14-.87,2.28-1.72,3.48-2.49,1.13-.73,2.18-1.54,3.2-2.43.3-.26.57-.55.86-.83.85,1.44,1.71,2.88,2.63,4.28,1.11,1.71,2.43,3.55,2.66,5.63.23,2.11-.67,4.15-1.42,6.06Z"/>
        <path class="cls-2" d="m79.83,69c-1.73-.47-3.62-.73-5.41-.71-.94,0-2.11,0-2.9.59-1.23.91-.21,2.66.19,3.77.68,1.84,1.47,3.61,2.05,5.48.53,1.72,1.08,3.5,1.78,5.15.21.49.44,1.22,1.11,1.16.53-.04.68-.5.82-.93.31-.97.67-1.92.88-2.92.19-.9.26-1.83.41-2.74.05-.29.1-.58.15-.87.16-.52.24-1.06.39-1.58.3-1.06.8-2.05,1.27-3.03.27-.57.89-1.48.76-2.15-.14-.7-.9-1.05-1.51-1.22Zm-.67,3.62c-.29.61-.55,1.24-.78,1.87-.4,1.12-.62,2.34-.58,3.53-.28,1.36-.51,2.71-.98,4.04-.04.11-.16.35-.26.59-.1-.24-.24-.51-.3-.69-.11-.35-.22-.7-.33-1.05-.45-1.45-.95-2.9-1.43-4.34-.49-1.43-1.11-2.81-1.62-4.24-.19-.52-.85-1.69-.72-2.24.08-.34.49-.4.84-.46.98-.17,2.08-.1,3.06-.02.82.07,1.64.2,2.45.35.33.06.68.11,1.01.2.36.1.63.11.59.42-.07.65-.67,1.45-.94,2.04Z"/>
        <path class="cls-2" d="m73.88,62.2c-.18.62-.22,1.19-.24,1.83-.02.45-.17.91.1,1.31.44.65,1.57.62,2.25.68.67.06,1.34.07,2.01.06.57-.01,1.17.18,1.73.11.92-.12.92-1.05.79-1.78-.23-1.36-.81-2.68-1.14-4.02-.17-.7-.34-1.41-.49-2.11-.03-.16-.07-.3-.11-.44.01-.24.02-.47,0-.64-.08-.53-.2-1.04-.41-1.53-.26-.64-.84-1.42-1.58-.84-.37.29-.53.93-.71,1.34-.26.57-.45,1.17-.67,1.76-.52,1.43-1.12,2.82-1.53,4.28Zm3.29-5.59c.05-.11.13-.23.19-.35.11.25.26.53.29.67.18.7.11,1.84.69,2.37.05.33.09.67.14,1,.2,1.24.56,2.42.87,3.63.06.23.3.86.1,1.02-.16.13-.31.02-.51,0-.56-.07-1.15.01-1.71,0-.63-.01-1.25-.05-1.87-.13-.48-.06-.58-.03-.58-.5,0-1.28.41-2.47.83-3.68.46-1.33.98-2.73,1.56-4.02Z"/>
        <path class="cls-2" d="m72.46,52.16c.96-.43,1.95-.93,2.52-1.81.68-1.05.81-2.44.71-3.65-.11-1.29-.4-2.62-.88-3.83-.2-.51-.46-1.12-.85-1.52-.34-.35-.81-.49-1.25-.67-.15-.06-.33.11-.19.25,1.02.99,1.2,2.63,1.31,4,.1,1.25.24,2.72-.36,3.87-.57,1.07-2.28,1.54-3.39,1.82-1.32.34-2.68.39-4.02.62-1.31.22-2.58.28-3.91.29-.69,0-1.33-.11-2.02-.15-.62-.04-1.25.08-1.88,0-1.3-.16-2.67-.64-3.83-1.23-.7-.35-1.58-.94-2.17-1.63-.03-.17,0-.37-.04-.51-.05-.22-.16-.41-.25-.6-.25-.57-.55-1.14-.74-1.73-.2-.6-.19-1.24-.26-1.86-.07-.68-.17-1.4.27-1.98.72-.93,2.2-1.47,3.23-1.95.89-.41,1.83-.69,2.75-1.01.46-.04.92-.08,1.39-.12,1.5-.11,2.99.38,4.48.15.39-.06.39-.72,0-.79-1.55-.28-2.92-.57-4.47-.49-.03-.02-.06-.03-.1-.04-1.77-.29-3.62.45-5.25,1.09-1.48.58-3.31,1.18-4.02,2.72,0,.02-.01.03-.02.05-1.39-1.65-3.82-2.3-5.99-2.11-.69-.09-1.35-.12-2.08-.13-1.87-.01-3.64.31-5.48.6-.33.05-.33.62,0,.68,1.76.28,3.55-.12,5.31-.12.34,0,.67,0,1,.02.01,0,.03.01.04.01,1.32.33,2.7.36,3.9,1.07,1.18.7,2.02,1.64,2,3.06-.02,1.26-.28,2.37-.73,3.55-.16.41-.43.92-.57,1.43-.36.25-.72.47-1.04.63-1.16.59-2.53,1.07-3.83,1.23-.62.08-1.25-.04-1.88,0-.69.04-1.32.16-2.02.15-1.33,0-2.6-.06-3.91-.29-1.34-.23-2.71-.28-4.02-.62-1.1-.28-2.82-.74-3.39-1.82-.61-1.15-.46-2.62-.37-3.87.11-1.37.29-3.01,1.31-4,.14-.13-.04-.31-.19-.25-.44.19-.91.32-1.25.67-.39.41-.65,1.01-.85,1.52-.48,1.2-.77,2.53-.88,3.83-.1,1.22.03,2.6.71,3.65.57.87,1.56,1.38,2.52,1.81-.58,1.5-.22,3.54.12,5,.41,1.75,1.36,3.74,2.72,4.95.66.58,1.31,1.07,2.12,1.4.81.32,1.63.41,2.47.61.76.18,1.59.36,2.38.43.57.05,1.34.13,1.99,0,.02.14.05.27.07.4.2,1.04.58,2.02,1.24,2.85,1.14,1.44,2.47,2.46,4.17,2.77.57.27,1.17.46,1.86.62.78.18,1.45.41,2.26.44.72.03,1.45.03,2.17,0,.71-.03,1.42-.14,2.12-.26.73-.12,1.39-.15,1.93-.72.03-.03.06-.07.09-.11,1.66-.33,2.97-1.34,4.09-2.76.66-.83,1.04-1.81,1.24-2.85.03-.13.05-.26.07-.4.65.12,1.42.05,1.99,0,.79-.07,1.61-.25,2.38-.43.84-.2,1.66-.29,2.47-.61.81-.32,1.47-.82,2.12-1.4,1.37-1.2,2.31-3.19,2.72-4.95.34-1.46.7-3.49.12-5Zm-23.82-2.55c.41-.52.75-1.11.97-1.64.1-.22.19-.47.27-.72.31.57.72,1.21,1.2,1.66.39,1.41,1.66,2.59,3,3.41-.49,1.16-.45,2.68-.42,3.83,0,.33.04.73.13,1.12-1.72-.52-3.53-.45-5.39-.21-.59.08-1.19.04-1.78.17-.14.03-.28.07-.42.12.09-.42.13-.85.14-1.2.03-1.15.07-2.67-.42-3.83,1.12-.68,2.17-1.61,2.73-2.71Zm-9.41,12.36c-.03.12-.04.24-.06.36-.45-.03-.92.04-1.39.01-.63-.04-1.29-.18-1.92-.27-1.45-.2-2.84-.53-3.96-1.51-1.14-.99-1.94-2.69-2.32-4.12-.22-.83-.4-1.7-.5-2.55-.05-.39-.05-.78-.1-1.15.99.32,2,.47,3.04.59,1,.12,1.99.33,2.98.48-.23.68-.33,1.36-.1,2.1.26.82.88,1.59,1.72,1.85,1.71.53,3.58-1.02,3.62-2.76,0-.37-.08-.78-.24-1.15h.03c.7-.03,1.37.05,2.07-.05.69-.1,1.33-.34,1.98-.59.11-.04.22-.09.34-.13-.04.76.04,1.56.02,2.21-.02.68-.1,1.29-.24,1.95-.05.23-.13.46-.18.69-.34.07-.68.16-1.04.25-1.9.52-3.33,1.85-3.75,3.78Zm18.04,4.68c-.53.6-1.01,1.01-1.7,1.41-.53.3-1.11.53-1.64.82-.03,0-.07,0-.1,0-.72.02-1.42.21-2.13.28-.71.07-1.42.08-2.14.09-.82.02-1.48-.14-2.28-.26-.49-.08-.95-.09-1.42-.22-.48-.24-.99-.45-1.45-.72-.69-.4-1.17-.81-1.7-1.41-.92-1.04-1.76-2.84-1.53-4.27.26-1.59,1.55-2.06,2.91-2.56.02,0,.03-.01.05-.02.22-.03.44-.06.65-.09.64-.1,1.25-.31,1.89-.41.61-.1,1.22.05,1.83,0,1.32-.09,2.62-.18,3.95-.07.52.04,1.08.11,1.62.11.62.12,1.22.27,1.79.48,1.36.51,2.65.97,2.91,2.56.24,1.43-.61,3.22-1.53,4.27Zm13.64-12.75c-.1.85-.28,1.73-.5,2.55-.39,1.43-1.19,3.14-2.32,4.12-1.12.97-2.51,1.31-3.96,1.51-.63.08-1.29.23-1.92.27-.47.03-.94-.04-1.39-.01-.01-.12-.03-.24-.06-.36-.42-1.94-1.85-3.26-3.75-3.78-.35-.1-.7-.18-1.04-.25-.05-.23-.13-.46-.18-.69-.14-.66-.22-1.27-.24-1.95-.02-.65.06-1.45.02-2.21.11.05.23.09.34.13.65.24,1.29.48,1.98.59.69.1,1.37.03,2.07.05h.03c-.16.37-.25.78-.24,1.15.04,1.73,1.91,3.29,3.62,2.76.84-.26,1.46-1.03,1.72-1.85.23-.74.14-1.42-.1-2.1,1-.14,1.98-.36,2.98-.48,1.05-.12,2.06-.27,3.04-.59-.05.38-.05.76-.1,1.15Z"/>
        <path class="cls-2" d="m35.09,36.87c1.04-.2,2.02.06,3.05.2.94.12,1.89.16,2.84.25,1.96.17,3.89.41,5.86.43,1.8.02,3.59-.08,5.34-.5.88-.21,1.76-.42,2.61-.74.7-.26,1.22-.81,1.89-1.07.34-.13.46-.74,0-.81-.63-.1-1.15.04-1.73.28-.8.34-1.66.55-2.5.77-1.98.53-3.92.7-5.96.7-1.96,0-3.91-.2-5.87-.24-.94-.02-1.88.05-2.83.03-.95-.02-1.89.05-2.81.32-.25.07-.14.43.11.38Z"/>
        <path class="cls-2" d="m42.65,33.22c2.19.81,4.4,1.19,6.73.96,2.33-.24,4.66-.72,6.92-1.34.4-.11.31-.7-.1-.71-4.52-.2-8.96,1.93-13.45.72-.24-.06-.33.29-.1.37Z"/>
        <path class="cls-2" d="m49.66,81.88c-1.06-.02-1.98.2-2.9.74-.35.21-.69.44-.96.76-.29.34-.41.81-.73,1.12-.31.3-.09.91.36.88.76-.05,1.37-.56,2.06-.84.98-.4,1.91-.46,2.94-.22.83.19,4.08,2.07,3.78-.14-.24-1.81-3.13-2.26-4.56-2.29Z"/>
        <path class="cls-2" d="m45.44,30.7c2.56.08,5.11.23,7.67.04.35-.03.35-.51,0-.54-2.56-.19-5.1-.04-7.67.04-.29,0-.29.45,0,.46Z"/>
        <path class="cls-2" d="m28.48,68.88c-.79-.59-1.96-.59-2.9-.59-1.79-.02-3.69.24-5.41.71-.62.17-1.37.51-1.51,1.22-.13.67.49,1.58.76,2.15.48.99.97,1.98,1.27,3.03.15.52.23,1.06.39,1.58.05.29.1.58.15.87.16.91.22,1.84.41,2.74.21.99.57,1.95.88,2.92.14.43.3.89.82.93.67.06.9-.67,1.11-1.16.7-1.66,1.25-3.44,1.78-5.15.58-1.87,1.37-3.65,2.05-5.48.41-1.1,1.42-2.85.19-3.77Zm-1.36,3.44c-.51,1.42-1.14,2.8-1.62,4.24-.49,1.44-.98,2.89-1.43,4.34-.11.35-.21.7-.33,1.05-.06.18-.2.44-.3.69-.1-.24-.22-.48-.26-.59-.48-1.32-.7-2.68-.98-4.04.04-1.2-.18-2.41-.58-3.53-.23-.64-.49-1.26-.78-1.87-.27-.59-.87-1.39-.94-2.04-.04-.3.24-.32.59-.42.32-.09.68-.14,1.01-.2.81-.16,1.62-.28,2.45-.35.98-.08,2.08-.15,3.06.02.35.06.76.11.84.46.13.55-.53,1.72-.72,2.24Z"/>
        <path class="cls-2" d="m20.26,66.19c.56.07,1.16-.12,1.73-.11.67.01,1.35,0,2.01-.06.68-.06,1.81-.03,2.25-.68.27-.4.12-.87.1-1.31-.02-.64-.07-1.21-.24-1.83-.41-1.47-1.01-2.85-1.53-4.28-.22-.59-.41-1.19-.67-1.76-.18-.41-.34-1.05-.71-1.34-.74-.58-1.32.2-1.58.84-.2.49-.32,1-.41,1.53-.03.17-.02.4,0,.64-.04.14-.08.29-.11.44-.15.71-.32,1.41-.49,2.11-.33,1.34-.91,2.66-1.14,4.02-.13.74-.13,1.67.79,1.78Zm.39-2.27c.31-1.22.66-2.39.87-3.63.05-.33.1-.66.14-1,.58-.53.51-1.66.69-2.37.03-.13.18-.42.29-.67.06.12.14.24.19.35.59,1.28,1.1,2.68,1.56,4.02.42,1.2.84,2.39.83,3.68,0,.47-.11.44-.58.5-.62.08-1.25.12-1.87.13-.56.01-1.15-.07-1.71,0-.2.03-.35.14-.51,0-.2-.16.04-.79.1-1.02Z"/>
      </g>
    </g>
  </g>
</svg>