<?xml version="1.0" encoding="UTF-8"?>
<svg id="Layer_1" data-name="Layer 1" xmlns="http://www.w3.org/2000/svg" xmlns:xlink="http://www.w3.org/1999/xlink" viewBox="0 0 99.73 99.73">
  <defs>
    <style>
      .cls-1 {
        fill: #fff;
      }

      .cls-2 {
        fill: #f386ae;
      }

      .cls-3 {
        fill: #f05161;
      }

      .cls-4 {
        fill: #0c121c;
      }

      .cls-5 {
        fill: #f2f1e7;
      }

      .cls-6 {
        clip-path: url(#clippath);
      }

      .cls-7 {
        fill: none;
      }
    </style>
    <clipPath id="clippath">
      <circle class="cls-7" cx="49.86" cy="49.86" r="49.86" transform="translate(-9.88 87.33) rotate(-77.09)"/>
    </clipPath>
  </defs>
  <g class="cls-6">
    <circle class="cls-5" cx="49.86" cy="49.86" r="49.86" transform="translate(-9.88 87.33) rotate(-77.09)"/>
    <g>
      <g>
        <path class="cls-3" d="m57.59,38.96c1.04.39,1.69,1.34.91,2.46-.24.35-.51.59-.83.72-.03-.49-.07-.97-.06-1.46,0-.58,0-1.14-.01-1.72Z"/>
        <path class="cls-3" d="m56.74,55.42c.96.44,1.16,2.29.71,3.02-.46.75-.99.53-1.53.16.28-.85.45-1.76.68-2.62.05-.19.1-.37.14-.56Z"/>
        <path class="cls-3" d="m53.86,62.42c.28.67.46,1.95-.2,2.43-.59.43-1.52.6-2.16.18-.58-.38-.9-1.13-.75-1.79.11-.01.22-.03.33-.05,1.17-.25,2.28-.97,2.66-2.07,0,0,.02,0,.02,0-.23.45-.1.84.1,1.31Z"/>
        <path class="cls-3" d="m47.43,62.52c-.07.47-.1.97-.14,1.42-.08,1.01-.73,1.58-1.59.85-.69-.59-1.34-1.39-.85-2.3.21-.4.57-.79.95-1.12.32.34.7.64,1.15.89.16.09.32.18.48.26Z"/>
        <path class="cls-3" d="m43.13,55.98c.23.86.4,1.77.68,2.62-.54.37-1.07.59-1.53-.16-.45-.73-.25-2.58.71-3.02.05.19.09.37.14.56Z"/>
        <path class="cls-3" d="m42.14,38.96c-.01.57-.01,1.14-.01,1.72,0,.49-.03.98-.06,1.46-.32-.13-.59-.37-.83-.72-.78-1.12-.13-2.07.91-2.46Z"/>
        <path class="cls-3" d="m42.27,31.2c.06,1.48.06,2.96.01,4.44-.92-.34-1.84-1.36-1.63-2.23.24-.99.95-1.56,1.61-2.21Z"/>
        <path class="cls-3" d="m41.86,26.25c.01.11.02.21.04.32-.68.12-1.4.35-2.01.04-.92-.47-1.45-1.53-.95-2.48.26-.49.65-.87,1.11-1.17.1-.07,1.12-.68,1.19-.55,0,.01.01.02.02.03.29,1.29.45,2.62.61,3.8Z"/>
        <path class="cls-3" d="m38.93,17.66c-.03.07-.05.16-.05.25,0,.73-.14,1.32-.81,1.72-.51.31-1.12.52-1.7.66-.94.23-1.91.18-2.85-.04-.9-.21-1.84-.65-1.81-1.72.03-.97.68-1.79.88-2.71,1.98-.24,4.02.06,5.65,1.23.25.18.49.38.7.6Z"/>
        <path class="cls-3" d="m28.16,19.5c.02.96-.36,2.07-1.1,2.71-.87.75-1.78.57-2.41-.33-.22-.31-.39-.66-.61-.97-.08-.1-.16-.2-.23-.3,1.16-1.22,2.5-2.26,3.96-3.09.03.08.06.16.09.24.19.54.29,1.16.31,1.73Z"/>
        <path class="cls-3" d="m22.55,26.33c.28.63.03,1.28-.26,1.85-.34.69-1.23,2.81-2.22,2.4-.45-.19-.71-.7-.99-1.06-.03-.03-.05-.07-.08-.1.52-1.68,1.19-3.31,2.02-4.85.27.25.53.49.72.71.27.32.65.66.82,1.05Z"/>
        <path class="cls-3" d="m20.79,37.78c.05.6,0,1.23-.42,1.71-.5.58-1.36.23-1.93-.08-.3-.16-.56-.39-.83-.62,0-1.42.09-2.83.27-4.24.42.15.84.29,1.15.5,1.05.7,1.66,1.45,1.75,2.74Z"/>
        <path class="cls-3" d="m21.4,44.03c.53.48.44,1.23.37,1.88-.1.95-.22,2.08-.65,2.94-.54,1.07-1.5.5-2.3-.04-.28-1.5-.55-3.01-.78-4.52.07-.02.13-.05.19-.08.51-.24.94-.56,1.52-.63.59-.07,1.21.04,1.66.44Z"/>
        <path class="cls-3" d="m22.14,55.38c.33.96.63,2.4.37,3.41-.18.71-.88,1.11-1.55,1.5-.13-.65-.25-1.29-.42-1.93-.03-.12-.07-.23-.11-.35-.15-.9-.3-1.81-.44-2.71-.05-.29-.1-.58-.14-.87.11-.06.21-.12.31-.17.33-.17.79-.54,1.14-.3.43.28.68.96.84,1.42Z"/>
        <path class="cls-3" d="m26.25,67.39c.15.55.46,1.45.2,2-.34.72-1.72.83-2.41,1.03-.81.24-1.6.45-2.43.58-.25.04-.51.07-.76.11.23-.55.44-1.1.65-1.64.69-1.84.66-3.65.32-5.48.26-.16.51-.32.76-.49.6-.42,1.47-1.25,2.13-.51.43.48.59,1.43.82,2.02.29.78.51,1.58.73,2.38Z"/>
        <path class="cls-3" d="m33.45,73.59c.05,1.78-2.02,3.17-3.51,3.76-.7.27-1.59.5-2.28.08-.8-.49-.94-1.7-.95-2.55-.02-1.09,1.1-1.72,2.29-2.14.03,0,.07.01.11.01.15,0,.26-.07.33-.16.67-.21,1.32-.36,1.78-.49.07-.02.12-.05.16-.09.2-.04.4-.06.59-.07,1.17-.07,1.46.6,1.49,1.64Z"/>
        <path class="cls-3" d="m22.88,79.32c.08.99.44,2.33-.66,2.82-.92.41-1.98.24-2.95.11-.87-.12-1.79-.12-2.63-.39-.81-.25-1.67-.62-2.46-.94.02-.02.03-.05.05-.07.62-.84,1.52-1.51,2.2-2.31.75-.88,1.44-1.81,2.06-2.78.12-.19.24-.38.36-.58.44-.04.88-.07,1.32-.02.92.11,1.5.81,1.95,1.55.5.83.68,1.65.76,2.62Z"/>
        <path class="cls-3" d="m32.17,82.02c.22.41.14,1.24.08,1.69-.07.57-.36,1.1-.63,1.6-.52.96-1.19,1.78-2.02,2.48-.36.31-.87.89-1.4.8-.52-.1-1-.68-1.35-1.04-.66-.68-1.92-2.05-1.59-3.08.3-.94,1.33-1.66,2.21-2.13.54-.18,1.08-.41,1.62-.54.86-.21,2.51-.84,3.08.22Z"/>
        <path class="cls-3" d="m22.62,90.69c.16.46.23.93-.22,1.23-.24.16-.57.21-.84.29-.63.2-1.67.39-2.5.78-.87-.65-1.63-1.41-2.49-2.06-.93-.7-1.73-1.47-2.45-2.38-.27-.34-.56-.67-.84-1,.46-.09.94-.17,1.39-.31.89-.26,1.79-.54,2.69-.76.83-.2,1.78-.45,2.62-.25,1.12.25,1.25,1.24,1.63,2.15.33.77.73,1.53,1.01,2.32Z"/>
        <path class="cls-3" d="m33.82,95.82c.31.75-.19,1.68-.49,2.35-.11.25-.21.51-.3.77-1.55-.46-3.11-.87-4.65-1.35-1.29-.4-2.54-.88-3.77-1.43.04-.04.08-.08.11-.13.19-.25.34-.54.51-.81.39-.59.83-1.16,1.32-1.67.54-.56.99-.93,1.76-1.04.79-.11,1.52.11,2.26.39,1.25.49,2.71,1.62,3.24,2.91Z"/>
        <path class="cls-3" d="m45.58,98.37c1.14.66,1.52,2,1.41,3.27-.3-.04-.57.02-.88,0-.37-.03-.72-.17-1.1-.18-.73-.03-1.47-.09-2.2-.13-.8-.04-1.59-.35-2.4-.43-.37-.04-.73-.07-1.09-.1-.37-.13-.75-.25-1.14-.36-.29-.08-.59-.16-.89-.23.2-.31.43-.61.62-.93.32-.57.58-1.18.96-1.72.38-.54.85-1.02,1.55-1.08.74-.06,1.43.4,2.09.68,1.01.43,2.11.68,3.07,1.23Z"/>
        <path class="cls-3" d="m42.41,85.39c.99.7.05,2.38-.3,3.2-.24.57-.43,1.17-.85,1.64-.44.49-1.01.79-1.6,1.06-.62.28-1.27.64-1.97.54-.54-.08-1.11-.44-1.56-.76-.96-.7-1.97-1.81-1.3-3.03.43-.77,1.09-1.36,1.86-1.84.24-.05.46-.15.69-.31.51-.33.82-.51,1.42-.61.66-.11,1.32-.12,1.99-.11.49,0,1.19-.08,1.62.22Z"/>
        <path class="cls-3" d="m43.54,77.84c.61.79-.11,1.9-.73,2.41-.89.73-1.88.77-2.96.55-.96-.2-1.93-.35-2.83-.75-.31-.14-.75-.28-.95-.57-.3-.41.1-.68.44-.91.62-.41,1.35-.7,2.03-.97.15-.06.38-.16.64-.28.46-.02.92-.04,1.39,0,.83.06,2.38-.25,2.97.51Z"/>
        <path class="cls-3" d="m52.26,79.8c.08.48-.22,1.05-.54,1.39-.42.45-1.01.67-1.6.81-.87.21-2.67.33-2.73-.97-.03-.7.63-1.72,1.05-2.27.09-.12.18-.22.28-.31.31-.08.62-.18.93-.29.34-.11.72-.25,1.09-.22.58.06.59.38.85.77.24.37.6.62.67,1.08Z"/>
        <path class="cls-3" d="m61.56,77.35c.27.26.43.86.38,1.23-.09.78-1.04,1.09-1.64,1.4-.79.41-1.61.93-2.49.42-.54-.32-1.51-.84-1.82-1.39-.54-.95.51-1.81,1.28-2.13.26-.11.53-.19.81-.27.31-.02.61-.07.93-.04.56.05,1.11.3,1.66.36.04.03.09.06.14.09.25.14.53.13.74.34Z"/>
        <path class="cls-3" d="m54.39,86.02c1.01.68.61,2.54.16,3.41-1.2,2.27-3.48,3.5-5.85,4.22-1.15.35-2.16.16-2.53-1.11-.31-1.04.18-2.27.66-3.19,1.05-2.02,2.88-2.96,4.95-3.28.04,0,.08.01.12.01.24,0,.44-.05.67-.1.03,0,.06-.01.1-.02.27-.02.55-.03.82-.03.1,0,.17-.04.22-.1.25,0,.49.06.68.19Z"/>
        <path class="cls-3" d="m61.07,100.53s-.06.05-.08.07c-.4.13-.8.26-1.19.41-1.04.19-2.08.37-3.14.47-1.99.2-4.03.51-6.04.53.2-.41.45-.81.6-1.24.23-.65.36-1.44.75-2.02.44-.67,1.18-.62,1.91-.74.7-.11,1.4-.17,2.09-.28,1.25-.2,2.85-.42,4,.29.64.39.67,1.05.85,1.72.04.16.21.54.26.8Z"/>
        <path class="cls-3" d="m63.5,86.16c.96,1.75,1.64,5.16-.78,6.02-1.4.49-4.51.49-4.62-1.48-.05-1,.24-2.12.55-3.06.04-.11.08-.22.12-.33.12-.01.25-.08.3-.2.1-.24.42-.4.57-.61.1-.15.17-.36.23-.52.23-.57.25-1.21.88-1.46,1.28-.52,2.2.64,2.75,1.65Z"/>
        <path class="cls-3" d="m75.01,96.04s.07.08.11.13c-1.23.55-2.48,1.03-3.77,1.43-1.54.48-3.1.89-4.65,1.35-.09-.26-.18-.51-.3-.77-.3-.68-.8-1.61-.49-2.35.53-1.28,1.99-2.42,3.24-2.91.74-.29,1.47-.51,2.26-.39.77.11,1.22.49,1.76,1.04.49.51.93,1.08,1.32,1.67.17.26.32.55.51.81Z"/>
        <path class="cls-3" d="m74.47,84.47c.32,1.03-.94,2.4-1.59,3.08-.35.36-.83.94-1.35,1.04-.53.1-1.04-.49-1.4-.8-.83-.7-1.5-1.52-2.02-2.48-.27-.5-.56-1.03-.63-1.6-.06-.45-.14-1.28.08-1.69.58-1.06,2.23-.43,3.08-.22.54.13,1.08.36,1.62.54.88.47,1.91,1.19,2.21,2.13Z"/>
        <path class="cls-3" d="m86.45,87.54c-.28.34-.57.66-.84,1-.72.91-1.52,1.68-2.45,2.38-.86.66-1.62,1.42-2.49,2.06-.82-.39-1.87-.58-2.5-.78-.27-.09-.6-.14-.84-.29-.46-.29-.38-.77-.22-1.23.28-.79.68-1.55,1.01-2.32.39-.91.51-1.9,1.63-2.15.85-.19,1.8.05,2.62.25.9.22,1.8.49,2.69.76.45.13.92.22,1.39.31Z"/>
        <path class="cls-3" d="m85.5,80.84s.03.05.05.07c-.78.32-1.65.69-2.46.94-.84.26-1.77.26-2.63.39-.96.13-2.03.3-2.95-.11-1.1-.49-.74-1.83-.66-2.82.08-.96.26-1.79.76-2.62.45-.75,1.03-1.44,1.95-1.55.44-.05.88-.02,1.32.02.12.19.23.39.36.58.62.97,1.32,1.9,2.06,2.78.68.8,1.58,1.47,2.2,2.31Z"/>
        <path class="cls-3" d="m70.73,72.74c1.19.42,2.31,1.05,2.29,2.14-.01.85-.15,2.06-.95,2.55-.69.42-1.58.19-2.28-.08-1.49-.58-3.56-1.97-3.51-3.76.03-1.04.32-1.72,1.49-1.64.19.01.39.04.59.07.04.04.09.07.16.09.45.13,1.1.28,1.78.49.07.09.18.16.33.16.04,0,.08,0,.11-.01Z"/>
        <path class="cls-3" d="m78.88,71.11c-.25-.04-.51-.07-.76-.11-.83-.13-1.62-.34-2.43-.58-.69-.2-2.07-.3-2.41-1.03-.26-.55.05-1.46.2-2,.22-.8.43-1.61.73-2.38.22-.59.39-1.55.82-2.02.66-.73,1.53.09,2.13.51.25.17.5.34.76.49-.34,1.83-.37,3.64.32,5.48.21.55.42,1.1.65,1.64Z"/>
        <path class="cls-3" d="m79.88,54.43c-.05.29-.1.58-.14.87-.14.9-.29,1.81-.44,2.71-.04.12-.08.23-.11.35-.17.64-.29,1.28-.42,1.93-.67-.4-1.37-.79-1.55-1.5-.26-1.02.04-2.45.37-3.41.16-.46.41-1.14.84-1.42.35-.23.82.13,1.14.3.1.05.2.11.31.17Z"/>
        <path class="cls-3" d="m81.5,44.22c.06.03.13.05.19.08-.23,1.51-.5,3.02-.78,4.52-.8.54-1.76,1.11-2.3.04-.44-.86-.55-1.99-.65-2.94-.07-.65-.16-1.4.37-1.88.45-.41,1.07-.51,1.66-.44.58.07,1.01.39,1.52.63Z"/>
        <path class="cls-3" d="m81.84,34.54c.18,1.41.27,2.83.27,4.24-.26.23-.53.46-.83.62-.57.32-1.43.66-1.93.08-.41-.48-.46-1.11-.42-1.71.1-1.29.7-2.04,1.75-2.74.31-.21.73-.35,1.15-.5Z"/>
        <path class="cls-3" d="m80.74,29.42s-.06.07-.08.1c-.28.36-.54.88-.99,1.06-.99.41-1.89-1.71-2.22-2.4-.28-.58-.53-1.23-.26-1.85.17-.39.55-.72.82-1.05.19-.23.45-.46.72-.71.83,1.55,1.5,3.17,2.02,4.85Z"/>
        <path class="cls-3" d="m75.93,20.61c-.08.1-.16.19-.23.3-.23.31-.39.66-.61.97-.63.9-1.54,1.09-2.41.33-.74-.64-1.13-1.76-1.1-2.71.01-.57.12-1.19.31-1.73.03-.08.06-.16.09-.24,1.46.83,2.81,1.87,3.96,3.09Z"/>
        <path class="cls-3" d="m68.03,18.54c.03,1.07-.91,1.5-1.81,1.72-.94.22-1.91.27-2.85.04-.58-.14-1.19-.35-1.7-.66-.67-.41-.8-.99-.81-1.72,0-.1-.02-.18-.05-.25.22-.22.45-.42.7-.6,1.63-1.17,3.67-1.47,5.65-1.23.2.92.85,1.74.88,2.71Z"/>
        <path class="cls-3" d="m60.8,24.13c.5.94-.03,2.01-.95,2.48-.61.31-1.33.08-2.01-.04.01-.11.02-.21.04-.32.16-1.19.32-2.51.61-3.8,0-.01.01-.02.02-.03.07-.13,1.09.49,1.19.55.46.3.85.68,1.11,1.17Z"/>
        <path class="cls-3" d="m59.08,33.42c.21.86-.71,1.88-1.63,2.23-.05-1.47-.04-2.96.01-4.44.66.66,1.37,1.22,1.61,2.21Z"/>
        <path class="cls-1" d="m73.17,29.75c1.51,1.68,2.17,4.18,1.79,6.4-.31,1.78-1.85,3.42-3.46,4.14-.85.38-1.76.61-2.7.54-.93-.07-1.74-.56-2.51-1.05-1.58-1-3.02-2.42-3.62-4.24-.6-1.83-.28-3.84.81-5.43,1-1.45,3.15-2.72,4.92-2.68,1.12.02,2.21.38,3.17.96.58.38,1.11.84,1.59,1.38Zm-3.15,4.65c.03-.13.05-.26.04-.39,0-.66-.34-1.43-.94-1.76-.94-.51-1.83.25-2.12,1.12-.19.59-.14,1.28.22,1.79.69.97,2.52,1.03,2.78-.34.03-.14.03-.28.02-.42Z"/>
        <path class="cls-1" d="m70.49,48.49c-.08.31-.13.63-.19.94-.18.84-.28,1.68-.42,2.53-.08.53-.08,1.44-.66,1.58-.68.16-1.77-.22-2.45-.34-.32-.06-.65-.11-.96-.2-.07-.02-.51-.25-.53-.16-.04-.18.04-.59.05-.74.03-.42.1-.84.16-1.26.11-.79.25-1.53.54-2.28.17-.43.37-.84.54-1.26,1.28.57,2.58.98,3.92,1.2Z"/>
        <path class="cls-1" d="m34.4,52.09c0,.15.09.57.05.74-.01-.09-.46.14-.53.16-.31.09-.64.14-.96.2-.68.13-1.77.5-2.45.34-.58-.13-.57-1.05-.66-1.58-.13-.85-.24-1.69-.42-2.53-.06-.31-.11-.63-.19-.94,1.35-.22,2.64-.63,3.92-1.2.16.43.37.84.54,1.26.29.75.43,1.49.54,2.28.06.42.13.84.16,1.26Z"/>
        <path class="cls-1" d="m36.24,30.09c1.09,1.59,1.41,3.6.81,5.43-.6,1.82-2.04,3.24-3.62,4.24-.77.49-1.58.98-2.51,1.05-.94.07-1.85-.16-2.7-.54-1.61-.71-3.15-2.35-3.46-4.14-.39-2.22.28-4.72,1.79-6.4.49-.54,1.02-1,1.59-1.38.96-.57,2.05-.93,3.17-.96,1.77-.04,3.92,1.23,4.92,2.68Zm-3.73,5.07c.36-.51.41-1.21.22-1.79-.29-.87-1.19-1.63-2.12-1.12-.6.33-.94,1.1-.94,1.76,0,.13.02.26.04.39-.01.14,0,.28.02.42.26,1.37,2.1,1.31,2.78.34Z"/>
        <path class="cls-2" d="m87.04,83.2c.6.92.73,1.76.35,2.83-.12.34-.3.64-.49.93-1.75-.74-3.6-1.45-5.45-1.77-1.77-.31-3.38.06-4.09,1.86-.43,1.1-.99,2.14-1.42,3.24-.28.73-.34,1.61.17,2.26.47.59,1.23.76,1.92,1,.37.13.83.23,1.29.36-.54.34-1.1.66-1.65.97-.57.32-1.15.63-1.74.91-.2-.46-.47-.91-.7-1.31-.45-.77-1-1.5-1.65-2.11-1.4-1.34-3.14-1.24-4.87-.58-1.62.62-3.33,1.98-4.03,3.61-.35.81-.12,1.74.17,2.54.17.47.42.92.6,1.39-.23.08-.47.16-.7.24-.78.28-1.59.44-2.4.64-.04-.15-.08-.29-.12-.42-.22-.7-.34-1.51-.75-2.13-.92-1.38-3.11-1.5-4.59-1.35-1,.1-2.02.25-3.02.41-.8.13-1.8.15-2.43.72-.64.58-.84,1.49-1.04,2.29-.18.73-.46,1.49-.5,2.25-.53-.02-1.06-.05-1.59-.13.08-.53-.04-1.1-.13-1.67-.14-.85-.39-1.64-1.01-2.26-1.16-1.15-2.88-1.41-4.33-2.04-1.56-.68-3.15-1.11-4.46.32-.65.71-1,1.61-1.42,2.46-.19.39-.48.82-.65,1.26-.44-.11-.87-.23-1.29-.38-.23-.08-.46-.16-.7-.24.18-.47.42-.92.6-1.39.29-.8.53-1.73.17-2.54-.71-1.63-2.41-2.99-4.03-3.61-1.73-.66-3.47-.76-4.87.58-.64.61-1.2,1.34-1.65,2.11-.24.4-.5.84-.7,1.31-.59-.28-1.17-.59-1.74-.91-.55-.31-1.11-.64-1.65-.97.46-.13.91-.23,1.29-.36.69-.23,1.44-.4,1.92-1,.51-.65.46-1.53.17-2.26-.43-1.1-.99-2.15-1.42-3.24-.71-1.8-2.31-2.17-4.09-1.86-1.85.32-3.7,1.03-5.45,1.77-.2-.29-.37-.59-.49-.93-.39-1.07-.25-1.91.35-2.83.26-.4.51-.81.77-1.21.05.02.09.04.14.06.58.24,1.19.38,1.76.64,1.05.49,2.06.59,3.2.74,1.68.21,4.87.72,5.53-1.52.3-1.03.04-2.33-.11-3.36-.15-1.05-.55-1.95-1.17-2.81-.5-.69-1.16-1.29-2.01-1.49-.45-.11-.92-.1-1.4-.05.3-.55.58-1.12.84-1.69.78-.06,1.59-.23,2.33-.37,1.15-.22,2.38-.53,3.47-.96,2.14-.83,1.73-2.69,1.15-4.5-.35-1.07-.76-2.09-1.16-3.14-.26-.68-.55-1.4-1.29-1.68-.78-.3-1.55.13-2.15.59-.29.22-.62.45-.95.69-.08-.36-.17-.71-.27-1.07-.08-.3-.16-.61-.22-.91.93-.46,1.99-.75,2.38-1.85.45-1.27.16-3-.26-4.24-.3-.89-1.03-2.47-2.17-2.39-.51.04-1.01.32-1.46.55-.19-1.09-.4-2.18-.6-3.26.82.63,1.77,1.02,2.65.15,1.06-1.06,1.29-3.15,1.36-4.57.08-1.74-.91-3.06-2.72-3.16-.89-.05-1.6.21-2.37.61-.03.01-.06.03-.09.04-.12-1.04-.2-2.09-.23-3.14.52.47,1.24.87,1.93.99,1.4.25,2.32-1.14,2.46-2.37.16-1.43-.25-2.83-1.33-3.81-.55-.5-1.18-.96-1.85-1.26-.23-.1-.48-.22-.73-.32.16-.91.36-1.82.6-2.72.25.42.55.82.99,1.06,1.33.74,2.19-.44,2.85-1.44.77-1.15,1.67-2.66,1.08-4.07-.27-.65-.83-1.19-1.27-1.72-.22-.26-.46-.53-.7-.78.09-.14.17-.28.26-.42.41-.65.87-1.26,1.37-1.84.03.05.06.11.09.17.28.56.47,1.15.88,1.64.78.94,1.99,1.01,3.03.44,1.06-.58,1.79-1.8,2.01-2.97.14-.76.04-1.53-.09-2.28-.07-.4-.24-.75-.34-1.13,0-.03-.01-.06-.02-.08.22-.1.44-.2.66-.3.78-.33,1.63-.59,2.5-.75-.71.95-1.37,2.2-1.11,3.33.26,1.15,1.41,1.72,2.46,1.98,1.36.34,2.75.31,4.08-.15,1.28-.45,2.11-1.08,2.46-2.2.52.83.88,1.78,1.16,2.76-.28-.01-.59.06-.85.16-.93.35-1.69.92-2.21,1.78-.71,1.18-.41,2.4.49,3.37.42.45.96.81,1.57.93.67.13,1.32-.05,1.99-.15.09.91.16,1.82.2,2.73-1.48-.03-2.86,2.4-2.66,3.68.16.98,1.45,2.49,2.66,2.75-.01.29-.03.58-.05.87,0,.16-.02.31-.02.46-1.58.14-2.78,1.49-2.15,3.17.28.73,1.11,1.67,1.99,2.01,0,.11,0,.22,0,.33.01,1.04-.03,2.06-.1,3.09-.08,1.06.11,2.1.24,3.15.2,1.59.38,3.17.7,4.73-.54.13-1,.59-1.29,1.06-.59.97-.79,2.09-.26,3.12.46.88,1.23,1.46,2.25,1.18.22-.06.52-.18.81-.35.22.32.5.6.81.86.04.05.08.11.12.16-.53.32-1,.86-1.28,1.24-.9,1.23-.2,2.64.75,3.59.82.82,2.06,1.24,3.05.41.8-.67.93-1.85,1-2.92.4.11.81.19,1.22.21-.49,1.58.98,3.4,2.85,3.15,1.21-.16,2.4-.83,2.51-2.14.11-1.22-.06-2.38-.87-3.34-.06-.07-.14-.11-.22-.12.43-.32.81-.67,1.1-1.09.29.17.58.29.81.35,1.02.27,1.79-.3,2.25-1.18.54-1.03.33-2.15-.26-3.12-.29-.47-.75-.93-1.29-1.06.32-1.56.5-3.14.7-4.73.13-1.05.31-2.08.24-3.15-.07-1.04-.12-2.05-.1-3.09,0-.11,0-.22,0-.33.88-.34,1.71-1.28,1.99-2.01.64-1.68-.57-3.03-2.15-3.17,0-.15-.01-.31-.02-.46-.02-.29-.03-.58-.05-.87,1.21-.26,2.5-1.77,2.66-2.75.2-1.28-1.18-3.71-2.66-3.68.05-.91.11-1.83.2-2.73.66.1,1.31.28,1.99.15.61-.12,1.15-.48,1.57-.93.9-.98,1.2-2.19.49-3.37-.52-.86-1.29-1.43-2.21-1.78-.26-.1-.57-.18-.85-.16.27-.98.64-1.93,1.16-2.76.35,1.11,1.19,1.75,2.46,2.2,1.33.47,2.72.49,4.08.15,1.05-.26,2.2-.82,2.46-1.98.25-1.12-.4-2.38-1.11-3.33.87.16,1.72.42,2.5.75.22.1.44.2.66.3,0,.03-.01.06-.02.08-.1.39-.27.73-.34,1.13-.13.75-.23,1.53-.09,2.28.22,1.17.95,2.39,2.01,2.97,1.04.57,2.24.5,3.03-.44.41-.49.6-1.08.88-1.64.03-.06.06-.11.09-.17.5.58.96,1.19,1.37,1.84.09.14.17.28.26.42-.25.25-.49.52-.7.78-.44.53-1,1.07-1.27,1.72-.59,1.41.32,2.92,1.08,4.07.66,1,1.52,2.17,2.85,1.44.43-.24.73-.64.99-1.06.24.9.44,1.8.6,2.72-.26.1-.5.22-.73.32-.67.3-1.31.76-1.85,1.26-1.07.97-1.48,2.38-1.33,3.81.14,1.23,1.05,2.62,2.46,2.37.69-.12,1.41-.52,1.93-.99-.03,1.05-.11,2.1-.23,3.14-.03-.01-.06-.03-.09-.04-.78-.4-1.48-.66-2.37-.61-1.81.1-2.81,1.42-2.72,3.16.07,1.41.3,3.51,1.36,4.57.88.87,1.83.48,2.65-.15-.2,1.09-.41,2.17-.6,3.26-.45-.23-.95-.51-1.46-.55-1.14-.08-1.87,1.5-2.17,2.39-.42,1.24-.71,2.97-.26,4.24.39,1.1,1.45,1.39,2.38,1.85-.07.31-.14.61-.22.91-.1.36-.19.72-.27,1.07-.32-.24-.65-.47-.94-.69-.61-.46-1.37-.89-2.15-.59-.73.28-1.03,1-1.29,1.68-.4,1.05-.81,2.07-1.16,3.14-.58,1.8-.99,3.66,1.15,4.5,1.09.42,2.32.74,3.47.96.74.14,1.55.32,2.33.37.26.57.54,1.14.84,1.69-.48-.06-.96-.06-1.4.05-.85.2-1.51.8-2.01,1.49-.63.86-1.02,1.75-1.17,2.81-.15,1.03-.42,2.34-.11,3.36.66,2.24,3.85,1.74,5.53,1.52,1.14-.14,2.15-.25,3.2-.74.57-.26,1.18-.4,1.76-.64.05-.02.1-.04.14-.06.26.41.51.81.77,1.21Zm-11.32-28.94c.25-1.28.35-2.6.23-3.9-.1-1.03-.12-2.4-1-3.1-.51-.41-1.13-.5-1.75-.52-.96-.24-1.96-.37-2.92-.6-2.61-.63-5.25-1.62-7.63-2.8-.8-.4-1.8-.4-2.52.18-.86.7-.91,1.97-.93,3-.04,2.67-.09,5.34.42,7.98.23,1.2.78,2.05,1.52,3,.75.98,1.51,1.75,2.68,2.22,2.37.96,5.2.89,7.53-.15,1.07-.48,2.18-1.07,2.89-2.03.71-.96,1.26-2.11,1.48-3.28Zm-2.67,34.69c1.49-1.34,3.36-3.67,1.91-5.61-.39-.52-.88-.95-1.43-1.3-.03-.06-.07-.11-.13-.14-.19-.11-.34-.27-.54-.38-.38-.21-.83-.35-1.22-.52-.64-.28-1.32-.47-2.01-.61-1.06-.22-2.17-.13-2.9.76-.62.76-.6,2.02-.43,2.95.21,1.11.94,2.25,1.62,3.13.68.88,1.64,1.88,2.66,2.37.9.44,1.78-.03,2.47-.65Zm1.16-48.35c5.02-2.9,2.89-10.44-1.07-13.49-1.9-1.46-4.64-2.22-6.96-1.39-2.43.87-4.24,2.77-5.18,5.13-1.9,4.82,1.73,9.85,6.25,11.48,2.16.78,4.76,0,6.52-1.36.15-.12.29-.24.43-.37Zm-.35,36.1c.23-.8.42-1.94.1-2.73-.5-1.24-2-1.82-3.41-2.2-.64-.64-1.78-.9-2.63-.97-1.01-.08-1.98.16-2.47,1.13-.96,1.93.16,4.01,1.69,5.22,1.33,1.05,3.37,2.11,5.09,1.45.84-.32,1.38-1.06,1.63-1.91Zm-8.52,14.64c.5-1.27.25-2.8-.09-4.08-.34-1.3-.99-2.55-2.02-3.44-.93-.82-2.46-.88-3.44-.1-.35.28-.52.64-.65,1.03-.31.43-.48,1.11-.67,1.48-.6,1.16-1.07,2.35-1.28,3.65-.15.93-.13,1.95.56,2.67.69.71,1.83.92,2.77,1.03,1.87.22,4.07-.31,4.83-2.24Zm-2.88-11.28c.73-.72.78-1.74.39-2.65-.17-.4-.4-.78-.76-1.03-.15-.1-.32-.15-.49-.19.05-.07.05-.16-.01-.25-.56-.71-1.48-.6-2.28-.46-.93.17-1.96.32-2.82.73-.87.41-1.61,1.23-1.67,2.22-.08,1.18.81,1.79,1.67,2.39.96.68,1.74,1.22,2.97.86.97-.28,2.28-.91,3.01-1.63Zm-9.98,13.48c1.97-1.23,3.91-3.76,3.69-6.18-.11-1.23-.66-2.4-1.99-2.63-.61-.11-1.29.09-1.87.26-.44.13-.95.21-1.33.47-1.74.25-3.35.89-4.51,2.41-1.3,1.71-2.42,4.47-.82,6.35.73.86,1.77,1.12,2.85.9,1.3-.26,2.85-.88,3.98-1.59Zm-2.3-10.35c1.79-.32,4.15-2.2,3.03-4.25-.15-.27-.39-.45-.57-.7-.18-.24-.28-.52-.47-.75-.28-.35-.66-.55-1.1-.61-.64-.08-1.19.14-1.71.43-.56.11-1.08.36-1.54.83,0,0-.02,0-.02,0-.08.03-.13.1-.15.18-.64.73-1.36,1.89-1.32,2.83.09,1.96,2.33,2.29,3.85,2.02Zm-7.78-1.27c1.69-.65,3.23-2.68,2.25-4.5-.54-.99-1.71-1.14-2.74-1.21-.68-.04-1.43.02-2.11.1-.68.08-1.26.4-1.92.57-.09.02-.15.09-.17.16-.4.13-.78.28-1.16.45-.6.28-1.34.69-1.57,1.36-.26.75.27,1.39.87,1.78.93.61,2,.91,3.07,1.16,1.15.26,2.32.57,3.48.13Zm1.64,5.47c.19-.93.14-2.21-.63-2.87-.95-.81-2.54-.63-3.68-.54-.64.05-1.34.16-1.94.41-.23.1-.44.22-.62.39-.12.12-.23.29-.35.45-.99.44-1.91,1.01-2.61,1.92-1.51,1.97-.11,4.1,1.74,5.25,1.13.7,2.22.89,3.47.4,1.15-.45,2.32-.97,3.08-1.99.37-.49.57-1.06.81-1.62.26-.6.59-1.16.73-1.81Zm-3.91-32.9c.51-2.63.46-5.31.42-7.98-.01-1.03-.06-2.3-.93-3-.72-.58-1.71-.58-2.52-.18-2.38,1.19-5.03,2.17-7.63,2.8-.95.23-1.96.36-2.92.6-.63.02-1.24.11-1.75.52-.88.71-.91,2.07-1.01,3.1-.13,1.3-.02,2.62.23,3.9.23,1.17.77,2.32,1.48,3.28.71.96,1.82,1.55,2.89,2.03,2.33,1.04,5.15,1.11,7.53.15,1.17-.47,1.92-1.25,2.68-2.22.73-.95,1.28-1.8,1.52-3Zm-7.63-12.16c4.52-1.63,8.15-6.66,6.25-11.48-.93-2.36-2.75-4.25-5.18-5.13-2.31-.84-5.06-.07-6.96,1.39-3.96,3.05-6.09,10.59-1.07,13.49.14.13.28.26.43.37,1.76,1.36,4.36,2.14,6.52,1.36Zm.12,34.83c1.53-1.21,2.66-3.28,1.69-5.22-.49-.97-1.46-1.21-2.47-1.13-.85.07-1.99.32-2.63.97-1.42.38-2.91.96-3.41,2.2-.32.79-.13,1.93.1,2.73.25.85.78,1.59,1.63,1.91,1.72.66,3.76-.41,5.09-1.45Zm.83,6.94c.17-.93.2-2.18-.43-2.95-.73-.89-1.84-.99-2.9-.76-.68.14-1.37.33-2.01.61-.4.17-.85.31-1.22.52-.19.11-.34.27-.54.38-.06.03-.1.08-.13.14-.55.35-1.05.78-1.43,1.3-1.45,1.95.42,4.28,1.91,5.61.69.62,1.57,1.1,2.47.65,1.01-.5,1.98-1.49,2.66-2.37.68-.88,1.41-2.02,1.62-3.13Z"/>
      </g>
      <g>
        <path class="cls-4" d="m89.49,82.39c-.4-.85-.89-1.67-1.36-2.48-.59-1.03-1.44-1.8-2.22-2.68-.74-.84-1.45-1.7-2.08-2.63-1.35-1.97-2.39-4.19-3.35-6.37-.96-2.18-.24-4.55.16-6.77.06-.31.1-.62.15-.93.05-.19.1-.38.14-.57.47-2.12.87-4.26,1.27-6.4.82-4.34,1.81-8.62,2.06-13.04.11-1.99.04-3.9-.23-5.87-.26-1.92-.51-3.86-1.08-5.72-1.04-3.39-2.73-6.86-5.11-9.51-4.22-4.68-12.24-7.82-17.75-3.51-1.27,1-2.2,2.39-2.82,3.88-.68,1.63-1.16,3.48-1.44,5.22-.32,1.96-.61,3.86-.69,5.84-.09,2.03-.17,4.06-.11,6.09.06,1.9.16,3.8.23,5.69.04,1.07-.07,2.13,0,3.2.06.91.15,1.78.04,2.69-.24,1.91-.41,3.86-.84,5.74-.22.94-.46,1.87-.66,2.81-.18.85-.42,1.59-.98,2.27-.13.16-.2.35-.23.54-.74.39-1.37,1.04-2.27,1.1-1.04.08-2.41-.47-3.14-1.2-.02-.02-.03-.04-.05-.05-.04-.13-.1-.26-.2-.38-.56-.69-.79-1.42-.98-2.27-.2-.94-.45-1.87-.66-2.81-.43-1.88-.6-3.83-.84-5.74-.11-.92-.02-1.78.04-2.69.07-1.07-.04-2.13,0-3.2.07-1.89.17-3.79.23-5.69.06-2.03-.02-4.06-.11-6.09-.09-1.98-.38-3.88-.69-5.84-.28-1.74-.76-3.59-1.44-5.22-.62-1.48-1.55-2.88-2.82-3.88-5.51-4.32-13.53-1.18-17.75,3.51-2.38,2.65-4.07,6.12-5.11,9.51-.57,1.86-.82,3.8-1.08,5.72-.28,1.97-.34,3.89-.23,5.87.25,4.42,1.24,8.7,2.06,13.04.4,2.14.8,4.28,1.27,6.4.04.19.09.38.14.57.05.31.09.62.15.93.4,2.22,1.12,4.59.16,6.77-.96,2.18-2,4.4-3.35,6.37-.63.93-1.34,1.79-2.08,2.63-.78.89-1.63,1.65-2.22,2.68-.46.81-.96,1.63-1.36,2.48-.53,1.13-.58,2.17-.22,3.36.31,1.02.78,1.9,1.44,2.73.72.9,1.43,1.84,2.24,2.67.77.79,1.68,1.41,2.47,2.19.87.86,1.86,1.63,2.88,2.31,2.03,1.35,4.12,2.52,6.39,3.43,1.8.72,3.63,1.29,5.48,1.84.36.16.75.29,1.1.44,1.22.51,2.44.91,3.74,1.09,1.26.17,2.44.66,3.72.81,1.28.14,2.48.6,3.77.64.54.02,1.08.14,1.63.17.54.04,1.13.1,1.66.16.54.06,1.09.25,1.64.31.72.09,1.43.06,2.15.06,2.49,0,4.98-.19,7.44-.54,1.54-.22,3.06-.5,4.57-.88.69-.17,1.36-.41,2.01-.71.23-.11.43-.25.63-.41.48-.14.97-.29,1.46-.43,2.65-.79,5.29-1.51,7.87-2.55,2.26-.91,4.36-2.08,6.39-3.43,1.02-.68,2-1.45,2.88-2.31.78-.78,1.69-1.4,2.47-2.19.81-.82,1.52-1.77,2.24-2.67.66-.83,1.13-1.71,1.44-2.73.36-1.19.31-2.23-.22-3.36Zm-8.61-7.22c.12.19.23.39.36.58.62.97,1.32,1.9,2.06,2.78.68.8,1.58,1.47,2.2,2.31.02.02.03.05.05.07-.78.32-1.65.69-2.46.94-.84.26-1.77.26-2.63.39-.96.13-2.03.3-2.95-.11-1.1-.49-.74-1.83-.66-2.82.08-.96.26-1.79.76-2.62.45-.75,1.03-1.44,1.95-1.55.44-.05.88-.02,1.32.02Zm.02-26.35c-.8.54-1.76,1.11-2.3.04-.44-.86-.55-1.99-.65-2.94-.07-.65-.16-1.4.37-1.88.45-.41,1.07-.51,1.66-.44.58.07,1.01.39,1.52.63.06.03.13.05.19.08-.23,1.51-.5,3.02-.78,4.52Zm1.2-10.03c-.26.23-.53.46-.83.62-.57.32-1.43.66-1.93.08-.41-.48-.46-1.11-.42-1.71.1-1.29.7-2.04,1.75-2.74.31-.21.73-.35,1.15-.5.18,1.41.27,2.83.27,4.24Zm-3.39-14.22c.83,1.55,1.5,3.17,2.02,4.85-.03.03-.06.07-.08.1-.28.36-.54.88-.99,1.06-.99.41-1.89-1.71-2.22-2.4-.28-.58-.53-1.23-.26-1.85.17-.39.55-.72.82-1.05.19-.23.45-.46.72-.71Zm-6.84-6.8c.03-.08.06-.16.09-.24,1.46.83,2.81,1.87,3.96,3.09-.08.1-.16.19-.23.3-.23.31-.39.66-.61.97-.63.9-1.54,1.09-2.41.33-.74-.64-1.13-1.76-1.1-2.71.01-.57.12-1.19.31-1.73Zm-10.38-.71c1.63-1.17,3.67-1.47,5.65-1.23.2.92.85,1.74.88,2.71.03,1.07-.91,1.5-1.81,1.72-.94.22-1.91.27-2.85.04-.58-.14-1.19-.35-1.7-.66-.67-.41-.8-.99-.81-1.72,0-.1-.02-.18-.05-.25.22-.22.45-.42.7-.6Zm-3.63,9.18c.16-1.19.32-2.51.61-3.8,0-.01.01-.02.02-.03.07-.13,1.09.49,1.19.55.46.3.85.68,1.11,1.17.5.94-.03,2.01-.95,2.48-.61.31-1.33.08-2.01-.04.01-.11.02-.21.04-.32Zm-.41,4.96c.66.66,1.37,1.22,1.61,2.21.21.86-.71,1.88-1.63,2.23-.05-1.47-.04-2.96.01-4.44Zm-.87,24.78c.05-.19.1-.37.14-.56.96.44,1.16,2.29.71,3.02-.46.75-.99.53-1.53.16.28-.85.45-1.76.68-2.62Zm-5.85,7.27c.11-.01.22-.03.33-.05,1.17-.25,2.28-.97,2.66-2.07,0,0,.02,0,.02,0-.23.45-.1.84.1,1.31.28.67.46,1.95-.2,2.43-.59.43-1.52.6-2.16.18-.58-.38-.9-1.13-.75-1.79Zm-4.95-1.88c.32.34.7.64,1.15.89.16.09.32.18.48.26-.07.47-.1.97-.14,1.42-.08,1.01-.73,1.58-1.59.85-.69-.59-1.34-1.39-.85-2.3.21-.4.57-.79.95-1.12Zm-2.66-5.39c.23.86.4,1.77.68,2.62-.54.37-1.07.59-1.53-.16-.45-.73-.25-2.58.71-3.02.05.19.09.37.14.56Zm-.85-20.34c-.92-.34-1.84-1.36-1.63-2.23.24-.99.95-1.56,1.61-2.21.06,1.48.06,2.96.01,4.44Zm-1.05-13.23s.01.02.02.03c.29,1.29.45,2.62.61,3.8.01.11.02.21.04.32-.68.12-1.4.35-2.01.04-.92-.47-1.45-1.53-.95-2.48.26-.49.65-.87,1.11-1.17.1-.07,1.12-.68,1.19-.55Zm-3-5.35c.25.18.49.38.7.6-.03.07-.05.16-.05.25,0,.73-.14,1.32-.81,1.72-.51.31-1.12.52-1.7.66-.94.23-1.91.18-2.85-.04-.9-.21-1.84-.65-1.81-1.72.03-.97.68-1.79.88-2.71,1.98-.24,4.02.06,5.65,1.23Zm-10.47.46c.03.08.06.16.09.24.19.54.29,1.16.31,1.73.02.96-.36,2.07-1.1,2.71-.87.75-1.78.57-2.41-.33-.22-.31-.39-.66-.61-.97-.08-.1-.16-.2-.23-.3,1.16-1.22,2.5-2.26,3.96-3.09Zm-6.75,7.04c.27.25.53.49.72.71.27.32.65.66.82,1.05.28.63.03,1.28-.26,1.85-.34.69-1.23,2.81-2.22,2.4-.45-.19-.71-.7-.99-1.06-.03-.03-.05-.07-.08-.1.52-1.68,1.19-3.31,2.02-4.85Zm-3.12,9.97c.42.15.84.29,1.15.5,1.05.7,1.66,1.45,1.75,2.74.05.6,0,1.23-.42,1.71-.5.58-1.36.23-1.93-.08-.3-.16-.56-.39-.83-.62,0-1.42.09-2.83.27-4.24Zm.93,14.28c-.28-1.5-.55-3.01-.78-4.52.07-.02.13-.05.19-.08.51-.24.94-.56,1.52-.63.59-.07,1.21.04,1.66.44.53.48.44,1.23.37,1.88-.1.95-.22,2.08-.65,2.94-.54,1.07-1.5.5-2.3-.04Zm-4.59,32.02c.62-.84,1.52-1.51,2.2-2.31.75-.88,1.44-1.81,2.06-2.78.12-.19.24-.38.36-.58.44-.04.88-.07,1.32-.02.92.11,1.5.81,1.95,1.55.5.83.68,1.65.76,2.62.08.99.44,2.33-.66,2.82-.92.41-1.98.24-2.95.11-.87-.12-1.79-.12-2.63-.39-.81-.25-1.67-.62-2.46-.94.02-.02.03-.05.05-.07Zm2.34,10.09c-.93-.7-1.73-1.47-2.45-2.38-.27-.34-.56-.67-.84-1,.46-.09.94-.17,1.39-.31.89-.26,1.79-.54,2.69-.76.83-.2,1.78-.45,2.62-.25,1.12.25,1.25,1.24,1.63,2.15.33.77.73,1.53,1.01,2.32.16.46.23.93-.22,1.23-.24.16-.57.21-.84.29-.63.2-1.67.39-2.5.78-.87-.65-1.63-1.41-2.49-2.06Zm16.76,7.25c-.11.25-.21.51-.3.77-1.55-.46-3.11-.87-4.65-1.35-1.29-.4-2.54-.88-3.77-1.43.04-.04.08-.08.11-.13.19-.25.34-.54.51-.81.39-.59.83-1.16,1.32-1.67.54-.56.99-.93,1.76-1.04.79-.11,1.52.11,2.26.39,1.25.49,2.71,1.62,3.24,2.91.31.75-.19,1.68-.49,2.35Zm13.66,3.47c-.3-.04-.57.02-.88,0-.37-.03-.72-.17-1.1-.18-.73-.03-1.47-.09-2.2-.13-.8-.04-1.59-.35-2.4-.43-.37-.04-.73-.07-1.09-.1-.37-.13-.75-.25-1.14-.36-.29-.08-.59-.16-.89-.23.2-.31.43-.61.62-.93.32-.57.58-1.18.96-1.72.38-.54.85-1.02,1.55-1.08.74-.06,1.43.4,2.09.68,1.01.43,2.11.68,3.07,1.23,1.14.66,1.52,2,1.41,3.27Zm14-1.04c-.4.13-.8.26-1.19.41-1.04.19-2.08.37-3.14.47-1.99.2-4.03.51-6.04.53.2-.41.45-.81.6-1.24.23-.65.36-1.44.75-2.02.44-.67,1.18-.62,1.91-.74.7-.11,1.4-.17,2.09-.28,1.25-.2,2.85-.42,4,.29.64.39.67,1.05.85,1.72.04.16.21.54.26.8-.03.02-.06.05-.08.07Zm10.36-3.01c-1.54.48-3.1.89-4.65,1.35-.09-.26-.18-.51-.3-.77-.3-.68-.8-1.61-.49-2.35.53-1.28,1.99-2.42,3.24-2.91.74-.29,1.47-.51,2.26-.39.77.11,1.22.49,1.76,1.04.49.51.93,1.08,1.32,1.67.17.26.32.55.51.81.03.04.07.08.11.13-1.23.55-2.48,1.03-3.77,1.43Zm14.26-9.05c-.72.91-1.52,1.68-2.45,2.38-.86.66-1.62,1.42-2.49,2.06-.82-.39-1.87-.58-2.5-.78-.27-.09-.6-.14-.84-.29-.46-.3-.38-.77-.22-1.23.28-.79.68-1.55,1.01-2.32.39-.91.51-1.9,1.63-2.15.85-.19,1.8.05,2.62.25.9.22,1.8.49,2.69.76.45.13.92.22,1.39.31-.28.34-.57.66-.84,1Zm1.78-2.52c-.12.34-.3.64-.49.93-1.75-.74-3.6-1.45-5.45-1.77-1.77-.31-3.38.06-4.09,1.86-.43,1.1-.99,2.14-1.42,3.24-.28.73-.34,1.61.17,2.26.47.59,1.23.76,1.92,1,.37.13.83.23,1.29.36-.54.34-1.1.66-1.65.97-.57.32-1.15.63-1.74.91-.2-.46-.47-.91-.7-1.31-.45-.77-1-1.5-1.65-2.11-1.4-1.34-3.14-1.24-4.87-.58-1.62.62-3.33,1.98-4.03,3.61-.35.81-.12,1.74.17,2.54.17.47.42.92.6,1.39-.23.08-.47.16-.7.24-.78.28-1.59.44-2.4.64-.04-.15-.08-.29-.12-.42-.22-.7-.34-1.51-.75-2.13-.92-1.38-3.11-1.5-4.59-1.35-1,.1-2.02.25-3.02.41-.8.13-1.8.15-2.43.72-.64.58-.84,1.49-1.04,2.29-.18.73-.46,1.49-.5,2.25-.53-.02-1.06-.05-1.59-.13.08-.53-.04-1.1-.13-1.67-.14-.85-.39-1.64-1.01-2.26-1.16-1.15-2.88-1.41-4.33-2.04-1.56-.68-3.15-1.11-4.46.32-.65.71-1,1.61-1.42,2.46-.19.39-.48.82-.65,1.26-.44-.11-.87-.23-1.29-.38-.23-.08-.46-.16-.7-.24.18-.47.42-.92.6-1.39.29-.8.53-1.73.17-2.54-.71-1.63-2.41-2.99-4.03-3.61-1.73-.66-3.47-.76-4.87.58-.64.61-1.2,1.34-1.65,2.11-.24.4-.5.84-.7,1.31-.59-.28-1.17-.59-1.74-.91-.55-.31-1.11-.64-1.65-.97.46-.13.91-.23,1.29-.36.69-.23,1.44-.4,1.92-1,.51-.65.46-1.53.17-2.26-.43-1.1-.99-2.15-1.42-3.24-.71-1.8-2.31-2.17-4.09-1.86-1.85.32-3.7,1.03-5.45,1.77-.2-.29-.37-.59-.49-.93-.39-1.07-.25-1.91.35-2.83.26-.4.51-.81.77-1.21.05.02.09.04.14.06.58.24,1.19.38,1.76.64,1.05.49,2.06.59,3.2.74,1.68.21,4.87.72,5.53-1.52.3-1.03.04-2.33-.11-3.36-.15-1.05-.55-1.95-1.17-2.81-.5-.69-1.16-1.29-2.01-1.49-.45-.11-.92-.1-1.4-.05.3-.55.58-1.12.84-1.69.78-.06,1.59-.23,2.33-.37,1.15-.22,2.38-.53,3.47-.96,2.14-.83,1.73-2.69,1.15-4.5-.35-1.07-.76-2.09-1.16-3.14-.26-.68-.55-1.4-1.29-1.68-.78-.3-1.55.13-2.15.59-.29.22-.62.45-.95.69-.08-.36-.17-.71-.27-1.07-.08-.3-.16-.61-.22-.91.93-.46,1.99-.75,2.38-1.85.45-1.27.16-3-.26-4.24-.3-.89-1.03-2.47-2.17-2.39-.51.04-1.01.32-1.46.55-.19-1.09-.4-2.18-.6-3.26.82.63,1.77,1.02,2.65.15,1.06-1.06,1.29-3.15,1.36-4.57.08-1.74-.91-3.06-2.72-3.16-.89-.05-1.6.21-2.37.61-.03.01-.06.03-.09.04-.12-1.04-.2-2.09-.23-3.14.52.47,1.24.87,1.93.99,1.4.25,2.32-1.14,2.46-2.37.16-1.43-.25-2.83-1.33-3.81-.55-.5-1.18-.96-1.85-1.26-.23-.1-.48-.22-.73-.32.16-.91.36-1.82.6-2.72.25.42.55.82.99,1.06,1.33.74,2.19-.44,2.85-1.44.77-1.15,1.67-2.66,1.08-4.07-.27-.65-.83-1.19-1.27-1.72-.22-.26-.46-.53-.7-.78.09-.14.17-.28.26-.42.41-.65.87-1.26,1.37-1.84.03.05.06.11.09.17.28.56.47,1.15.88,1.64.78.94,1.99,1.01,3.03.44,1.06-.58,1.79-1.8,2.01-2.97.14-.76.04-1.53-.09-2.28-.07-.4-.24-.75-.34-1.13,0-.03-.01-.06-.02-.08.22-.1.44-.2.66-.3.78-.33,1.63-.59,2.5-.75-.71.95-1.37,2.2-1.11,3.33.26,1.15,1.41,1.72,2.46,1.98,1.36.34,2.75.31,4.08-.15,1.28-.45,2.11-1.08,2.46-2.2.52.83.88,1.78,1.16,2.76-.28-.01-.59.06-.85.16-.93.35-1.69.92-2.21,1.78-.71,1.18-.41,2.4.49,3.37.42.45.96.81,1.57.93.67.13,1.32-.05,1.99-.15.09.91.16,1.82.2,2.73-1.48-.03-2.86,2.4-2.66,3.68.16.98,1.45,2.49,2.66,2.75-.01.29-.03.58-.05.87,0,.16-.02.31-.02.46-1.58.14-2.78,1.49-2.15,3.17.28.73,1.11,1.67,1.99,2.01,0,.11,0,.22,0,.33.01,1.04-.03,2.06-.1,3.09-.08,1.06.11,2.1.24,3.15.2,1.59.38,3.17.7,4.73-.54.13-1,.59-1.29,1.06-.59.97-.79,2.09-.26,3.12.46.88,1.23,1.46,2.25,1.18.22-.06.52-.18.81-.35.22.32.5.6.81.86.04.05.08.11.12.16-.53.32-1,.86-1.28,1.24-.9,1.23-.2,2.64.75,3.59.82.82,2.06,1.24,3.05.41.8-.67.93-1.85,1-2.92.4.11.81.19,1.22.21-.49,1.58.98,3.4,2.85,3.15,1.21-.16,2.4-.83,2.51-2.14.11-1.22-.06-2.38-.87-3.34-.06-.07-.14-.11-.22-.12.43-.32.81-.67,1.1-1.09.29.17.58.29.81.35,1.02.27,1.79-.3,2.25-1.18.54-1.03.33-2.15-.26-3.12-.29-.47-.75-.93-1.29-1.06.32-1.56.5-3.14.7-4.73.13-1.05.31-2.08.24-3.15-.07-1.04-.12-2.05-.1-3.09,0-.11,0-.22,0-.33.88-.34,1.71-1.28,1.99-2.01.64-1.68-.57-3.03-2.15-3.17,0-.15-.01-.31-.02-.46-.02-.29-.03-.58-.05-.87,1.21-.26,2.5-1.77,2.66-2.75.2-1.28-1.18-3.71-2.66-3.68.05-.91.11-1.83.2-2.73.66.1,1.31.28,1.99.15.61-.12,1.15-.48,1.57-.93.9-.98,1.2-2.19.49-3.37-.52-.86-1.29-1.43-2.21-1.78-.26-.1-.57-.18-.85-.16.27-.98.64-1.93,1.16-2.76.35,1.11,1.19,1.75,2.46,2.2,1.33.47,2.72.49,4.08.15,1.05-.26,2.2-.82,2.46-1.98.25-1.12-.4-2.38-1.11-3.33.87.16,1.72.42,2.5.75.22.1.44.2.66.3,0,.03-.01.06-.02.08-.1.39-.27.73-.34,1.13-.13.75-.23,1.53-.09,2.28.22,1.17.95,2.39,2.01,2.97,1.04.57,2.24.5,3.03-.44.41-.49.6-1.08.88-1.64.03-.06.06-.11.09-.17.5.58.96,1.19,1.37,1.84.09.14.17.28.26.42-.25.25-.49.52-.7.78-.44.53-1,1.07-1.27,1.72-.59,1.41.32,2.92,1.08,4.07.66,1,1.52,2.17,2.85,1.44.43-.24.73-.64.99-1.06.24.9.44,1.8.6,2.72-.26.1-.5.22-.73.32-.67.3-1.31.76-1.85,1.26-1.07.97-1.48,2.38-1.33,3.81.14,1.23,1.05,2.62,2.46,2.37.69-.12,1.41-.52,1.93-.99-.03,1.05-.11,2.1-.23,3.14-.03-.01-.06-.03-.09-.04-.78-.4-1.48-.66-2.37-.61-1.81.1-2.81,1.42-2.72,3.16.07,1.41.3,3.51,1.36,4.57.88.87,1.83.48,2.65-.15-.2,1.09-.41,2.17-.6,3.26-.45-.23-.95-.51-1.46-.55-1.14-.08-1.87,1.5-2.17,2.39-.42,1.24-.71,2.97-.26,4.24.39,1.1,1.45,1.39,2.38,1.85-.07.31-.14.61-.22.91-.1.36-.19.72-.27,1.07-.32-.24-.65-.47-.94-.69-.61-.46-1.37-.89-2.15-.59-.73.28-1.03,1-1.29,1.68-.4,1.05-.81,2.07-1.16,3.14-.58,1.8-.99,3.66,1.15,4.5,1.09.42,2.32.74,3.47.96.74.14,1.55.32,2.33.37.26.57.54,1.14.84,1.69-.48-.06-.96-.06-1.4.05-.85.2-1.51.8-2.01,1.49-.63.86-1.02,1.75-1.17,2.81-.15,1.03-.42,2.34-.11,3.36.66,2.24,3.85,1.74,5.53,1.52,1.14-.14,2.15-.25,3.2-.74.57-.26,1.18-.4,1.76-.64.05-.02.1-.04.14-.06.26.41.51.81.77,1.21.6.92.73,1.76.35,2.83ZM21.82,63.99c.26-.16.51-.32.76-.49.6-.42,1.47-1.25,2.13-.51.43.48.59,1.43.82,2.02.29.78.51,1.58.73,2.38.15.55.46,1.45.2,2-.34.72-1.72.83-2.41,1.03-.81.24-1.6.45-2.43.58-.25.04-.51.07-.76.11.23-.55.44-1.1.65-1.64.69-1.84.66-3.65.32-5.48Zm-1.28-5.62c-.03-.12-.07-.23-.11-.35-.15-.9-.3-1.81-.44-2.71-.05-.29-.1-.58-.14-.87.11-.06.21-.12.31-.17.33-.17.79-.54,1.14-.3.43.28.68.96.84,1.42.33.96.63,2.4.37,3.41-.18.71-.88,1.11-1.55,1.5-.13-.65-.25-1.29-.42-1.93Zm21.6-19.4c-.01.57-.01,1.14-.01,1.72,0,.49-.03.98-.06,1.46-.32-.13-.59-.37-.83-.72-.78-1.12-.13-2.07.91-2.46Zm15.45,0c1.04.39,1.69,1.34.91,2.46-.24.35-.51.59-.83.72-.03-.49-.07-.97-.06-1.46,0-.58,0-1.14-.01-1.72Zm20.64,30.51c.21.55.42,1.1.65,1.64-.25-.04-.51-.07-.76-.11-.83-.13-1.62-.34-2.43-.58-.69-.2-2.07-.3-2.41-1.03-.26-.55.05-1.46.2-2,.22-.8.43-1.61.73-2.38.22-.59.39-1.55.82-2.02.66-.73,1.53.09,2.13.51.25.17.5.34.76.49-.34,1.83-.37,3.64.32,5.48Zm.53-9.17c-.67-.4-1.37-.79-1.55-1.5-.26-1.02.04-2.45.37-3.41.16-.46.41-1.14.84-1.42.35-.23.82.13,1.14.3.1.05.2.11.31.17-.05.29-.1.58-.14.87-.14.9-.29,1.81-.44,2.71-.04.12-.08.23-.11.35-.17.64-.29,1.28-.42,1.93Z"/>
        <path class="cls-4" d="m61.13,57.49c.75.98,1.51,1.75,2.68,2.22,2.37.96,5.2.89,7.53-.15,1.07-.48,2.18-1.07,2.89-2.03.71-.96,1.26-2.11,1.48-3.28.25-1.28.35-2.6.23-3.9-.1-1.03-.12-2.4-1.01-3.1-.51-.41-1.13-.5-1.75-.52-.96-.24-1.96-.37-2.92-.6-2.61-.63-5.25-1.62-7.63-2.8-.8-.4-1.8-.4-2.52.18-.86.7-.91,1.97-.93,3-.04,2.67-.09,5.34.42,7.98.24,1.2.78,2.05,1.52,3Zm4.2-5.4c.03-.42.1-.84.16-1.26.11-.79.25-1.53.54-2.28.17-.43.37-.84.54-1.26,1.28.57,2.58.98,3.92,1.2-.08.31-.13.63-.19.94-.18.84-.28,1.68-.42,2.53-.08.53-.08,1.44-.66,1.58-.68.16-1.77-.22-2.45-.34-.32-.06-.65-.11-.96-.2-.07-.02-.51-.25-.53-.16-.04-.18.04-.59.05-.74Z"/>
        <path class="cls-4" d="m73.52,82.03c-.03-.06-.07-.11-.13-.14-.19-.11-.34-.27-.54-.38-.38-.21-.83-.35-1.22-.52-.64-.28-1.32-.47-2.01-.61-1.06-.22-2.17-.13-2.9.76-.62.76-.6,2.02-.43,2.95.21,1.11.94,2.25,1.62,3.13.68.88,1.64,1.88,2.66,2.37.9.44,1.78-.03,2.47-.65,1.49-1.34,3.36-3.67,1.91-5.61-.39-.52-.88-.95-1.43-1.3Zm-.64,5.51c-.35.36-.83.94-1.35,1.04-.53.1-1.04-.49-1.4-.8-.83-.7-1.5-1.52-2.02-2.48-.27-.5-.56-1.03-.63-1.6-.06-.45-.14-1.28.08-1.69.58-1.06,2.23-.43,3.08-.22.54.13,1.08.36,1.62.54.88.47,1.91,1.19,2.21,2.13.32,1.03-.94,2.4-1.59,3.08Z"/>
        <path class="cls-4" d="m67.24,42.33c2.16.78,4.76,0,6.52-1.36.15-.12.29-.24.43-.37,5.02-2.9,2.89-10.44-1.07-13.49-1.9-1.46-4.64-2.22-6.96-1.39-2.43.87-4.24,2.77-5.18,5.13-1.9,4.82,1.73,9.85,6.25,11.48Zm-3.75-12.23c1-1.45,3.15-2.72,4.92-2.68,1.12.02,2.21.38,3.17.96.58.38,1.11.84,1.59,1.38,1.51,1.68,2.17,4.18,1.79,6.4-.31,1.78-1.85,3.42-3.46,4.14-.85.38-1.76.61-2.7.54-.93-.07-1.74-.56-2.51-1.05-1.58-1-3.02-2.42-3.62-4.24-.6-1.83-.28-3.84.81-5.43Z"/>
        <path class="cls-4" d="m67.13,77.15c1.33,1.05,3.37,2.11,5.09,1.45.84-.32,1.38-1.06,1.63-1.91.23-.8.42-1.94.1-2.73-.5-1.24-2-1.82-3.41-2.2-.64-.64-1.78-.9-2.63-.97-1.01-.08-1.98.16-2.47,1.13-.96,1.93.16,4.01,1.69,5.22Zm.64-5.21c.19.01.39.04.59.07.04.04.09.07.16.09.45.13,1.1.28,1.78.49.07.09.18.16.33.16.04,0,.08,0,.11-.01,1.19.42,2.31,1.05,2.29,2.14-.01.85-.15,2.06-.95,2.55-.69.42-1.58.19-2.28-.08-1.49-.58-3.56-1.97-3.51-3.76.03-1.04.32-1.72,1.49-1.64Z"/>
        <path class="cls-4" d="m70,34.82c.03-.14.03-.28.02-.42.03-.13.05-.26.04-.39,0-.66-.34-1.43-.94-1.76-.94-.51-1.83.25-2.12,1.12-.19.59-.14,1.28.22,1.79.69.97,2.52,1.03,2.78-.34Z"/>
        <path class="cls-4" d="m63.21,83.81c-.93-.82-2.46-.88-3.44-.1-.36.28-.52.64-.65,1.03-.31.43-.48,1.11-.67,1.48-.6,1.16-1.07,2.35-1.28,3.65-.15.93-.13,1.95.56,2.67.69.71,1.83.92,2.77,1.03,1.87.22,4.07-.31,4.83-2.24.5-1.27.25-2.8-.09-4.08-.34-1.3-.99-2.55-2.02-3.44Zm-.48,8.37c-1.4.49-4.51.49-4.62-1.48-.05-1,.24-2.12.55-3.06.04-.11.08-.22.12-.33.12-.01.25-.08.3-.2.1-.24.42-.4.57-.61.1-.15.17-.36.23-.52.23-.57.25-1.21.88-1.46,1.28-.52,2.2.64,2.75,1.65.96,1.75,1.64,5.16-.78,6.02Z"/>
        <path class="cls-4" d="m59.43,81.69c.97-.28,2.28-.91,3.01-1.63.73-.72.78-1.74.39-2.65-.17-.4-.4-.78-.76-1.03-.15-.1-.32-.15-.49-.19.05-.07.05-.16-.01-.25-.56-.71-1.48-.6-2.28-.46-.93.17-1.96.32-2.82.73-.87.41-1.61,1.23-1.67,2.22-.08,1.18.81,1.79,1.67,2.39.96.68,1.74,1.22,2.97.86Zm-1.63-1.31c-.54-.32-1.51-.84-1.82-1.39-.54-.95.51-1.81,1.28-2.13.26-.11.53-.19.81-.27.31-.02.61-.07.93-.04.56.05,1.11.3,1.66.36.04.03.09.06.14.09.25.14.53.13.74.34.27.26.43.86.38,1.23-.09.78-1.04,1.09-1.64,1.4-.79.41-1.61.93-2.49.42Z"/>
        <path class="cls-4" d="m54.16,84.73c-.61-.11-1.29.09-1.87.26-.44.13-.95.21-1.33.47-1.74.25-3.35.89-4.51,2.41-1.3,1.71-2.42,4.47-.82,6.35.73.86,1.77,1.12,2.85.9,1.3-.26,2.85-.88,3.98-1.59,1.97-1.23,3.91-3.76,3.69-6.18-.11-1.23-.66-2.4-1.99-2.63Zm.39,4.7c-1.2,2.27-3.48,3.5-5.85,4.22-1.15.35-2.16.16-2.53-1.11-.31-1.04.18-2.27.66-3.19,1.05-2.02,2.88-2.96,4.95-3.28.04,0,.08.01.12.01.24,0,.44-.05.67-.1.03,0,.06-.01.1-.02.27-.02.55-.03.82-.03.1,0,.17-.04.22-.1.25,0,.49.06.68.19,1.01.68.61,2.54.16,3.41Z"/>
        <path class="cls-4" d="m50.16,83.19c1.79-.32,4.15-2.2,3.03-4.25-.15-.27-.39-.45-.57-.7-.18-.24-.28-.52-.47-.75-.28-.35-.66-.55-1.1-.61-.64-.08-1.19.14-1.71.43-.56.11-1.08.36-1.54.83,0,0-.02,0-.02,0-.08.03-.13.1-.15.18-.64.73-1.36,1.89-1.32,2.83.09,1.96,2.33,2.29,3.85,2.02Zm-1.73-4.42c.09-.12.18-.22.28-.31.31-.08.62-.18.93-.29.34-.11.72-.25,1.09-.22.58.06.59.38.85.77.24.37.6.62.67,1.08.08.48-.22,1.05-.54,1.39-.42.45-1.01.67-1.6.81-.87.21-2.67.33-2.73-.97-.03-.7.63-1.72,1.05-2.27Z"/>
        <path class="cls-4" d="m37.87,76.89c-.09.02-.15.09-.17.16-.4.13-.78.28-1.16.45-.6.28-1.34.69-1.57,1.36-.26.75.27,1.39.87,1.78.93.61,2,.91,3.07,1.16,1.15.26,2.32.57,3.48.13,1.69-.65,3.23-2.68,2.25-4.5-.54-.99-1.71-1.14-2.74-1.21-.68-.04-1.43.02-2.11.1-.68.08-1.26.4-1.92.57Zm2.69.44c.83.06,2.38-.25,2.97.51.61.79-.11,1.9-.73,2.41-.89.73-1.88.77-2.96.55-.96-.2-1.93-.35-2.83-.75-.31-.14-.75-.28-.95-.57-.3-.41.1-.68.44-.91.62-.41,1.35-.7,2.03-.97.15-.06.38-.16.64-.28.46-.02.92-.04,1.39,0Z"/>
        <path class="cls-4" d="m43.39,84.52c-.95-.81-2.54-.63-3.68-.54-.64.05-1.34.16-1.94.41-.23.1-.44.22-.62.39-.12.12-.23.29-.35.45-.99.44-1.91,1.01-2.61,1.92-1.51,1.97-.11,4.1,1.74,5.25,1.13.7,2.22.89,3.47.4,1.15-.45,2.32-.97,3.08-1.99.37-.49.57-1.06.81-1.62.26-.6.59-1.16.73-1.81.19-.93.14-2.21-.63-2.87Zm-1.28,4.07c-.24.57-.43,1.17-.85,1.64-.44.49-1.01.79-1.6,1.06-.62.28-1.27.64-1.97.54-.54-.08-1.11-.44-1.56-.76-.96-.7-1.97-1.81-1.3-3.03.43-.77,1.09-1.36,1.86-1.84.24-.05.46-.15.69-.31.51-.33.82-.51,1.42-.61.66-.11,1.32-.12,1.99-.11.49,0,1.19-.08,1.62.22.99.7.05,2.38-.3,3.2Z"/>
        <path class="cls-4" d="m35.92,59.71c1.17-.47,1.92-1.25,2.68-2.22.73-.95,1.28-1.8,1.52-3,.51-2.63.46-5.31.42-7.98-.01-1.03-.06-2.3-.93-3-.72-.58-1.71-.58-2.52-.18-2.38,1.19-5.03,2.17-7.63,2.8-.95.23-1.96.36-2.92.6-.63.02-1.24.11-1.75.52-.88.71-.91,2.07-1.01,3.1-.13,1.3-.02,2.62.23,3.9.23,1.17.77,2.32,1.48,3.28.71.96,1.82,1.55,2.89,2.03,2.33,1.04,5.15,1.11,7.53.15Zm-2.76-12.43c.16.43.37.84.54,1.26.29.75.43,1.49.54,2.28.06.42.13.84.16,1.26,0,.15.09.57.05.74-.01-.09-.46.14-.53.16-.31.09-.64.14-.96.2-.68.13-1.77.5-2.45.34-.58-.13-.57-1.05-.66-1.58-.13-.85-.24-1.69-.42-2.53-.06-.31-.11-.63-.19-.94,1.35-.22,2.64-.63,3.92-1.2Z"/>
        <path class="cls-4" d="m25.53,40.59c.14.13.28.26.43.37,1.76,1.36,4.36,2.14,6.52,1.36,4.52-1.63,8.15-6.66,6.25-11.48-.93-2.36-2.75-4.25-5.18-5.13-2.31-.84-5.06-.07-6.96,1.39-3.96,3.05-6.09,10.59-1.07,13.49Zm1.02-10.84c.49-.54,1.02-1,1.59-1.38.96-.57,2.05-.93,3.17-.96,1.77-.04,3.92,1.23,4.92,2.68,1.09,1.59,1.41,3.6.81,5.43-.6,1.82-2.04,3.24-3.62,4.24-.77.49-1.58.98-2.51,1.05-.94.07-1.85-.16-2.7-.54-1.61-.71-3.15-2.35-3.46-4.14-.39-2.22.28-4.72,1.79-6.4Z"/>
        <path class="cls-4" d="m27.51,78.61c1.72.66,3.76-.41,5.09-1.45,1.53-1.21,2.66-3.28,1.69-5.22-.49-.97-1.46-1.21-2.47-1.13-.85.07-1.99.32-2.63.97-1.42.38-2.91.96-3.41,2.2-.32.79-.13,1.93.1,2.73.25.85.78,1.59,1.63,1.91Zm1.49-5.87s.07.01.11.01c.15,0,.26-.07.33-.16.67-.21,1.32-.36,1.78-.49.07-.02.12-.05.16-.09.2-.04.4-.06.59-.07,1.17-.07,1.46.6,1.49,1.64.05,1.78-2.02,3.17-3.51,3.76-.7.27-1.59.5-2.28.08-.8-.49-.94-1.7-.95-2.55-.02-1.09,1.1-1.72,2.29-2.14Z"/>
        <path class="cls-4" d="m30.11,80.38c-.68.14-1.37.33-2.01.61-.4.17-.85.31-1.22.52-.19.11-.34.27-.54.38-.06.03-.1.08-.13.14-.55.35-1.05.78-1.43,1.3-1.45,1.95.42,4.28,1.91,5.61.69.62,1.57,1.1,2.47.65,1.01-.5,1.98-1.49,2.66-2.37.68-.88,1.41-2.02,1.62-3.13.17-.93.2-2.18-.43-2.95-.73-.89-1.84-.99-2.9-.76Zm2.15,3.33c-.07.57-.36,1.1-.63,1.6-.52.96-1.19,1.78-2.02,2.48-.36.31-.87.89-1.4.8-.52-.1-1-.68-1.35-1.04-.66-.68-1.92-2.05-1.6-3.08.3-.94,1.33-1.66,2.21-2.13.54-.18,1.08-.41,1.62-.54.86-.21,2.51-.84,3.08.22.22.41.14,1.24.08,1.69Z"/>
        <path class="cls-4" d="m29.73,34.82c.26,1.37,2.1,1.31,2.78.34.36-.51.41-1.21.22-1.79-.29-.87-1.19-1.63-2.12-1.12-.6.33-.94,1.1-.94,1.76,0,.13.02.26.04.39-.01.14,0,.28.02.42Z"/>
      </g>
    </g>
  </g>
</svg>