<?xml version="1.0" encoding="UTF-8"?>
<svg id="Layer_1" data-name="Layer 1" xmlns="http://www.w3.org/2000/svg" xmlns:xlink="http://www.w3.org/1999/xlink" viewBox="0 0 99.98 105.16">
  <defs>
    <style>
      .cls-1 {
        fill: #fff;
      }

      .cls-2 {
        fill: #fec368;
      }

      .cls-3 {
        fill: #0c121c;
      }

      .cls-4 {
        fill: #f3703a;
      }

      .cls-5 {
        fill: #f2f1e7;
      }

      .cls-6 {
        clip-path: url(#clippath);
      }

      .cls-7 {
        fill: none;
      }

      .cls-8 {
        fill: #fdd2b9;
      }
    </style>
    <clipPath id="clippath">
      <circle class="cls-7" cx="49.99" cy="49.99" r="49.99" transform="translate(-20.71 49.99) rotate(-45)"/>
    </clipPath>
  </defs>
  <g class="cls-6">
    <circle class="cls-5" cx="49.99" cy="49.99" r="49.99" transform="translate(-20.71 49.99) rotate(-45)"/>
    <g>
      <g>
        <path class="cls-1" d="m53.36,68.93c-.29.05-.59.09-.87.12-.42.05-.85-.03-1.27.09-.11.03-.33.05-.34.06-.18-.02-.37-.11-.56-.12-.99-.07-1.98.14-2.97-.03-.24-.04-.48-.09-.73-.14.6-.49,1.14-1.05,1.64-1.62,1.04-1.21,1.55-2.95,1.73-4.65.17,1.7.69,3.43,1.73,4.65.49.58,1.04,1.14,1.64,1.63Z"/>
        <path class="cls-1" d="m57.89,40.59c.45,1.49.38,3.05.15,4.57-.11.75-.39,1.52-.7,2.21-.14.31-.29.56-.37.83-1.1-.5-2.26-.81-3.47-.98-1.06-.15-2.55-.06-3.49.53-.95-.59-2.44-.68-3.49-.53-1.21.17-2.37.47-3.47.98-.09-.27-.24-.53-.37-.83-.31-.69-.59-1.47-.7-2.21-.23-1.52-.3-3.08.15-4.57.57-1.89,1.89-3.38,3.49-4.47,1.39-.69,2.89-1.19,4.32-1.27,1.03-.05,2,0,2.92.36.41.2.82.43,1.21.68.46.35.92.77,1.41,1.06,1.11.98,2,2.2,2.44,3.65Zm-6.77,3c.36-.38.61-.88.62-1.41,0-.73-.49-1.4-1.19-1.6-.64-.19-1.33.06-1.76.54-.06.06-.11.13-.16.19-.67.58-.6,1.64-.04,2.31.67.8,1.87.67,2.54-.04Z"/>
        <path class="cls-4" d="m71.03,69.79c.69,1.13,1.04,2.32.77,3.64-.17.82-.48,1.61-.87,2.35-.21-.51-.48-1.01-.85-1.5-.65-.85-1.49-1.52-2.37-2.12-.78-.53-1.66-1.1-1.99-2.02-.37-1.02-.58-2.1-.96-3.11-.37-.98-.98-1.84-1.69-2.59-1.48-1.59-3.2-2.34-5.25-2.94-.19-.06-.31.23-.14.32,2.1,1.06,3.87,2.28,4.94,4.45.91,1.85.33,4.23,1.5,5.97,1.03,1.53,2.71,2.27,3.89,3.65,1.18,1.38.98,3.18.39,4.8-.62,1.7-1.82,3.26-3.85,2.68-1.82-.52-2.77-2.34-2.94-4.12-.2-1.98.07-3.93-.5-5.88-.57-1.93-1.74-3.22-3.37-4.35-.85-.59-1.79-.99-2.65-1.53-.78-.49-1.47-1.2-2.13-1.83-1.4-1.34-1.62-3.61-2.11-5.4-.12-.45-.7-.4-.86-.05-.16-.35-.73-.41-.86.05-.49,1.79-.7,4.06-2.11,5.4-.66.63-1.36,1.34-2.13,1.83-.87.55-1.81.94-2.65,1.53-1.62,1.13-2.8,2.42-3.37,4.35-.58,1.95-.31,3.9-.5,5.88-.18,1.79-1.12,3.61-2.94,4.12-2.03.57-3.23-.98-3.85-2.68-.59-1.62-.79-3.41.39-4.8,1.18-1.38,2.86-2.12,3.89-3.65,1.17-1.73.58-4.11,1.5-5.97,1.07-2.18,2.85-3.39,4.94-4.45.18-.09.05-.37-.14-.32-2.04.6-3.77,1.35-5.25,2.94-.7.76-1.32,1.62-1.69,2.59-.38,1.02-.6,2.09-.96,3.11-.33.92-1.21,1.49-1.99,2.02-.88.6-1.72,1.27-2.37,2.12-.37.48-.65.98-.85,1.5-.39-.74-.71-1.53-.87-2.35-.27-1.32.09-2.51.77-3.64.57-.94,1.37-1.56,2.29-2.13,1.21-.74,2.33-1.58,3.33-2.59,1.85-1.86,3.31-4.45,3.94-6.99.32-1.3.55-2.65.99-3.92.43-1.22,1.31-2.21,2.27-3.06,1.18-1.06,2.58-1.73,4.09-2.17,1.35-.4,2.75-.52,4.13-.79,1.38.27,2.77.4,4.13.79,1.51.44,2.91,1.12,4.09,2.17.95.85,1.84,1.84,2.27,3.06.44,1.27.67,2.62.99,3.92.63,2.54,2.09,5.13,3.94,6.99,1,1,2.13,1.84,3.33,2.59.92.57,1.72,1.18,2.29,2.13Z"/>
        <path class="cls-8" d="m41.96,24.74c.65.79,1.25,2.08.73,3.08-.29.57-.78,1.02-1.23,1.46-.54.53-1.07,1.12-1.65,1.6-1.53,1.27-5.59,4-7.04,1.41-.77-1.37-1.3-2.87-2.11-4.23-.03-.05-.06-.09-.08-.14-.04-.12-.08-.24-.12-.37-.54-1.9-1.04-3.73-.77-5.71.25-1.82.79-3.53,1.59-5.18.54-1.11,1.08-2.32,1.76-3.41.24.74.55,1.46.84,2.17.49,1.23,1.13,2.44,1.89,3.53.8,1.15,1.75,2.16,2.83,3.04,1.12.91,2.44,1.61,3.36,2.74Z"/>
        <path class="cls-8" d="m70.3,21.85c.27,1.98-.23,3.81-.77,5.71-.04.12-.07.25-.12.37-.03.05-.06.09-.08.14-.81,1.36-1.34,2.86-2.11,4.23-1.45,2.59-5.52-.14-7.04-1.41-.58-.49-1.11-1.07-1.65-1.6-.45-.44-.93-.9-1.23-1.46-.52-1,.08-2.29.73-3.08.92-1.13,2.24-1.83,3.36-2.74,1.09-.88,2.03-1.89,2.83-3.04.77-1.09,1.4-2.29,1.89-3.53.29-.72.6-1.44.84-2.17.68,1.09,1.22,2.29,1.76,3.41.8,1.65,1.34,3.36,1.59,5.18Z"/>
        <path class="cls-4" d="m27.34,36.2c.4.19.78.38,1.17.47-.69.97-1.32,1.98-1.91,2.99-.03,0-.06-.02-.1-.02-.89-.07-1.35-.52-1.94-1.15-.55-.59-1.11-1.19-1.63-1.8-.95-1.13-1.75-2.39-2.99-3.24-1.02-.7-2.53-1.28-3.72-.67-1.22.62-1.35,1.79-1.3,3.03.06,1.32.21,2.78.79,3.99.58,1.22,2,1.88,3.18,2.38,1.21.51,2.84.89,4.14.49.69-.21,1.34-.56,2.01-.81.19-.07.36-.12.51-.18-.24.5-.46,1.02-.67,1.53-1.04.18-2.04.72-3.08.83-.81.09-1.63.06-2.43.09-.85.02-1.64.09-2.47-.11-1.56-.36-2.8-1.05-3.64-2.46-.8-1.33-1.38-2.97-1.59-4.5-.43-3.06-.03-7.12,2.42-9.29,1.13-1,2.94-.73,4.1.15,1.23.93,1.84,2.43,2.79,3.6,1.07,1.32,2.46,2.44,3.87,3.37.79.52,1.65.91,2.5,1.3Z"/>
        <path class="cls-4" d="m85.91,27.78c2.45,2.17,2.85,6.23,2.42,9.29-.21,1.53-.8,3.17-1.59,4.5-.84,1.41-2.08,2.1-3.64,2.46-.83.19-1.62.13-2.47.11-.81-.02-1.63,0-2.43-.09-1.04-.11-2.04-.65-3.08-.83-.21-.52-.43-1.03-.67-1.53.15.05.32.11.51.18.67.25,1.32.6,2.01.81,1.3.4,2.92.02,4.14-.49,1.18-.5,2.59-1.16,3.18-2.38.58-1.21.73-2.67.79-3.99.05-1.24-.07-2.41-1.3-3.03-1.19-.6-2.7-.03-3.72.67-1.24.85-2.04,2.1-2.99,3.24-.52.62-1.08,1.21-1.63,1.8-.59.63-1.05,1.08-1.94,1.15-.04,0-.07.01-.1.02-.59-1.01-1.22-2.03-1.91-2.99.39-.09.77-.29,1.17-.47.86-.39,1.72-.78,2.5-1.3,1.41-.94,2.8-2.06,3.87-3.37.95-1.17,1.57-2.67,2.79-3.6,1.16-.87,2.97-1.15,4.1-.15Z"/>
        <path class="cls-2" d="m79.74,96.54c0,.06.01.12.03.18-.28.17-.57.33-.86.48-1.46.73-3.01,1.27-4.57,1.75-.02,0-.05.01-.07.02-.26-.72-.41-1.49-.67-2.2-.36-.98-.57-2-.62-3.05-.06-1.15-.29-2.33.12-3.43.23-.62.75-1.82,1.4-2.08.84-.33,2.31.41,2.94.95.77.66,1.3,1.73,1.64,2.66.37,1.02.57,2.12.61,3.2.02.51,0,1.02.06,1.52Z"/>
        <path class="cls-2" d="m90.94,86.94c.06.02.12.04.18.06-.19.49-.43.97-.71,1.43-.82,1.37-2.15,2.34-3.35,3.36-.82.7-1.69,1.27-2.58,1.83-.24-.83-.65-1.67-.69-2.51-.06-1.26.49-2.53,1.48-3.3,1-.78,2.27-1.26,3.55-1.25.72,0,1.43.14,2.11.37Z"/>
        <path class="cls-2" d="m86.33,78.18c.4,1.18.96,2.67.53,3.91-.45,1.33-1.94,1.82-3.16,2.14-1.32.35-2.68.68-4.04.74-1.74.08-1.67-1.32-1.51-2.63.15-1.29.6-2.61,1.13-3.79.49-1.1,1.2-2.09,1.93-3.04.47-.61.96-1.22,1.52-1.76.19-.18.4-.34.62-.49.71.83,1.48,1.61,2.26,2.38.06.26.1.53.16.76.15.61.37,1.19.57,1.79Z"/>
        <path class="cls-2" d="m79.97,68.8c.15.23.31.46.47.68-.17.14-.33.28-.53.38-.66.32-1.6.44-2.32.48-.24.01-1.05.1-1.26-.04-.21-.14-.26-.61-.31-.84-.18-.77-.29-1.55-.51-2.31-.32-1.13-1.12-3.38-.29-4.45.38-.49,1.09-.49,1.8-.37.21.73.46,1.45.76,2.16.64,1.51,1.28,2.94,2.19,4.31Z"/>
        <path class="cls-2" d="m75.9,56.92c-.06,0-.11,0-.17,0-.45.03-.89.14-1.33.19-.89.11-1.87-.12-2.75-.22-2-.24-3.64-.97-3.94-3.18-.16-1.17.01-2.46.34-3.59.29-1,.59-2.67,1.78-2.97.94-.24,2.14.28,3.02.58.55.19,1.07.42,1.59.65.03.12.06.23.09.35.46,1.84.66,3.69.97,5.56.14.87.27,1.75.41,2.63Z"/>
        <path class="cls-2" d="m71.44,41.01s-.06.07-.09.1c-.26.32-.53.59-.87.83-1.06.75-2.84,1.49-3.89.42-1.17-1.18-1.21-3.17-.03-4.35.61-.61,1.35-1.05,2.06-1.52.49.64.94,1.31,1.36,1.99.51.83,1,1.67,1.45,2.53Z"/>
        <path class="cls-2" d="m33.42,38.02c1.18,1.18,1.14,3.17-.03,4.35-1.05,1.07-2.83.33-3.89-.42-.34-.24-.61-.52-.87-.83-.03-.03-.06-.07-.09-.1.45-.85.94-1.69,1.45-2.53.42-.69.87-1.35,1.36-1.99.72.47,1.45.91,2.06,1.52Z"/>
        <path class="cls-2" d="m31.94,50.12c.32,1.13.49,2.42.34,3.59-.3,2.22-1.94,2.95-3.94,3.18-.89.1-1.87.33-2.75.22-.44-.05-.88-.16-1.33-.19-.06,0-.11,0-.17,0,.14-.88.26-1.75.41-2.63.31-1.87.51-3.72.97-5.56.03-.12.06-.23.09-.35.53-.23,1.05-.46,1.59-.65.88-.31,2.07-.82,3.02-.58,1.19.3,1.49,1.97,1.78,2.97Z"/>
        <path class="cls-2" d="m24.77,62.7c.83,1.07.04,3.33-.29,4.45-.22.77-.33,1.54-.51,2.31-.05.23-.1.69-.31.84-.21.14-1.02.05-1.26.04-.72-.04-1.66-.16-2.32-.48-.2-.1-.36-.24-.53-.38.16-.23.32-.45.47-.68.91-1.37,1.55-2.8,2.19-4.31.3-.71.55-1.43.76-2.16.71-.12,1.42-.12,1.8.37Z"/>
        <path class="cls-2" d="m14.7,87.82c.98.77,1.53,2.04,1.48,3.3-.04.84-.45,1.68-.69,2.51-.89-.56-1.76-1.13-2.58-1.83-1.2-1.02-2.53-1.99-3.35-3.36-.28-.46-.52-.94-.71-1.43.06-.02.12-.04.18-.06.68-.22,1.39-.36,2.11-.37,1.28,0,2.55.47,3.55,1.25Z"/>
        <path class="cls-2" d="m26.89,90.28c.41,1.11.17,2.29.12,3.43-.06,1.04-.26,2.07-.62,3.05-.26.71-.41,1.49-.67,2.2-.02,0-.05-.01-.07-.02-1.56-.48-3.1-1.02-4.57-1.75-.29-.15-.58-.31-.86-.48.01-.06.02-.12.02-.18.05-.51.04-1.02.06-1.52.04-1.09.24-2.18.61-3.2.34-.94.87-2,1.64-2.66.62-.53,2.1-1.27,2.94-.95.66.26,1.18,1.46,1.4,2.08Z"/>
        <path class="cls-2" d="m21.84,82.33c.15,1.31.22,2.71-1.51,2.63-1.36-.06-2.73-.4-4.04-.74-1.22-.32-2.71-.81-3.16-2.14-.42-1.24.13-2.72.53-3.91.2-.59.41-1.18.57-1.79.06-.23.1-.5.16-.76.78-.77,1.55-1.54,2.26-2.38.22.15.43.31.62.49.56.53,1.05,1.15,1.52,1.76.73.95,1.44,1.94,1.93,3.04.52,1.18.98,2.5,1.13,3.79Z"/>
        <path class="cls-2" d="m69.5,100.33s-.09.03-.14.04c-1.64.44-3.25,1.05-4.92,1.34-1.67.29-3.33.46-5.01.65-.92.11-1.83.21-2.74.26-.54,0-1.08,0-1.63,0-1.41,0-2.83,0-4.24.02-1.29.02-2.54-.17-3.84-.16-.65,0-1.46.13-2.1.03-.51-.08-.92-.23-1.46-.22-1.23.03-2.42-.27-3.64-.29-1.12-.02-2.28-.21-3.4-.15-.29-.04-.57-.09-.86-.14-1.67-.29-3.28-.89-4.92-1.34-.05-.01-.09-.03-.14-.04.14-.29.26-.59.39-.88.49-1.19.96-2.39,1.58-3.52,1.23-2.23,2.85-3.86,4.68-5.59.93-.89,2.01-1.49,3.14-2.11,1.11-.61,2.21-1.16,3.43-1.54,1.23-.39,2.44-.9,3.7-1.2.85-.21,1.73-.44,2.6-.63.87.19,1.75.42,2.6.63,1.26.3,2.46.82,3.7,1.2,1.21.38,2.32.93,3.43,1.54,1.12.62,2.2,1.22,3.14,2.11,1.83,1.73,3.45,3.36,4.68,5.59.62,1.13,1.09,2.33,1.58,3.52.12.3.25.59.39.88Z"/>
        <path class="cls-4" d="m91.45,83.94c.16.8.1,1.57-.09,2.32-.04-.02-.07-.04-.11-.06-.31-.15-.62-.27-.95-.36-.72-.2-1.48-.3-2.22-.22-1.3.13-2.59.67-3.61,1.49-1.17.93-1.61,2.12-1.79,3.57-.16,1.21.31,2.5.64,3.7-.09.06-.19.12-.28.18-.81.53-1.59,1.1-2.39,1.62,0-.37-.03-.73-.02-1.01.02-1.44-.21-2.84-.76-4.18-.85-2.07-2.81-4.22-5.3-3.91-1.1.14-1.6,1.13-2.08,2.01-.66,1.2-.76,2.34-.65,3.68.12,1.49.17,2.88.66,4.3.22.62.34,1.53.66,2.23-.65.19-1.31.38-1.97.57-.06-.32-.14-.63-.22-.93-.36-1.35-.91-2.68-1.57-3.91-1.3-2.45-3.05-4.3-5.06-6.16-1.97-1.82-4.67-3.18-7.25-3.87-2.28-.6-4.69-1.28-7.08-1.22-2.39-.06-4.79.62-7.08,1.22-2.59.68-5.29,2.04-7.25,3.87-2.01,1.86-3.76,3.72-5.06,6.16-.65,1.23-1.21,2.56-1.57,3.91-.08.3-.16.61-.22.93-.66-.18-1.31-.37-1.97-.57.32-.7.44-1.61.66-2.23.5-1.42.54-2.82.66-4.3.11-1.34,0-2.48-.65-3.68-.48-.88-.98-1.88-2.08-2.01-2.5-.31-4.45,1.84-5.3,3.91-.55,1.33-.78,2.74-.76,4.18,0,.28-.02.63-.02,1.01-.8-.52-1.58-1.09-2.39-1.62-.09-.06-.19-.12-.28-.18.34-1.2.8-2.49.64-3.7-.19-1.45-.62-2.64-1.79-3.57-1.02-.81-2.31-1.36-3.61-1.49-.74-.07-1.51.03-2.22.22-.33.09-.64.21-.95.36-.04.02-.07.04-.11.06-.19-.74-.25-1.51-.09-2.32.29-1.5.89-2.95,1.85-4.15.83-1.03,1.76-1.97,2.7-2.9-.47,1.25-1.01,2.49-1.17,3.83-.31,2.66,1.75,4.01,4.05,4.63,1.34.36,2.7.65,4.09.78,1.02.09,2.07-.11,2.67-1.02.65-.98.41-2.1.28-3.19-.15-1.25-.62-2.5-1.09-3.66-.56-1.36-1.42-2.56-2.32-3.72-.49-.63-.99-1.27-1.58-1.8-.19-.17-.39-.32-.59-.46.47-.59.94-1.18,1.39-1.78.27.18.55.34.78.44.89.41,2,.55,2.97.58.94.03,1.73.11,2.24-.83.47-.87.45-1.99.71-2.94.44-1.61,1.28-4.19.06-5.68-.63-.76-1.49-.78-2.37-.59.28-1.11.5-2.23.69-3.36.44.07.94.06,1.21.1,1.17.18,2.34-.09,3.49-.26,2.3-.34,4.15-1.32,4.62-3.77.25-1.27.07-2.75-.26-3.99-.32-1.18-.69-2.66-1.71-3.46-.91-.71-2.08-.49-3.09-.17-.63.2-1.26.41-1.85.7-.17.08-.34.17-.5.26.41-1.33.93-2.66,1.48-3.92.25-.58.52-1.14.8-1.7.09.13.17.23.22.28,1.09,1.28,3.76,2.55,5.33,1.47,1.67-1.14,2.34-3.51,1.47-5.36-.39-.83-1.24-1.64-2-2.14-.3-.2-.64-.46-1-.68.13-.19.28-.39.42-.54.46.27.98.46,1.53.53,1.54.2,3.42-.71,4.69-1.51,1.44-.91,2.67-1.86,3.89-3.04,1.02-.99,2.13-2.09,2.31-3.56.03-.26.04-.52.04-.77.2-.02.4-.04.59-.04.26-.01.53-.12.78-.13.2-.01.41.04.61.03.29-.02.52-.16.78-.2.26-.04.6.01.86.03.63.04,1.25.06,1.88.07,1.25.02,2.46.03,3.7.19.27.03.55.09.82.09,0,.24,0,.48.04.73.18,1.47,1.29,2.57,2.31,3.56,1.22,1.18,2.45,2.13,3.89,3.04,1.27.8,3.15,1.71,4.69,1.51.55-.07,1.07-.26,1.53-.53.14.16.29.35.42.54-.36.22-.7.48-1,.68-.76.5-1.61,1.31-2,2.14-.87,1.85-.2,4.22,1.47,5.36,1.57,1.08,4.23-.19,5.33-1.47.05-.06.13-.16.22-.28.28.56.55,1.12.8,1.7.55,1.26,1.08,2.59,1.48,3.92-.17-.09-.33-.18-.5-.26-.6-.29-1.22-.5-1.85-.7-1.02-.32-2.18-.55-3.09.17-1.02.8-1.39,2.27-1.71,3.46-.34,1.24-.51,2.72-.26,3.99.48,2.45,2.33,3.43,4.62,3.77,1.16.17,2.33.44,3.49.26.27-.04.77-.02,1.21-.1.19,1.13.4,2.26.69,3.36-.88-.19-1.75-.17-2.37.59-1.22,1.48-.38,4.06.06,5.68.26.94.23,2.06.71,2.94.51.94,1.3.85,2.24.83.97-.02,2.08-.16,2.97-.58.23-.11.51-.26.78-.44.45.6.92,1.2,1.39,1.78-.21.14-.41.29-.59.46-.59.54-1.09,1.17-1.58,1.8-.9,1.16-1.76,2.36-2.32,3.72-.47,1.16-.94,2.41-1.09,3.66-.13,1.09-.38,2.21.28,3.19.6.91,1.65,1.11,2.67,1.02,1.39-.13,2.75-.42,4.09-.78,2.3-.62,4.36-1.96,4.05-4.63-.15-1.34-.69-2.58-1.16-3.83.95.92,1.88,1.86,2.7,2.9.96,1.2,1.56,2.65,1.85,4.15Zm-20.17-6.85c2.18-2.13,2.82-5.09,1.69-7.99-.45-1.17-1.15-2.27-2.11-3.09-1.16-.99-2.47-1.76-3.58-2.82-1.12-1.09-1.9-2.39-2.7-3.71-.8-1.32-1.19-2.76-1.64-4.22-.79-2.56-2.29-4.7-4.49-6.19.75-.57,1.14-1.43,1.46-2.3.7-1.9.83-4.19.23-6.14-.7-2.29-2.36-4.6-4.52-5.79-.55-.54-1.15-1.01-1.92-1.38-1.25-.59-2.84-.6-4.19-.42-1.19.16-2.42.55-3.48,1.15-2.97.72-5.32,3.59-6.19,6.44-.6,1.95-.47,4.24.23,6.14.32.87.7,1.73,1.46,2.3-2.2,1.49-3.7,3.63-4.49,6.19-.45,1.46-.84,2.9-1.64,4.22-.81,1.33-1.58,2.63-2.7,3.71-1.1,1.07-2.42,1.84-3.58,2.82-.96.82-1.66,1.92-2.11,3.09-1.13,2.9-.49,5.86,1.69,7.99-.15,1-.05,2.06.25,3.14.54,1.96,1.62,4.11,3.57,4.95,1.95.84,4.2.32,5.75-1.09,1.55-1.4,2.16-3.73,2.25-5.75.04-.9.05-1.88.17-2.83.88,1.09,2.26,1.88,3.48,2.4,1.17.5,2.27.89,3.53,1.08.68.1,1.56.19,2.29-.03.73.22,1.61.13,2.29.03,1.26-.18,2.36-.57,3.53-1.08,1.23-.53,2.6-1.31,3.48-2.4.12.95.14,1.93.17,2.83.09,2.01.7,4.34,2.25,5.75,1.56,1.41,3.8,1.93,5.75,1.09,1.95-.85,3.03-2.99,3.57-4.95.3-1.08.4-2.14.25-3.14Z"/>
      </g>
      <g>
        <path class="cls-3" d="m91.1,77.69c-2.18-2.56-4.79-4.71-6.87-7.37-2.25-2.89-4.11-5.92-4.98-9.51-.46-1.89-.79-3.8-1.07-5.72-.25-1.74-.45-3.54-.84-5.25-.21-.91-.44-1.82-.71-2.71-.12-.39-.27-.76-.43-1.12,1.01.31,2.07.4,3.12.39,2.11-.03,4.02-.13,5.92-1.14,3.02-1.6,4.37-5.49,4.67-8.71.32-3.45-.1-7.74-2.56-10.39-1.35-1.46-3.17-1.68-5.02-1.21-.9.23-1.66.51-2.38,1.12-.72.61-1.31,1.33-1.81,2.12-.49.77-.91,1.55-1.51,2.23-.6.67-1.24,1.3-1.89,1.91-1.26,1.17-2.69,2.26-4.17,3.15-.04-.05-.08-.1-.12-.15-.46-.55-.98-1.18-1.58-1.65.16-.22.31-.45.44-.69.79-1.5,1.29-3.09,1.96-4.64.46-1.06.73-2.08.82-3.17.24-1.12.35-2.25.24-3.43-.21-2.11-.83-4.06-1.73-5.97-.48-1-.95-2.01-1.51-2.98-.47-.81-.98-1.82-1.73-2.4-.61-.47-1.44-.34-1.7.45-.27.84-.41,1.71-.76,2.53-.38.9-.78,1.8-1.27,2.65-.9,1.55-1.99,2.99-3.37,4.14-1.32,1.1-2.85,1.87-3.94,3.22-.23.28-.43.57-.6.87-.55-.3-1.31-.35-1.88-.47-1.29-.26-2.71-.07-4.02-.07-.59,0-1.18-.07-1.77-.04-.51.03-.95.25-1.42.31-.78.1-1.47.25-2.16.52-.2-.39-.45-.76-.74-1.13-1.1-1.35-2.62-2.13-3.94-3.22-1.39-1.15-2.48-2.59-3.37-4.14-.49-.85-.89-1.75-1.27-2.65-.35-.82-.49-1.69-.76-2.53-.26-.79-1.09-.92-1.7-.45-.75.58-1.26,1.59-1.73,2.4-.56.96-1.03,1.97-1.51,2.98-.9,1.91-1.52,3.86-1.73,5.97-.12,1.18,0,2.32.24,3.43.08,1.09.36,2.12.82,3.17.67,1.56,1.17,3.14,1.96,4.64.13.24.27.47.44.69-.6.47-1.12,1.1-1.58,1.65-.04.05-.08.1-.12.15-1.48-.89-2.9-1.98-4.17-3.15-.66-.61-1.3-1.25-1.89-1.91-.61-.68-1.03-1.46-1.51-2.23-.5-.79-1.1-1.51-1.81-2.12-.72-.61-1.48-.89-2.38-1.12-1.85-.47-3.68-.25-5.02,1.21-2.46,2.65-2.88,6.94-2.56,10.39.3,3.21,1.65,7.1,4.67,8.71,1.9,1.01,3.81,1.11,5.92,1.14,1.05.01,2.11-.08,3.12-.39-.16.37-.31.74-.43,1.12-.28.89-.5,1.8-.71,2.71-.39,1.71-.59,3.52-.84,5.25-.28,1.92-.61,3.84-1.07,5.72-.88,3.59-2.73,6.63-4.98,9.51-2.07,2.66-4.69,4.81-6.87,7.37-2.19,2.57-3.55,6.25-2.38,9.56.55,1.55,1.31,3.03,2.5,4.18,1.23,1.18,2.58,2.32,3.95,3.33,1.47,1.08,3.09,1.95,4.59,3,1.39.98,2.9,1.73,4.47,2.36,1.86.75,3.81,1.33,5.73,1.89,2,.59,4.05,1.21,6.09,1.66,2.18.49,4.53.77,6.85.72.92.13,1.82.3,2.75.32.55.01,1.03.23,1.59.22.71,0,1.42-.01,2.14,0,1.34,0,2.64.19,3.99.19,1.41,0,2.83.01,4.24.02,1.42,0,2.88.09,4.29-.13.91-.14,1.75-.4,2.57-.72,1.33-.12,2.64-.33,3.89-.61,2.03-.45,4.09-1.08,6.09-1.66,1.92-.56,3.87-1.15,5.72-1.89,1.57-.63,3.09-1.39,4.47-2.36,1.49-1.05,3.12-1.92,4.59-3,1.37-1.01,2.72-2.14,3.95-3.33,1.19-1.15,1.96-2.63,2.5-4.18,1.17-3.31-.19-6.99-2.38-9.56Zm-7.76-4.44c.71.83,1.48,1.61,2.26,2.38.06.26.1.53.16.76.15.61.37,1.19.57,1.79.4,1.18.96,2.67.53,3.91-.45,1.33-1.94,1.82-3.16,2.14-1.32.35-2.68.68-4.04.74-1.74.08-1.67-1.32-1.51-2.63.15-1.29.6-2.61,1.13-3.79.49-1.1,1.2-2.09,1.93-3.04.47-.61.96-1.22,1.52-1.76.19-.18.4-.34.62-.49Zm-5.56-8.76c.64,1.51,1.28,2.94,2.19,4.31.15.23.31.46.47.68-.17.14-.33.28-.53.38-.66.32-1.6.44-2.32.48-.24.01-1.05.1-1.26-.04-.21-.14-.26-.61-.31-.84-.18-.77-.29-1.55-.51-2.31-.32-1.13-1.12-3.38-.29-4.45.38-.49,1.09-.49,1.8-.37.21.73.46,1.45.76,2.16Zm-5.14-28.29c.86-.39,1.72-.78,2.5-1.3,1.41-.94,2.8-2.06,3.87-3.37.95-1.17,1.57-2.67,2.79-3.6,1.16-.87,2.97-1.15,4.1-.15,2.45,2.17,2.85,6.23,2.42,9.29-.21,1.53-.8,3.17-1.59,4.5-.84,1.41-2.08,2.1-3.64,2.46-.83.19-1.62.13-2.47.11-.81-.02-1.63,0-2.43-.09-1.04-.11-2.04-.65-3.08-.83-.21-.52-.43-1.03-.67-1.53.15.05.32.11.51.18.67.25,1.32.6,2.01.81,1.3.4,2.92.02,4.14-.49,1.18-.5,2.59-1.16,3.18-2.38.58-1.21.73-2.67.79-3.99.05-1.24-.07-2.41-1.3-3.03-1.19-.6-2.7-.03-3.72.67-1.24.85-2.04,2.1-2.99,3.24-.52.62-1.08,1.21-1.63,1.8-.59.63-1.05,1.08-1.94,1.15-.04,0-.07.01-.1.02-.59-1.01-1.22-2.03-1.91-2.99.39-.09.77-.29,1.17-.47Zm3.26,20.71c-.06,0-.11,0-.17,0-.45.03-.89.14-1.33.19-.89.11-1.87-.12-2.75-.22-2-.24-3.64-.97-3.94-3.18-.16-1.17.01-2.46.34-3.59.29-1,.59-2.67,1.78-2.97.94-.24,2.14.28,3.02.58.55.19,1.07.42,1.59.65.03.12.06.23.09.35.46,1.84.66,3.69.97,5.56.14.87.27,1.75.41,2.63Zm-5.91-18.43c.51.83,1,1.67,1.45,2.53-.03.03-.06.07-.09.1-.26.32-.53.59-.87.83-1.06.75-2.84,1.49-3.89.42-1.17-1.18-1.21-3.17-.03-4.35.61-.61,1.35-1.05,2.06-1.52.49.64.94,1.31,1.36,1.99Zm-11.97-13.75c.92-1.13,2.24-1.83,3.36-2.74,1.09-.88,2.03-1.89,2.83-3.04.77-1.09,1.4-2.29,1.89-3.53.29-.72.6-1.44.84-2.17.68,1.09,1.22,2.29,1.76,3.41.8,1.65,1.34,3.36,1.59,5.18.27,1.98-.23,3.81-.77,5.71-.04.12-.07.25-.12.37-.03.05-.06.09-.08.14-.81,1.36-1.34,2.86-2.11,4.23-1.45,2.59-5.52-.14-7.04-1.41-.58-.49-1.11-1.07-1.65-1.6-.45-.44-.93-.9-1.23-1.46-.52-1,.08-2.29.73-3.08Zm-27.36,3.33s-.06-.09-.08-.14c-.04-.12-.08-.24-.12-.37-.54-1.9-1.04-3.73-.77-5.71.25-1.82.79-3.53,1.59-5.18.54-1.11,1.08-2.32,1.76-3.41.24.74.55,1.46.84,2.17.49,1.23,1.13,2.44,1.89,3.53.8,1.15,1.75,2.16,2.83,3.04,1.12.91,2.44,1.61,3.36,2.74.65.79,1.25,2.08.73,3.08-.29.57-.78,1.02-1.23,1.46-.54.53-1.07,1.12-1.65,1.6-1.53,1.27-5.59,4-7.04,1.41-.77-1.37-1.3-2.87-2.11-4.23Zm-.67,10.43c.42-.69.87-1.35,1.36-1.99.72.47,1.45.91,2.06,1.52,1.18,1.18,1.14,3.17-.03,4.35-1.05,1.07-2.83.33-3.89-.42-.34-.24-.61-.52-.87-.83-.03-.03-.06-.07-.09-.1.45-.85.94-1.69,1.45-2.53Zm-8.19,5.56c-.81.09-1.63.06-2.43.09-.85.02-1.64.09-2.47-.11-1.56-.36-2.8-1.05-3.64-2.46-.8-1.33-1.38-2.97-1.59-4.5-.43-3.06-.03-7.12,2.42-9.29,1.13-1,2.94-.73,4.1.15,1.23.93,1.84,2.43,2.79,3.6,1.07,1.32,2.46,2.44,3.87,3.37.79.52,1.65.91,2.5,1.3.4.19.78.38,1.17.47-.69.97-1.32,1.98-1.91,2.99-.03,0-.06-.02-.1-.02-.89-.07-1.35-.52-1.94-1.15-.55-.59-1.11-1.19-1.63-1.8-.95-1.13-1.75-2.39-2.99-3.24-1.02-.7-2.53-1.28-3.72-.67-1.22.62-1.35,1.79-1.3,3.03.06,1.32.21,2.78.79,3.99.58,1.22,2,1.88,3.18,2.38,1.21.51,2.84.89,4.14.49.69-.21,1.34-.56,2.01-.81.19-.07.36-.12.51-.18-.24.5-.46,1.02-.67,1.53-1.04.18-2.04.72-3.08.83Zm3.75,4.33c.53-.23,1.05-.46,1.59-.65.88-.31,2.07-.82,3.02-.58,1.19.3,1.49,1.97,1.78,2.97.32,1.13.49,2.42.34,3.59-.3,2.22-1.94,2.95-3.94,3.18-.89.1-1.87.33-2.75.22-.44-.05-.88-.16-1.33-.19-.06,0-.11,0-.17,0,.14-.88.26-1.75.41-2.63.31-1.87.51-3.72.97-5.56.03-.12.06-.23.09-.35Zm-5.54,20.42c.91-1.37,1.55-2.8,2.19-4.31.3-.71.55-1.43.76-2.16.71-.12,1.42-.12,1.8.37.83,1.07.04,3.33-.29,4.45-.22.77-.33,1.54-.51,2.31-.05.23-.1.69-.31.84-.21.14-1.02.05-1.26.04-.72-.04-1.66-.16-2.32-.48-.2-.1-.36-.24-.53-.38.16-.23.32-.45.47-.68Zm-5.8,7.59c.06-.23.1-.5.16-.76.78-.77,1.55-1.54,2.26-2.38.22.15.43.31.62.49.56.53,1.05,1.15,1.52,1.76.73.95,1.44,1.94,1.93,3.04.52,1.18.98,2.5,1.13,3.79.15,1.31.22,2.71-1.51,2.63-1.36-.06-2.73-.4-4.04-.74-1.22-.32-2.71-.81-3.16-2.14-.42-1.24.13-2.72.53-3.91.2-.59.41-1.18.57-1.79Zm1.96,14.72c-.04.84-.45,1.68-.69,2.51-.89-.56-1.76-1.13-2.58-1.83-1.2-1.02-2.53-1.99-3.35-3.36-.28-.46-.52-.94-.71-1.43.06-.02.12-.04.18-.06.68-.22,1.39-.36,2.11-.37,1.28,0,2.55.47,3.55,1.25.98.77,1.53,2.04,1.48,3.3Zm9.54,7.85s-.05-.01-.07-.02c-1.56-.48-3.1-1.02-4.57-1.75-.29-.15-.58-.31-.86-.48.01-.06.02-.12.02-.18.05-.51.04-1.02.06-1.52.04-1.09.24-2.18.61-3.2.34-.94.87-2,1.64-2.66.62-.53,2.1-1.27,2.94-.95.66.26,1.18,1.46,1.4,2.08.41,1.11.17,2.29.12,3.43-.06,1.04-.26,2.07-.62,3.05-.26.71-.41,1.49-.67,2.2Zm43.64,1.4c-1.64.44-3.25,1.05-4.92,1.34-1.67.29-3.33.46-5.01.65-.92.11-1.83.21-2.74.26-.54,0-1.08,0-1.63,0-1.41,0-2.83,0-4.24.02-1.29.02-2.54-.17-3.84-.16-.65,0-1.46.13-2.1.03-.51-.08-.92-.23-1.46-.22-1.23.03-2.42-.27-3.64-.29-1.12-.02-2.28-.21-3.4-.15-.29-.04-.57-.09-.86-.14-1.67-.29-3.28-.89-4.92-1.34-.05-.01-.09-.03-.14-.04.14-.29.26-.59.39-.88.49-1.19.96-2.39,1.58-3.52,1.23-2.23,2.85-3.86,4.68-5.59.93-.89,2.01-1.49,3.14-2.11,1.11-.61,2.21-1.16,3.43-1.54,1.23-.39,2.44-.9,3.7-1.2.85-.21,1.73-.44,2.6-.63.87.19,1.75.42,2.6.63,1.26.3,2.46.82,3.7,1.2,1.21.38,2.32.93,3.43,1.54,1.12.62,2.2,1.22,3.14,2.11,1.83,1.73,3.45,3.36,4.68,5.59.62,1.13,1.09,2.33,1.58,3.52.12.3.25.59.39.88-.05.01-.09.03-.14.04Zm9.54-3.18c-1.46.73-3.01,1.27-4.57,1.75-.02,0-.05.01-.07.02-.26-.72-.41-1.49-.67-2.2-.36-.98-.57-2-.62-3.05-.06-1.15-.29-2.33.12-3.43.23-.62.75-1.82,1.4-2.08.84-.33,2.31.41,2.94.95.77.66,1.3,1.73,1.64,2.66.37,1.02.57,2.12.61,3.2.02.51,0,1.02.06,1.52,0,.06.01.12.03.18-.28.17-.57.33-.86.48Zm11.51-8.76c-.82,1.37-2.15,2.34-3.35,3.36-.82.7-1.69,1.27-2.58,1.83-.24-.83-.65-1.67-.69-2.51-.06-1.26.49-2.53,1.48-3.3,1-.78,2.27-1.26,3.55-1.25.72,0,1.43.14,2.11.37.06.02.12.04.18.06-.19.49-.43.97-.71,1.43Zm.95-2.17s-.07-.04-.11-.06c-.31-.15-.62-.27-.95-.36-.72-.2-1.48-.3-2.22-.22-1.3.13-2.59.67-3.61,1.49-1.17.93-1.61,2.12-1.79,3.57-.16,1.21.31,2.5.64,3.7-.09.06-.19.12-.28.18-.81.53-1.59,1.1-2.39,1.62,0-.37-.03-.73-.02-1.01.02-1.44-.21-2.84-.76-4.18-.85-2.07-2.81-4.22-5.3-3.91-1.1.14-1.6,1.13-2.08,2.01-.66,1.2-.76,2.34-.65,3.68.12,1.49.17,2.88.66,4.3.22.62.34,1.53.66,2.23-.65.19-1.31.38-1.97.57-.06-.32-.14-.63-.22-.93-.36-1.35-.91-2.68-1.57-3.91-1.3-2.45-3.05-4.3-5.06-6.16-1.97-1.82-4.67-3.18-7.25-3.87-2.28-.6-4.69-1.28-7.08-1.22-2.39-.06-4.79.62-7.08,1.22-2.59.68-5.29,2.04-7.25,3.87-2.01,1.86-3.76,3.72-5.06,6.16-.65,1.23-1.21,2.56-1.57,3.91-.08.3-.16.61-.22.93-.66-.18-1.31-.37-1.97-.57.32-.7.44-1.61.66-2.23.5-1.42.54-2.82.66-4.3.11-1.34,0-2.48-.65-3.68-.48-.88-.98-1.88-2.08-2.01-2.5-.31-4.45,1.84-5.3,3.91-.55,1.33-.78,2.74-.76,4.18,0,.28-.02.63-.02,1.01-.8-.52-1.58-1.09-2.39-1.62-.09-.06-.19-.12-.28-.18.34-1.2.8-2.49.64-3.7-.19-1.45-.62-2.64-1.79-3.57-1.02-.81-2.31-1.36-3.61-1.49-.74-.07-1.51.03-2.22.22-.33.09-.64.21-.95.36-.04.02-.07.04-.11.06-.19-.74-.25-1.51-.09-2.32.29-1.5.89-2.95,1.85-4.15.83-1.03,1.76-1.97,2.7-2.9-.47,1.25-1.01,2.49-1.17,3.83-.31,2.66,1.75,4.01,4.05,4.63,1.34.36,2.7.65,4.09.78,1.02.09,2.07-.11,2.67-1.02.65-.98.41-2.1.28-3.19-.15-1.25-.62-2.5-1.09-3.66-.56-1.36-1.42-2.56-2.32-3.72-.49-.63-.99-1.27-1.58-1.8-.19-.17-.39-.32-.59-.46.47-.59.94-1.18,1.39-1.78.27.18.55.34.78.44.89.41,2,.55,2.97.58.94.03,1.73.11,2.24-.83.47-.87.45-1.99.71-2.94.44-1.61,1.28-4.19.06-5.68-.63-.76-1.49-.78-2.37-.59.28-1.11.5-2.23.69-3.36.44.07.94.06,1.21.1,1.17.18,2.34-.09,3.49-.26,2.3-.34,4.15-1.32,4.62-3.77.25-1.27.07-2.75-.26-3.99-.32-1.18-.69-2.66-1.71-3.46-.91-.71-2.08-.49-3.09-.17-.63.2-1.26.41-1.85.7-.17.08-.34.17-.5.26.41-1.33.93-2.66,1.48-3.92.25-.58.52-1.14.8-1.7.09.13.17.23.22.28,1.09,1.28,3.76,2.55,5.33,1.47,1.67-1.14,2.34-3.51,1.47-5.36-.39-.83-1.24-1.64-2-2.14-.3-.2-.64-.46-1-.68.13-.19.28-.39.42-.54.46.27.98.46,1.53.53,1.54.2,3.42-.71,4.69-1.51,1.44-.91,2.67-1.86,3.89-3.04,1.02-.99,2.13-2.09,2.31-3.56.03-.26.04-.52.04-.77.2-.02.4-.04.59-.04.26-.01.53-.12.78-.13.2-.01.41.04.61.03.29-.02.52-.16.78-.2.26-.04.6.01.86.03.63.04,1.25.06,1.88.07,1.25.02,2.46.03,3.7.19.27.03.55.09.82.09,0,.24,0,.48.04.73.18,1.47,1.29,2.57,2.31,3.56,1.22,1.18,2.45,2.13,3.89,3.04,1.27.8,3.15,1.71,4.69,1.51.55-.07,1.07-.26,1.53-.53.14.16.29.35.42.54-.36.22-.7.48-1,.68-.76.5-1.61,1.31-2,2.14-.87,1.85-.2,4.22,1.47,5.36,1.57,1.08,4.23-.19,5.33-1.47.05-.06.13-.16.22-.28.28.56.55,1.12.8,1.7.55,1.26,1.08,2.59,1.48,3.92-.17-.09-.33-.18-.5-.26-.6-.29-1.22-.5-1.85-.7-1.02-.32-2.18-.55-3.09.17-1.02.8-1.39,2.27-1.71,3.46-.34,1.24-.51,2.72-.26,3.99.48,2.45,2.33,3.43,4.62,3.77,1.16.17,2.33.44,3.49.26.27-.04.77-.02,1.21-.1.19,1.13.4,2.26.69,3.36-.88-.19-1.75-.17-2.37.59-1.22,1.48-.38,4.06.06,5.68.26.94.23,2.06.71,2.94.51.94,1.3.85,2.24.83.97-.02,2.08-.16,2.97-.58.23-.11.51-.26.78-.44.45.6.92,1.2,1.39,1.78-.21.14-.41.29-.59.46-.59.54-1.09,1.17-1.58,1.8-.9,1.16-1.76,2.36-2.32,3.72-.47,1.16-.94,2.41-1.09,3.66-.13,1.09-.38,2.21.28,3.19.6.91,1.65,1.11,2.67,1.02,1.39-.13,2.75-.42,4.09-.78,2.3-.62,4.36-1.96,4.05-4.63-.15-1.34-.69-2.58-1.16-3.83.95.92,1.88,1.86,2.7,2.9.96,1.2,1.56,2.65,1.85,4.15.16.8.1,1.57-.09,2.32Z"/>
        <path class="cls-3" d="m70.87,66.02c-1.16-.99-2.47-1.76-3.58-2.82-1.12-1.09-1.9-2.39-2.7-3.71-.8-1.32-1.19-2.76-1.64-4.22-.79-2.56-2.29-4.7-4.49-6.19.75-.57,1.14-1.43,1.46-2.3.7-1.9.83-4.19.23-6.14-.7-2.29-2.36-4.6-4.52-5.79-.55-.54-1.15-1.01-1.92-1.38-1.25-.59-2.84-.6-4.19-.42-1.19.16-2.42.55-3.48,1.15-2.97.72-5.32,3.59-6.19,6.44-.6,1.95-.47,4.24.23,6.14.32.87.7,1.73,1.46,2.3-2.2,1.49-3.7,3.63-4.49,6.19-.45,1.46-.84,2.9-1.64,4.22-.81,1.33-1.58,2.63-2.7,3.71-1.1,1.07-2.42,1.84-3.58,2.82-.96.82-1.66,1.92-2.11,3.09-1.13,2.9-.49,5.86,1.69,7.99-.15,1-.05,2.06.25,3.14.54,1.96,1.62,4.11,3.57,4.95,1.95.84,4.2.32,5.75-1.09,1.55-1.4,2.16-3.73,2.25-5.75.04-.9.05-1.88.17-2.83.88,1.09,2.26,1.88,3.48,2.4,1.17.5,2.27.89,3.53,1.08.68.1,1.56.19,2.29-.03.73.22,1.61.13,2.29.03,1.26-.18,2.36-.57,3.53-1.08,1.23-.53,2.6-1.31,3.48-2.4.12.95.14,1.93.17,2.83.09,2.01.7,4.34,2.25,5.75,1.56,1.41,3.8,1.93,5.75,1.09,1.95-.85,3.03-2.99,3.57-4.95.3-1.08.4-2.14.25-3.14,2.18-2.13,2.82-5.09,1.69-7.99-.45-1.17-1.15-2.27-2.11-3.09Zm-28.77-25.43c.57-1.89,1.89-3.38,3.49-4.47,1.39-.69,2.89-1.19,4.32-1.27,1.03-.05,2,0,2.92.36.41.2.82.43,1.21.68.46.35.92.77,1.41,1.06,1.11.98,2,2.2,2.44,3.65.45,1.49.38,3.05.15,4.57-.11.75-.39,1.52-.7,2.21-.14.31-.29.56-.37.83-1.1-.5-2.26-.81-3.47-.98-1.06-.15-2.55-.06-3.49.53-.95-.59-2.44-.68-3.49-.53-1.21.17-2.37.47-3.47.98-.09-.27-.24-.53-.37-.83-.31-.69-.59-1.47-.7-2.21-.23-1.52-.3-3.08.15-4.57Zm10.39,28.47c-.42.05-.85-.03-1.27.09-.11.03-.33.05-.34.06-.18-.02-.37-.11-.56-.12-.99-.07-1.98.14-2.97-.03-.24-.04-.48-.09-.73-.14.6-.49,1.14-1.05,1.64-1.62,1.04-1.21,1.55-2.95,1.73-4.65.17,1.7.69,3.43,1.73,4.65.49.58,1.04,1.14,1.64,1.63-.29.05-.59.09-.87.12Zm19.32,4.37c-.17.82-.48,1.61-.87,2.35-.21-.51-.48-1.01-.85-1.5-.65-.85-1.49-1.52-2.37-2.12-.78-.53-1.66-1.1-1.99-2.02-.37-1.02-.58-2.1-.96-3.11-.37-.98-.98-1.84-1.69-2.59-1.48-1.59-3.2-2.34-5.25-2.94-.19-.06-.31.23-.14.32,2.1,1.06,3.87,2.28,4.94,4.45.91,1.85.33,4.23,1.5,5.97,1.03,1.53,2.71,2.27,3.89,3.65,1.18,1.38.98,3.18.39,4.8-.62,1.7-1.82,3.26-3.85,2.68-1.82-.52-2.77-2.34-2.94-4.12-.2-1.98.07-3.93-.5-5.88-.57-1.93-1.74-3.22-3.37-4.35-.85-.59-1.79-.99-2.65-1.53-.78-.49-1.47-1.2-2.13-1.83-1.4-1.34-1.62-3.61-2.11-5.4-.12-.45-.7-.4-.86-.05-.16-.35-.73-.41-.86.05-.49,1.79-.7,4.06-2.11,5.4-.66.63-1.36,1.34-2.13,1.83-.87.55-1.81.94-2.65,1.53-1.62,1.13-2.8,2.42-3.37,4.35-.58,1.95-.31,3.9-.5,5.88-.18,1.79-1.12,3.61-2.94,4.12-2.03.57-3.23-.98-3.85-2.68-.59-1.62-.79-3.41.39-4.8,1.18-1.38,2.86-2.12,3.89-3.65,1.17-1.73.58-4.11,1.5-5.97,1.07-2.18,2.85-3.39,4.94-4.45.18-.09.05-.37-.14-.32-2.04.6-3.77,1.35-5.25,2.94-.7.76-1.32,1.62-1.69,2.59-.38,1.02-.6,2.09-.96,3.11-.33.92-1.21,1.49-1.99,2.02-.88.6-1.72,1.27-2.37,2.12-.37.48-.65.98-.85,1.5-.39-.74-.71-1.53-.87-2.35-.27-1.32.09-2.51.77-3.64.57-.94,1.37-1.56,2.29-2.13,1.21-.74,2.33-1.58,3.33-2.59,1.85-1.86,3.31-4.45,3.94-6.99.32-1.3.55-2.65.99-3.92.43-1.22,1.31-2.21,2.27-3.06,1.18-1.06,2.58-1.73,4.09-2.17,1.35-.4,2.75-.52,4.13-.79,1.38.27,2.77.4,4.13.79,1.51.44,2.91,1.12,4.09,2.17.95.85,1.84,1.84,2.27,3.06.44,1.27.67,2.62.99,3.92.63,2.54,2.09,5.13,3.94,6.99,1,1,2.13,1.84,3.33,2.59.92.57,1.72,1.18,2.29,2.13.69,1.13,1.04,2.32.77,3.64Z"/>
        <path class="cls-3" d="m51.12,43.59c.36-.38.61-.88.62-1.41,0-.73-.49-1.4-1.19-1.6-.64-.19-1.33.06-1.76.54-.06.06-.11.13-.16.19-.67.58-.6,1.64-.04,2.31.67.8,1.87.67,2.54-.04Z"/>
      </g>
    </g>
  </g>
</svg>