<?xml version="1.0" encoding="UTF-8"?>
<svg id="Layer_1" data-name="Layer 1" xmlns="http://www.w3.org/2000/svg" xmlns:xlink="http://www.w3.org/1999/xlink" viewBox="0 0 100 99.97">
  <defs>
    <style>
      .cls-1 {
        fill: #fff;
      }

      .cls-2 {
        fill: #3c479d;
      }

      .cls-3 {
        fill: #0c121c;
      }

      .cls-4 {
        fill: #f2f1e7;
      }

      .cls-5 {
        clip-path: url(#clippath);
      }

      .cls-6 {
        fill: none;
      }

      .cls-7 {
        fill: #0f6fa3;
      }
    </style>
    <clipPath id="clippath">
      <ellipse class="cls-6" cx="50" cy="49.98" rx="50" ry="49.98"/>
    </clipPath>
  </defs>
  <g class="cls-5">
    <ellipse class="cls-4" cx="50" cy="49.98" rx="50" ry="49.98"/>
    <g>
      <g>
        <path class="cls-7" d="m76.94,30.66c.24,1.19.2,2.38-.12,3.55-.16.58-.36,1.13-.68,1.64-.07.11-.19.35-.32.58-.45.2-.69.66-.88,1.14-.2.5.16,1.08.64,1.3-.07.28-.17.55-.22.63-.24.45-.62.81-1.05,1.08-.81.51-1.85.74-2.8.78-1.31.06-2.59-.25-3.87-.48-.59-.1-1.15-.14-1.72.07-.48.17-.88.5-1.35.7-1.05.44-2.13.08-3.12-.33-.52-.22-1.05-.43-1.62-.44-.61-.02-1.02.21-1.59.37-.6.17-1.12-.18-1.66-.42-.56-.24-1.12-.46-1.73-.58-1.2-.22-2.31-.02-3.48.25-1.04-.52-2.55-.41-3.79-.21-.81-.14-1.61-.2-2.46-.04-.6.11-1.17.33-1.73.58-.54.24-1.06.58-1.66.42-.56-.16-.97-.39-1.59-.37-.58.02-1.1.22-1.62.44-.99.42-2.07.77-3.12.33-.47-.2-.86-.53-1.35-.7-.57-.2-1.13-.17-1.72-.07-1.28.22-2.56.53-3.87.48-.95-.04-1.99-.27-2.8-.78-.43-.27-.81-.63-1.05-1.08-.05-.08-.15-.35-.22-.63.48-.22.84-.8.64-1.3-.19-.48-.43-.94-.88-1.14-.13-.23-.25-.47-.32-.58-.32-.51-.52-1.06-.68-1.64-.32-1.17-.37-2.36-.12-3.55.05-.26.11-.52.18-.77,0,0,0,0,0,0,.04.04.08.07.11.1.4.4.88.77,1.39,1,.93.41,1.96.25,2.58-.59.57-.77.69-1.87.97-2.77.02-.06.22-.5.34-.82.07.06.16.11.2.16.77.73,1.43,1.68,2.49,2,.48.15,1.21-.08,1.42-.58.24-.55.31-1.08.43-1.66.06-.27.12-.53.2-.79,0-.02.1-.26.19-.46.04.05.09.1.13.14.27.29.52.59.78.9.33.39.64.79.97,1.18.59.7,1.36,1.4,2.34,1.4,1,0,1.48-.73,1.89-1.5h0c.35.46.7.93,1.13,1.32.99.89,2.22,1.19,3.36.39.44-.31.75-.71,1.09-1.11.03-.04.06-.07.09-.1.14.17.48.41.6.53.51.49,1.03.93,1.56,1.36.1.53.41,1.04.82,1.35.75.58,2.09.58,2.62-.19.05-.02.1-.05.15-.08,1.03-.78,2-1.54,2.94-2.44.12-.12.46-.36.6-.53.03.03.06.06.09.1.34.4.66.8,1.09,1.11,1.15.8,2.37.5,3.36-.39.43-.39.78-.86,1.13-1.31,0,0,0,0,0,0,.41.77.89,1.5,1.89,1.5.98,0,1.75-.7,2.34-1.4.33-.39.64-.79.97-1.18.25-.3.51-.61.78-.9.04-.05.09-.09.13-.14.09.2.19.45.19.46.08.26.15.53.2.79.12.58.19,1.11.43,1.66.22.49.94.72,1.42.58,1.06-.32,1.72-1.27,2.49-2,.05-.04.13-.1.2-.16.12.32.32.76.34.82.27.89.4,1.99.97,2.77.62.84,1.65,1,2.58.59.52-.23,1-.6,1.39-1,.03-.03.07-.07.11-.1,0,0,0,0,0,0,.07.26.13.51.18.77Z"/>
        <path class="cls-1" d="m62.35,48.88c.92,2.29,1.49,4.96,1.01,7.43-.51,2.58-1.75,4.6-3.59,6.44-1.52,1.52-3.72,1.84-5.7,2.49-.32.03-.64.05-.98.09-1.55.16-3.04.3-4.6.09-.77-.1-1.58-.09-2.36-.15-.06,0-.12,0-.18-.01-1.99-.66-4.21-.98-5.74-2.51-1.83-1.83-3.08-3.86-3.59-6.44-.48-2.46.09-5.13,1.01-7.43.48-1.18,1.1-2.26,1.91-3.24.52-.63,1-1.27,1.54-1.86.15.06.32.11.5.15.83.16,1.68-.05,2.45-.35.76-.3,1.44-.59,2.26-.67.87-.09,1.73-.18,2.58-.36.11-.02.21-.06.29-.12.06,0,.11,0,.17,0,.64.06,1.2.24,1.77.11.85.18,1.71.27,2.57.36.82.08,1.5.38,2.26.67.77.3,1.62.51,2.45.35.18-.04.34-.09.5-.15.54.59,1.02,1.23,1.54,1.86.81.98,1.43,2.06,1.91,3.24Zm-9.2,4.03c0-2.01-2.51-3.72-4.35-2.74-.78.41-1.32,1.31-1.58,2.12-.13.41-.16.8-.12,1.19.01.15.04.29.09.43.13.43.36.83.69,1.2.7.78,1.78,1.46,2.87,1.16.8-.22,1.59-.98,1.93-1.8.3-.47.48-1,.48-1.55Z"/>
        <path class="cls-1" d="m46.75,88.25c.02.37.09.73.14,1.09-.81-.07-1.61-.08-2.42-.17-1.78-.2-3.57-.54-5.32-.95.15-.75.17-1.57.12-2.28-.04-.5-.13-.99-.1-1.49.01-.23.18-1.03.2-1.03.22-.1.87.14,1.12.17.46.06.92.05,1.38.05,1.74.02,4.12-.96,4.66,1.33.26,1.12.17,2.14.22,3.28Z"/>
        <path class="cls-1" d="m61.16,88.15s-.02,0-.04,0c-1.83.43-3.72.81-5.59,1.01-.8.09-1.61.1-2.42.17.06-.4.12-.81.15-1.22.08-1,.06-2.01.08-3.01,0-.17.07-.73.02-1.05.14-.02.3-.08.43-.11.94-.27,1.85-.64,2.79-.89.88-.24,1.76-.37,2.66-.5.45-.07.92-.21,1.36-.04.48.18.42.37.4.82-.04.91.07,1.82.05,2.73-.02.76-.09,1.41.1,2.1Z"/>
        <path class="cls-1" d="m63.57,72.17c.19.89.4,1.65.16,2.56-.19.73-.49,1.42-1.13,1.86-.59.4-1.3.7-1.94,1.03-.67.35-1.4.33-2.13.2-.63-.1-1.59-.23-1.94-.85-.4-.7-.34-1.84-.45-2.62-.1-.77-.12-1.56-.4-2.28.71-.08,1.41-.15,2.11-.25.72-.11,1.37-.33,2-.61.06,0,.13-.02.19-.03,1.09-.14,2.19-.26,3.27-.45.01,0,.02,0,.04,0,0,.06,0,.13,0,.18.02.42.13.86.22,1.27Z"/>
        <path class="cls-1" d="m42.89,71.91c-.06.27-.04.54-.07.87-.04.48-.15.95-.17,1.44-.04.94-.18,1.8-.83,2.53-.34.39-.53.56-1.06.55-.53-.01-1.08.02-1.61-.03-1.1-.11-2.28-.51-3.29-.95-.38-.16-.76-.34-.92-.74-.23-.54-.07-1.36.02-1.92.12-.71.25-1.43.37-2.14.03-.19.09-.64.09-1.1.41.11.83.21,1.26.28.45.08.91.15,1.37.21,1.13.37,2.26.71,3.44.92.47.08.93.04,1.39.07Z"/>
        <path class="cls-1" d="m53.85,72.3c-.39,1.42.09,3.07-.09,4.51-.12.96-.79,1.16-1.65,1.3-1.08.17-2.17.28-3.26.27-.91,0-1.85.02-2.75-.17-.88-.19-1.19-.43-1.3-1.36-.16-1.31,0-2.61-.02-3.93.02-.2.03-.39.02-.58,0,0,.01,0,.02,0,.57.1,1.14.05,1.71.11.57.07,1.1.17,1.69.19,1.06.04,2.11-.15,3.18-.15.8,0,1.65-.09,2.47-.2Z"/>
        <path class="cls-2" d="m75.92,26.93s.03.07.05.1c-.32.18-.61.43-.89.71-.09.08-.21.17-.33.25-.1-.37-.19-.74-.3-1.1-.18-.59-.38-1.23-.69-1.77-.7-1.23-2.08-1.73-3.36-1.04-.5.27-.94.67-1.33,1.09-.07.08-.15.17-.22.26,0-.02-.01-.05-.02-.07-.2-.61-.46-1.24-.9-1.72-1.06-1.19-2.27-.54-3.18.44-.78.85-1.41,1.84-2.22,2.65-.1.1-.21.21-.32.3,0,0,0,0,0,0-.1-.12-.16-.26-.19-.41-.21-.56-.28-1.14-.76-1.56-1.27-1.09-2.32.41-3.11,1.26-.23.24-.74.83-.93.79-.36-.08-.76-.74-1.05-.98-1.16-.95-2.43-.46-3.31.58-.82.96-1.52,2.02-2.29,3.03-.32-.11-.68.03-.99.12-.8-1.04-1.52-2.15-2.38-3.15-.89-1.04-2.16-1.53-3.31-.58-.29.24-.69.9-1.05.98-.19.04-.7-.55-.93-.79-.79-.84-1.83-2.35-3.11-1.26-.48.41-.55,1-.76,1.56-.03.15-.09.29-.19.41,0,0,0,0,0,0-.11-.09-.22-.19-.32-.3-.82-.81-1.44-1.81-2.22-2.65-.9-.98-2.12-1.63-3.18-.44-.44.49-.7,1.11-.9,1.72,0,.02-.01.05-.02.07-.08-.09-.15-.18-.22-.26-.38-.42-.82-.82-1.33-1.09-1.28-.68-2.66-.18-3.36,1.04-.31.54-.51,1.18-.69,1.77-.11.36-.2.74-.3,1.1-.12-.08-.24-.17-.33-.25-.28-.27-.57-.52-.89-.71.02-.03.03-.07.05-.1.26-.6.49-1.21.74-1.81.43-1.05.84-2.14,1.42-3.11,1.25-2.11,2.96-3.84,5.08-5.09,2.26-1.33,4.82-2.1,7.39-2.57.24-.04.48-.08.72-.12.15.04.31.06.48.07.44.01.87-.09,1.31-.07,2.16.07,4.3-.25,6.46-.26,1.09,0,2.18-.06,3.27-.04,1.06.02,2.1.26,3.16.29,1.12.04,2.26-.1,3.38-.16.51-.03,1.04-.02,1.57-.04.75.09,1.49.2,2.24.33,2.57.47,5.13,1.24,7.39,2.57,2.11,1.24,3.83,2.98,5.08,5.09.58.98.99,2.07,1.42,3.11.25.61.48,1.21.74,1.81Z"/>
        <path class="cls-2" d="m81.56,49.8c.87,6.55,1.3,13.19,1.28,19.78-.01,3.28,0,6.56-.01,9.85,0,3.07-.02,6.1-.42,9.15-.16,1.25-.45,2.51-1.33,3.46-.97,1.05-2.09,2.02-3.32,2.73-2.76,1.61-5.81,2.93-8.8,4.04-1.52.57-3.18.85-4.75,1.26-1.56.4-3.18.64-4.77.94-1.65.32-3.29.45-4.96.61-1.58.16-2.96.77-4.48,1.13-1.53-.36-2.9-.98-4.48-1.13-1.67-.16-3.31-.29-4.96-.61-1.59-.31-3.2-.54-4.77-.94-1.57-.4-3.23-.69-4.75-1.26-2.99-1.12-6.04-2.44-8.8-4.04-1.23-.72-2.35-1.68-3.32-2.73-.88-.95-1.16-2.21-1.33-3.46-.4-3.05-.42-6.08-.42-9.15,0-3.28,0-6.56-.01-9.85-.02-6.6.41-13.24,1.28-19.78.5-3.74,1.35-7.48,2.13-11.17.21-1.01.49-2.02.75-3.02.04.1.08.2.12.3.2.49.49,1.1.86,1.64-.37,1.17,0,2.63.66,3.58,1.74,2.54,5.25,3.07,8.06,2.5.39-.08.77-.17,1.16-.27.37-.1.95-.4,1.33-.31.31.07.65.42.94.56.3.15.62.26.93.35,1.14.31,2.18.19,3.24-.09-.1.09-.2.18-.3.27-1.09,1.01-1.86,2.11-2.5,3.45-1.32,2.76-2,5.96-1.52,9.01.24,1.54.77,3.09,1.5,4.47.66,1.26,1.64,2.28,2.61,3.3,1.36,1.42,3.54,2.49,5.67,2.82.41.09.82.15,1.23.22.86.15,1.69.23,2.56.28.86.05,1.69.25,2.57.25.92,0,1.8-.03,2.71-.15,1.11-.15,2.21-.17,3.12-.65,2.03-.38,4.06-1.42,5.34-2.76.97-1.02,1.95-2.04,2.61-3.3.72-1.38,1.26-2.93,1.5-4.47.48-3.05-.2-6.24-1.52-9.01-.64-1.34-1.41-2.44-2.5-3.45-.1-.09-.2-.18-.3-.27,1.06.28,2.09.4,3.24.09.32-.09.64-.21.93-.35.29-.14.63-.49.94-.56.38-.09.97.22,1.33.31.38.1.77.19,1.16.27,2.81.56,6.32.03,8.06-2.5.66-.96,1.03-2.42.66-3.58.36-.55.65-1.15.86-1.64.04-.1.08-.2.12-.3.26,1.01.54,2.01.75,3.02.78,3.69,1.63,7.43,2.13,11.17Zm-7.76,27.28c.03-1.04-.16-2.14-.31-3.16-.14-.95-.29-1.91-.6-2.81-.56-1.64-1.43-3.61-3.22-4.19-.98-.31-1.9-.03-2.87.2-1.01.24-1.99.6-2.98.92-2.09.67-4.32.95-6.46,1.47-.19.04-.38.09-.57.13-.85.08-1.69.19-2.53.3-1.03.13-2.15.27-3.18.25-.72-.02-1.43.09-2.13.15-.06-.03-.13-.05-.21-.05-1.98.03-4.18-.32-6.11-.79-2.14-.51-4.37-.79-6.46-1.47-.99-.32-1.97-.68-2.98-.92-.96-.23-1.89-.51-2.87-.2-1.79.58-2.66,2.55-3.22,4.19-.31.91-.46,1.87-.6,2.81-.15,1.03-.34,2.13-.31,3.16.05,2,.42,4.11,1.12,5.98.65,1.75,1.96,3.15,3.43,4.27.76.58,1.57.94,2.44,1.32,1.01.44,1.97.96,3.02,1.3,2.36.77,4.81,1.29,7.27,1.65,1.2.18,2.39.18,3.6.24,1.05.05,1.98-.03,2.92-.41.95.38,1.87.46,2.92.41,1.21-.06,2.4-.06,3.6-.24,2.46-.36,4.91-.88,7.27-1.65,1.05-.34,2.01-.86,3.02-1.3.87-.38,1.68-.74,2.44-1.32,1.47-1.12,2.78-2.52,3.43-4.27.7-1.87,1.07-3.98,1.12-5.98Z"/>
      </g>
      <g>
        <path class="cls-3" d="m85.48,69.23c-.02-6.71-.56-13.46-1.6-20.1-.52-3.35-1.28-6.75-2.15-10.03-.41-1.56-.85-3.15-1.42-4.66-.07-.18-.51-1.16-.93-2.01.02-.34.02-.67,0-1.01-.07-1.22-.29-3.53-1.45-4.36-.06-.64-.26-1.29-.43-1.89-.38-1.3-.83-2.61-1.43-3.83-1.19-2.41-3.09-4.55-5.35-5.99-2.53-1.62-5.39-2.53-8.35-3.01-1.48-.24-2.97-.38-4.47-.42,0,0-.02,0-.03,0-1.23-.07-2.48,0-3.76-.08-1.06-.07-2.08-.34-3.16-.35-1.14-.01-2.28.08-3.43.11-1.4.03-2.81.17-4.21.3-.41,0-.82.02-1.22.03-1.5.04-2.99.19-4.47.42-2.95.47-5.82,1.39-8.35,3.01-2.26,1.45-4.16,3.59-5.35,5.99-.6,1.22-1.05,2.53-1.43,3.83-.17.6-.37,1.26-.43,1.89-1.17.83-1.38,3.14-1.45,4.36-.02.34-.02.67,0,1.01-.42.85-.86,1.84-.93,2.01-.58,1.51-1.01,3.1-1.42,4.66-.87,3.28-1.62,6.68-2.15,10.03-1.04,6.63-1.57,13.39-1.6,20.1-.01,3.46-.01,6.92-.01,10.38,0,3.12.04,6.19.44,9.29.18,1.37.47,2.78,1.23,3.96.79,1.21,1.95,2.19,3.08,3.06,2.56,1.97,5.8,3.13,8.76,4.35.83.34,1.65.73,2.5,1.03.85.3,1.74.44,2.62.66,1.85.46,3.67.85,5.54,1.21,3.71.72,7.38.92,11.16.89.05,0,.1,0,.15-.02.05.01.1.02.15.02,3.77.03,7.44-.17,11.16-.89,1.87-.36,3.7-.75,5.54-1.21.88-.22,1.76-.35,2.62-.66.85-.3,1.67-.69,2.5-1.03,2.96-1.22,6.2-2.38,8.76-4.35,1.13-.87,2.3-1.86,3.08-3.06.77-1.18,1.05-2.59,1.23-3.96.41-3.1.45-6.17.44-9.29,0-3.46,0-6.92-.01-10.38ZM24.08,26.93c.26-.6.49-1.21.74-1.81.43-1.05.84-2.14,1.42-3.11,1.25-2.11,2.96-3.84,5.08-5.09,2.26-1.33,4.82-2.1,7.39-2.57.24-.04.48-.08.72-.12.15.04.31.06.48.07.44.01.87-.09,1.31-.07,2.16.07,4.3-.25,6.46-.26,1.09,0,2.18-.06,3.27-.04,1.06.02,2.1.26,3.16.29,1.12.04,2.26-.1,3.38-.16.51-.03,1.04-.02,1.57-.04.75.09,1.49.2,2.24.33,2.57.47,5.13,1.24,7.39,2.57,2.11,1.24,3.83,2.98,5.08,5.09.58.98.99,2.07,1.42,3.11.25.61.48,1.21.74,1.81.01.03.03.07.05.1-.32.18-.61.43-.89.71-.09.08-.21.17-.33.25-.1-.37-.19-.74-.3-1.1-.18-.59-.38-1.23-.69-1.77-.7-1.23-2.08-1.73-3.36-1.04-.5.27-.94.67-1.33,1.09-.07.08-.15.17-.22.26,0-.02-.01-.05-.02-.07-.2-.61-.46-1.24-.9-1.72-1.06-1.19-2.27-.54-3.18.44-.78.85-1.41,1.84-2.22,2.65-.1.1-.21.21-.32.3,0,0,0,0,0,0-.1-.12-.16-.26-.19-.41-.21-.56-.28-1.14-.76-1.56-1.27-1.09-2.32.41-3.11,1.26-.23.24-.74.83-.93.79-.36-.08-.76-.74-1.05-.98-1.16-.95-2.43-.46-3.31.58-.82.96-1.52,2.02-2.29,3.03-.32-.11-.68.03-.99.12-.8-1.04-1.52-2.15-2.38-3.15-.89-1.04-2.16-1.53-3.31-.58-.29.24-.69.9-1.05.98-.19.04-.7-.55-.93-.79-.79-.84-1.83-2.35-3.11-1.26-.48.41-.55,1-.76,1.56-.03.15-.09.29-.19.41,0,0,0,0,0,0-.11-.09-.22-.19-.32-.3-.82-.81-1.44-1.81-2.22-2.65-.9-.98-2.12-1.63-3.18-.44-.44.49-.7,1.11-.9,1.72,0,.02-.01.05-.02.07-.08-.09-.15-.18-.22-.26-.38-.42-.82-.82-1.33-1.09-1.28-.68-2.66-.18-3.36,1.04-.31.54-.51,1.18-.69,1.77-.11.36-.2.74-.3,1.1-.12-.08-.24-.17-.33-.25-.28-.27-.57-.52-.89-.71.02-.03.03-.07.05-.1Zm-1.02,3.74c.05-.26.11-.52.18-.77,0,0,0,0,0,0,.04.04.08.07.11.1.4.4.88.77,1.39,1,.93.41,1.96.25,2.58-.59.57-.77.69-1.87.97-2.77.02-.06.22-.5.34-.82.07.06.16.11.2.16.77.73,1.43,1.68,2.49,2,.48.15,1.21-.08,1.42-.58.24-.55.31-1.08.43-1.66.06-.27.12-.53.2-.79,0-.02.1-.26.19-.46.04.05.09.1.13.14.27.29.52.59.78.9.33.39.64.79.97,1.18.59.7,1.36,1.4,2.34,1.4,1,0,1.48-.73,1.89-1.5h0c.35.46.7.93,1.13,1.32.99.89,2.22,1.19,3.36.39.44-.31.75-.71,1.09-1.11.03-.04.06-.07.09-.1.14.17.48.41.6.53.51.49,1.03.93,1.56,1.36.1.53.41,1.04.82,1.35.75.58,2.09.58,2.62-.19.05-.02.1-.05.15-.08,1.03-.78,2-1.54,2.94-2.44.12-.12.46-.36.6-.53.03.03.06.06.09.1.34.4.66.8,1.09,1.11,1.15.8,2.37.5,3.36-.39.43-.39.78-.86,1.13-1.31,0,0,0,0,0,0,.41.77.89,1.5,1.89,1.5.98,0,1.75-.7,2.34-1.4.33-.39.64-.79.97-1.18.25-.3.51-.61.78-.9.04-.05.09-.09.13-.14.09.2.19.45.19.46.08.26.15.53.2.79.12.58.19,1.11.43,1.66.22.49.94.72,1.42.58,1.06-.32,1.72-1.27,2.49-2,.05-.04.13-.1.2-.16.12.32.32.76.34.82.27.89.4,1.99.97,2.77.62.84,1.65,1,2.58.59.52-.23,1-.6,1.39-1,.03-.03.07-.07.11-.1,0,0,0,0,0,0,.07.26.13.51.18.77.24,1.19.2,2.38-.12,3.55-.16.58-.36,1.13-.68,1.64-.07.11-.19.35-.32.58-.45.2-.69.66-.88,1.14-.2.5.16,1.08.64,1.3-.07.28-.17.55-.22.63-.24.45-.62.81-1.05,1.08-.81.51-1.85.74-2.8.78-1.31.06-2.59-.25-3.87-.48-.59-.1-1.15-.14-1.72.07-.48.17-.88.5-1.35.7-1.05.44-2.13.08-3.12-.33-.52-.22-1.05-.43-1.62-.44-.61-.02-1.02.21-1.59.37-.6.17-1.12-.18-1.66-.42-.56-.24-1.12-.46-1.73-.58-1.2-.22-2.31-.02-3.48.25-1.04-.52-2.55-.41-3.79-.21-.81-.14-1.61-.2-2.46-.04-.6.11-1.17.33-1.73.58-.54.24-1.06.58-1.66.42-.56-.16-.97-.39-1.59-.37-.58.02-1.1.22-1.62.44-.99.42-2.07.77-3.12.33-.47-.2-.86-.53-1.35-.7-.57-.2-1.13-.17-1.72-.07-1.28.22-2.56.53-3.87.48-.95-.04-1.99-.27-2.8-.78-.43-.27-.81-.63-1.05-1.08-.05-.08-.15-.35-.22-.63.48-.22.84-.8.64-1.3-.19-.48-.43-.94-.88-1.14-.13-.23-.25-.47-.32-.58-.32-.51-.52-1.06-.68-1.64-.32-1.17-.37-2.36-.12-3.55Zm37.38,14.98c.81.98,1.43,2.06,1.91,3.24.92,2.29,1.49,4.96,1.01,7.43-.51,2.58-1.75,4.6-3.59,6.44-1.52,1.52-3.72,1.84-5.7,2.49-.32.03-.64.05-.98.09-1.55.16-3.04.3-4.6.09-.77-.1-1.58-.09-2.36-.15-.06,0-.12,0-.18-.01-1.99-.66-4.21-.98-5.74-2.51-1.83-1.83-3.08-3.86-3.59-6.44-.48-2.46.09-5.13,1.01-7.43.48-1.18,1.1-2.26,1.91-3.24.52-.63,1-1.27,1.54-1.86.15.06.32.11.5.15.83.16,1.68-.05,2.45-.35.76-.3,1.44-.59,2.26-.67.87-.09,1.73-.18,2.58-.36.11-.02.21-.06.29-.12.06,0,.11,0,.17,0,.64.06,1.2.24,1.77.11.85.18,1.71.27,2.57.36.82.08,1.5.38,2.26.67.77.3,1.62.51,2.45.35.18-.04.34-.09.5-.15.54.59,1.02,1.23,1.54,1.86Zm22.38,33.79c0,3.07-.02,6.1-.42,9.15-.16,1.25-.45,2.51-1.33,3.46-.97,1.05-2.09,2.02-3.32,2.73-2.76,1.61-5.81,2.93-8.8,4.04-1.52.57-3.18.85-4.75,1.26-1.56.4-3.18.64-4.77.94-1.65.32-3.29.45-4.96.61-1.58.16-2.96.77-4.48,1.13-1.53-.36-2.9-.98-4.48-1.13-1.67-.16-3.31-.29-4.96-.61-1.59-.31-3.2-.54-4.77-.94-1.57-.4-3.23-.69-4.75-1.26-2.99-1.12-6.04-2.44-8.8-4.04-1.23-.72-2.35-1.68-3.32-2.73-.88-.95-1.16-2.21-1.33-3.46-.4-3.05-.42-6.08-.42-9.15,0-3.28,0-6.56-.01-9.85-.02-6.6.41-13.24,1.28-19.78.5-3.74,1.35-7.48,2.13-11.17.21-1.01.49-2.02.75-3.02.04.1.08.2.12.3.2.49.49,1.1.86,1.64-.37,1.17,0,2.63.66,3.58,1.74,2.54,5.25,3.07,8.06,2.5.39-.08.77-.17,1.16-.27.37-.1.95-.41,1.33-.31.31.07.65.42.94.56.3.15.62.26.93.35,1.14.31,2.18.19,3.24-.09-.1.09-.2.18-.3.27-1.09,1.01-1.86,2.11-2.5,3.45-1.32,2.76-2,5.96-1.52,9.01.24,1.54.77,3.09,1.5,4.47.66,1.26,1.64,2.28,2.61,3.3,1.36,1.42,3.54,2.49,5.67,2.82.41.09.82.15,1.23.22.86.15,1.69.23,2.56.28.86.05,1.69.25,2.57.25.92,0,1.8-.03,2.71-.15,1.11-.15,2.21-.17,3.12-.65,2.03-.38,4.06-1.42,5.34-2.76.97-1.02,1.95-2.04,2.61-3.3.72-1.38,1.26-2.93,1.5-4.47.48-3.05-.2-6.24-1.52-9.01-.64-1.34-1.41-2.44-2.5-3.45-.1-.09-.2-.18-.3-.27,1.06.28,2.09.4,3.24.09.32-.09.64-.21.93-.35.29-.14.63-.49.94-.56.38-.09.97.22,1.33.31.38.1.77.19,1.16.27,2.81.56,6.32.03,8.06-2.5.66-.96,1.03-2.42.66-3.58.36-.55.65-1.15.86-1.64.04-.1.08-.2.12-.3.26,1.01.54,2.01.75,3.02.78,3.69,1.63,7.43,2.13,11.17.87,6.55,1.3,13.19,1.28,19.78-.01,3.28,0,6.56-.01,9.85Z"/>
        <path class="cls-3" d="m72.89,71.1c-.56-1.64-1.43-3.61-3.22-4.19-.98-.31-1.9-.03-2.87.2-1.01.24-1.99.6-2.98.92-2.09.67-4.32.95-6.46,1.47-.19.04-.38.09-.57.13-.85.08-1.69.19-2.53.3-1.03.13-2.15.27-3.18.25-.72-.02-1.43.09-2.13.15-.06-.03-.13-.05-.21-.05-1.98.03-4.18-.32-6.11-.79-2.14-.51-4.37-.79-6.46-1.47-.99-.32-1.97-.68-2.98-.92-.96-.23-1.89-.51-2.87-.2-1.79.58-2.66,2.55-3.22,4.19-.31.91-.46,1.87-.6,2.81-.15,1.03-.34,2.13-.31,3.16.05,2,.42,4.11,1.12,5.98.65,1.75,1.96,3.15,3.43,4.27.76.58,1.57.94,2.44,1.32,1.01.44,1.97.96,3.02,1.3,2.36.77,4.81,1.29,7.27,1.65,1.2.18,2.39.18,3.6.24,1.05.05,1.98-.03,2.92-.41.95.38,1.87.46,2.92.41,1.21-.06,2.4-.06,3.6-.24,2.46-.36,4.91-.88,7.27-1.65,1.05-.34,2.01-.86,3.02-1.3.87-.38,1.68-.74,2.44-1.32,1.47-1.12,2.78-2.52,3.43-4.27.7-1.87,1.07-3.98,1.12-5.98.03-1.04-.16-2.14-.31-3.16-.14-.95-.29-1.91-.6-2.81Zm-15.04.7c.72-.11,1.37-.33,2-.61.06,0,.13-.02.19-.03,1.09-.14,2.19-.26,3.27-.45.01,0,.02,0,.04,0,0,.06,0,.13,0,.18.02.42.13.86.22,1.27.19.89.4,1.65.16,2.56-.19.73-.49,1.42-1.13,1.86-.59.4-1.3.7-1.94,1.03-.67.35-1.4.33-2.13.2-.63-.1-1.59-.23-1.94-.85-.4-.7-.34-1.84-.45-2.62-.1-.77-.12-1.56-.4-2.28.71-.08,1.41-.15,2.11-.25Zm-13.07,1.12c.02-.2.03-.39.02-.58,0,0,.01,0,.02,0,.57.1,1.14.05,1.71.11.57.07,1.1.17,1.69.19,1.06.04,2.11-.15,3.18-.15.8,0,1.65-.09,2.47-.2-.39,1.42.09,3.07-.09,4.51-.12.96-.79,1.16-1.65,1.3-1.08.17-2.17.28-3.26.27-.91,0-1.85.02-2.75-.17-.88-.19-1.19-.43-1.3-1.36-.16-1.31,0-2.61-.02-3.93Zm-9.81.75c.12-.71.25-1.43.37-2.14.03-.19.09-.64.09-1.1.41.11.83.21,1.26.28.45.08.91.15,1.37.21,1.13.37,2.26.71,3.44.92.47.08.93.04,1.39.07-.06.27-.04.54-.07.87-.04.48-.15.95-.17,1.44-.04.94-.18,1.8-.83,2.53-.34.39-.53.56-1.06.55-.53-.01-1.08.02-1.61-.03-1.1-.11-2.28-.51-3.29-.95-.38-.16-.76-.34-.92-.74-.23-.54-.07-1.36.02-1.92Zm9.5,15.5c-1.78-.2-3.57-.54-5.32-.95.15-.75.17-1.57.12-2.28-.04-.5-.13-.99-.1-1.49.01-.23.18-1.03.2-1.03.22-.1.87.14,1.12.17.46.06.92.05,1.38.05,1.74.02,4.12-.96,4.66,1.33.26,1.12.17,2.14.22,3.28.02.37.09.73.14,1.09-.81-.07-1.61-.08-2.42-.17Zm16.65-1.01c-1.83.43-3.72.81-5.59,1.01-.8.09-1.61.1-2.42.17.06-.4.12-.81.15-1.22.08-1,.06-2.01.08-3.01,0-.17.07-.73.02-1.05.14-.02.3-.08.43-.11.94-.27,1.85-.64,2.79-.89.88-.24,1.76-.37,2.66-.5.45-.07.92-.21,1.36-.04.48.18.42.37.4.82-.04.91.07,1.82.05,2.73-.02.76-.09,1.41.1,2.1-.01,0-.02,0-.04,0Z"/>
        <path class="cls-3" d="m48.8,50.16c-.78.41-1.32,1.31-1.58,2.12-.13.41-.16.8-.12,1.19.01.15.04.29.09.43.13.43.36.83.69,1.2.7.78,1.78,1.46,2.87,1.16.8-.22,1.59-.98,1.93-1.8.3-.47.48-1,.48-1.55,0-2.01-2.51-3.72-4.35-2.74Z"/>
      </g>
    </g>
  </g>
</svg>