<?xml version="1.0" encoding="UTF-8"?>
<svg id="Layer_1" data-name="Layer 1" xmlns="http://www.w3.org/2000/svg" xmlns:xlink="http://www.w3.org/1999/xlink" viewBox="0 0 100 100">
  <defs>
    <style>
      .cls-1 {
        fill: #fff;
      }

      .cls-2 {
        fill: #fbbb8c;
      }

      .cls-3 {
        fill: #0c121c;
      }

      .cls-4 {
        fill: #f2f1e7;
      }

      .cls-5 {
        clip-path: url(#clippath);
      }

      .cls-6 {
        fill: none;
      }

      .cls-7 {
        fill: #88524c;
      }
    </style>
    <clipPath id="clippath">
      <circle class="cls-6" cx="50" cy="50" r="50" transform="translate(-20.71 50) rotate(-45)"/>
    </clipPath>
  </defs>
  <g class="cls-5">
    <circle class="cls-4" cx="50" cy="50" r="50" transform="translate(-20.71 50) rotate(-45)"/>
    <g>
      <g>
        <path class="cls-2" d="m63.7,63.15c.28.64.45,1.37.44,2.06,0,.72-.28,1.26-.64,1.86-.67,1.12-2.1,1.36-3.28,1.73-.63.19-1.18.39-1.68.83-.52.45-.94.99-1.49,1.41-.5.38-1.06.71-1.59,1.05-.53.34-1.15.41-1.76.5-1.25.18-2.46.22-3.71.25-1.24-.03-2.45-.07-3.71-.25-.61-.09-1.23-.16-1.76-.5-.53-.34-1.09-.67-1.59-1.05-.54-.41-.97-.96-1.49-1.41-.51-.44-1.05-.64-1.68-.83-1.18-.37-2.61-.61-3.28-1.73-.36-.61-.63-1.14-.64-1.86,0-.69.16-1.42.44-2.06.58-1.3,2.12-1.48,3-2.49.86-1,1.09-2.24,1.58-3.42.22-.52.33-1.08.54-1.6.25-.62.58-1.2.81-1.84.89-2.43,3.02-4.45,5.41-5.56.27-.08.54-.14.86-.14.46,0,.91.05,1.37.05.91,0,1.86-.09,2.71.31.32.15.65.32.99.44,1.87,1.17,3.46,2.89,4.19,4.9.23.64.56,1.22.81,1.84.21.52.33,1.08.54,1.6.49,1.18.72,2.42,1.58,3.42.88,1.02,2.42,1.19,3,2.49Z"/>
        <path class="cls-2" d="m79.65,26.25c.84.81-.22,1.27-.6,1.9-.42.7.34,1.12.23,1.8-.11.69-.54,1.11-1.08,1.42-1.75-1.32-3.58-2.54-5.44-3.62-.31-.18-.62-.36-.94-.54.47-1.69,1.54-3.13,3.32-3.61.92-.25,1.87-.24,2.8.02.21.06,1.07.23,1.15.5.03.11-.26.49-.29.62-.18.77.38,1.04.86,1.51Z"/>
        <path class="cls-2" d="m28.17,27.21c-.32.18-.63.36-.94.54-1.86,1.08-3.69,2.3-5.44,3.62-.54-.32-.97-.73-1.08-1.42-.11-.68.65-1.1.23-1.8-.38-.63-1.44-1.09-.6-1.9.48-.46,1.04-.73.86-1.51-.03-.13-.33-.51-.29-.62.08-.27.94-.45,1.15-.5.92-.26,1.87-.27,2.8-.02,1.77.48,2.84,1.92,3.32,3.61Z"/>
        <path class="cls-7" d="m30.89,22.03c.7.85,1.19,1.9,1.74,2.89-1.17.53-2.32,1.12-3.44,1.73.06-.66-.02-1.25-.38-1.96-.41-.82-1.05-1.51-1.8-2.03-1.67-1.18-3.8-1.33-5.71-.65-.76.27-1.66.64-1.93,1.48-.12.37-.1.77.05,1.13.06.15.15.3.26.43-.55.34-.95,1.2-.93,1.79.01.46.22.91.46,1.29.11.18.28.33.43.48-.06.07-.11.13-.14.17-.16.24-.23.56-.25.84-.05.56.06,1.14.27,1.66.2.49.48.92.85,1.22-.43.35-.87.71-1.29,1.08-.04-.05-.08-.1-.12-.16-.14-.18-.27-.36-.43-.52-.46-.46-.83-.89-1.17-1.44-.83-1.35-1.2-2.73-1.24-4.31-.04-1.4-.02-2.86.79-4.06.71-1.05,1.83-2.04,2.91-2.71,2.38-1.47,5.33-1.79,7.89-.62,1.12.51,2.4,1.34,3.19,2.29Z"/>
        <path class="cls-7" d="m83.1,23.07c.81,1.2.82,2.65.79,4.06-.04,1.58-.41,2.96-1.24,4.31-.35.56-.72.98-1.17,1.44-.16.16-.29.35-.43.52-.04.06-.07.11-.12.16-.42-.37-.85-.72-1.29-1.08.37-.3.65-.73.85-1.22.21-.52.32-1.1.27-1.66-.03-.29-.1-.6-.25-.84-.02-.03-.08-.1-.14-.17.15-.16.33-.31.43-.48.24-.38.44-.83.46-1.29.02-.58-.38-1.45-.93-1.79.11-.12.19-.28.26-.43.15-.35.16-.76.05-1.13-.27-.84-1.16-1.21-1.93-1.48-1.9-.67-4.03-.53-5.71.65-.75.53-1.38,1.21-1.8,2.03-.35.71-.44,1.3-.38,1.96-1.12-.61-2.27-1.2-3.44-1.73.55-.98,1.03-2.03,1.74-2.89.79-.96,2.07-1.78,3.19-2.29,2.56-1.17,5.51-.85,7.89.62,1.08.67,2.2,1.66,2.91,2.71Z"/>
        <path class="cls-1" d="m41.25,79.78c1.45.28,1.33,2.37,1.3,3.51-.04,1.06-.2,2.1-.25,3.16-.01.28-.06.55-.09.8-1.3-.03-2.57-.09-3.85-.46-.58-.17-1.17-.33-1.77-.5.01-.07.02-.14.04-.21.09-.58.09-1.14.06-1.73-.04-.6-.05-1.21-.12-1.8-.04-.43-.42-1.28-.33-1.68.13-.57,1.08-.76,1.58-.91,1.07-.32,2.33-.38,3.43-.17Z"/>
        <path class="cls-1" d="m63.76,80.86c.09.4-.29,1.26-.33,1.68-.06.6-.08,1.2-.12,1.8-.04.59-.03,1.14.06,1.73.01.07.02.14.04.21-.6.18-1.19.34-1.77.5-1.27.37-2.55.43-3.85.46-.03-.25-.08-.52-.09-.8-.05-1.05-.22-2.1-.25-3.16-.04-1.14-.16-3.22,1.29-3.51,1.1-.21,2.36-.15,3.43.17.5.15,1.45.34,1.58.91Z"/>
        <path class="cls-1" d="m68.95,67.27c.25,1.57.62,3.81-1.07,4.62-.77.37-1.48.77-2.34.88-.85.11-1.3-.11-1.89-.67-.22-.21-.59-.46-.7-.75-.08-.18-.08-.45-.12-.65-.05-.25-.08-.5-.2-.73l.14-.07c1.38-.68,2.02-1.7,2.66-3.04.63-1.32.34-2.95-.03-4.3,0-.03-.02-.05-.02-.08.32.08.64.12.95.13.67.02,1.22-.03,1.85.14-.01.18-.03.37,0,.56.04.41.14.81.23,1.21.22.91.42,1.83.57,2.75Z"/>
        <path class="cls-1" d="m37.24,69.91l.14.07c-.12.22-.15.47-.2.73-.04.19-.05.47-.12.65-.12.29-.49.53-.7.75-.59.57-1.04.78-1.89.67-.87-.11-1.57-.51-2.34-.88-1.69-.81-1.32-3.05-1.07-4.62.15-.92.35-1.84.57-2.75.09-.4.19-.8.23-1.21.02-.19,0-.38,0-.56.63-.17,1.17-.12,1.85-.14.31,0,.63-.06.95-.13,0,.03-.02.05-.02.08-.37,1.35-.66,2.98-.03,4.3.64,1.34,1.28,2.37,2.66,3.04Z"/>
        <path class="cls-1" d="m72.82,45.11c.88,3.33-1,6.7-3.75,8.5-.71.46-1.62.69-2.43.92-.63.18-1.39.39-2.03.41-.83.03-1.71.04-2.54.03-.55,0-1.28-.07-1.83-.25-.27-.44-.57-.86-.81-1.32-.35-.65-.66-1.29-1.09-1.89-.56-.79-1.23-1.54-1.98-2.19-.19-.46-.31-1.04-.47-1.42-.36-.86-.7-1.71-.79-2.65-.16-1.83.79-3.64,1.92-5.03.98-1.21,2.74-2.23,4.28-2.45.79-.12,1.65-.37,2.45-.38.81-.01,1.63.25,2.39.5,1.53.52,3.26,1.23,4.34,2.48,1.16,1.34,1.91,3.06,2.36,4.75Zm-9.31,3.59c1.2-.68,1.4-1.97.76-2.89-.07-.45-.27-.88-.59-1.24-.76-.84-1.93-1.06-2.86-.36-.8.61-1.13,1.45-.92,2.44.36,1.71,1.88,3.03,3.61,2.05Z"/>
        <path class="cls-1" d="m42.99,40.21c1.14,1.39,2.08,3.2,1.92,5.03-.08.94-.42,1.79-.79,2.65-.16.38-.29.96-.47,1.42-.75.65-1.42,1.41-1.98,2.19-.43.6-.75,1.24-1.09,1.89-.24.46-.54.88-.81,1.32-.55.18-1.28.25-1.83.25-.83,0-1.71,0-2.54-.03-.64-.02-1.41-.23-2.03-.41-.81-.24-1.72-.46-2.43-.92-2.76-1.8-4.63-5.17-3.75-8.5.45-1.7,1.19-3.42,2.36-4.75,1.08-1.24,2.81-1.95,4.34-2.48.76-.26,1.58-.51,2.39-.5.8.01,1.65.26,2.45.38,1.54.23,3.29,1.25,4.28,2.45Zm-2.88,6.44c.21-.99-.12-1.83-.92-2.44-.93-.7-2.11-.48-2.86.36-.32.36-.53.79-.59,1.24-.64.92-.44,2.21.76,2.89,1.73.98,3.25-.34,3.61-2.05Z"/>
        <path class="cls-7" d="m97.7,69.6c.05,1.95-.29,4.28-1.33,5.97-2.19,3.59-5.02,6.68-7.98,9.64-1.55,1.55-3.11,3.11-4.75,4.55-1.6,1.4-3.29,2.84-5.09,3.98-3.7,2.34-7.41,4.56-11.5,6.16-2.12.83-4.29,1.37-6.49,1.97-.13.04-.26.07-.39.11-.92-.03-1.86.11-2.76.27-1.03.19-2.04.32-3.08.44-1.02.11-2.06-.07-3.09.07-1.04.15-1.98-.05-3.03-.05-2.15.01-4.39.05-6.51-.26-.23-.04-.46-.07-.69-.11-.52-.16-1.04-.33-1.57-.47-2.19-.6-4.36-1.14-6.49-1.97-4.09-1.61-7.8-3.82-11.5-6.16-1.8-1.14-3.49-2.57-5.09-3.98-1.64-1.44-3.21-3.01-4.75-4.55-2.96-2.96-5.79-6.05-7.98-9.64-1.03-1.69-1.37-4.01-1.33-5.97.06-2.25.82-4.51,1.49-6.63.68-2.14,1.35-4.2,2.25-6.26.87-2.01,1.8-4.01,2.89-5.9,1.08-1.86,1.9-3.88,3.18-5.61,1.31-1.77,2.7-3.52,4.08-5.24,1.37-1.72,2.98-3.28,4.68-4.68,1.63-1.35,3.26-2.71,5.03-3.86,2.03-1.33,4.12-2.57,6.27-3.7,2.13-1.12,4.38-1.92,6.66-2.68,1.18-.39,2.4-.6,3.6-.91,1.24-.31,2.48-.63,3.75-.83,1.24-.19,2.53-.45,3.81-.6,1.28.15,2.57.41,3.81.6,1.27.2,2.51.52,3.75.83,1.2.3,2.42.52,3.6.91,2.28.76,4.52,1.56,6.66,2.68,2.15,1.13,4.24,2.37,6.27,3.7,1.77,1.16,3.41,2.52,5.03,3.86,1.7,1.4,3.3,2.96,4.68,4.68,1.38,1.72,2.77,3.47,4.08,5.24,1.28,1.73,2.1,3.75,3.18,5.61,1.1,1.89,2.02,3.89,2.89,5.9.9,2.06,1.57,4.12,2.25,6.26.68,2.13,1.44,4.39,1.49,6.63Zm-22.71,2.96c.18-3.32.12-7.02-2.25-9.62-1.01-1.11-2.5-2.01-3.97-2.34-.81-.18-1.54-.17-2.34,0-.38.08-.77.09-1.13.25-.18.08-.35.19-.52.28-.13-.23-.28-.45-.44-.66-.44-.57-1.03-.85-1.56-1.31-.57-.49-.89-1.16-1.19-1.84-.04-.09-.09-.18-.13-.28.26.05.51.08.75.09,1.01.04,2.24.15,3.23-.05,1.13-.23,2.18-.65,3.27-1.04,1.07-.38,1.92-1.09,2.78-1.81,1.56-1.31,2.54-3.24,2.99-5.19.52-2.2.19-4.11-.66-6.19-.79-1.94-1.81-3.78-3.59-4.97-1.7-1.13-3.77-2.02-5.8-2.29-1.07-.15-2.06.15-3.11.28-1.05.13-1.92.45-2.86.93-.95.48-1.84,1.11-2.53,1.92-.61.71-1,1.54-1.44,2.35-.94,1.72-1.29,3.54-.74,5.47.08.28.21.67.38,1.1-.04-.01-.07-.03-.11-.04-.5-.2-.98-.5-1.5-.65-1.18-.34-2.5-.08-3.71-.08-1.04,0-2.06.39-2.92.98-.04.02-.08.03-.11.05.22-.52.38-1.02.48-1.35.55-1.92.2-3.75-.74-5.47-.44-.81-.83-1.64-1.44-2.35-.7-.81-1.59-1.44-2.53-1.92-.94-.48-1.8-.8-2.86-.93-1.05-.13-2.04-.42-3.11-.28-2.02.27-4.1,1.17-5.8,2.29-1.78,1.18-2.8,3.03-3.59,4.97-.85,2.08-1.17,3.99-.66,6.19.46,1.95,1.43,3.88,2.99,5.19.86.72,1.71,1.43,2.78,1.81,1.08.38,2.14.81,3.27,1.04.99.2,2.22.09,3.23.05.24,0,.5-.04.75-.09-.05.09-.09.18-.13.28-.3.67-.63,1.34-1.19,1.84-.53.46-1.12.74-1.56,1.31-.16.21-.31.43-.44.66-.17-.1-.33-.21-.52-.28-.36-.16-.75-.16-1.13-.25-.81-.18-1.53-.19-2.34,0-1.46.33-2.96,1.24-3.97,2.34-2.37,2.6-2.43,6.3-2.25,9.62.1,1.78.28,3.59.67,5.33.35,1.6.77,3.43,1.67,4.82.39.61.8,1.28,1.29,1.81.63.67,1.48,1.19,2.22,1.71,1.48,1.02,3.07,1.64,4.78,2.18,1.97.63,3.78,1.2,5.87,1.21,1.02,0,2.04,0,3.05.02.2,0,.4,0,.59-.02.44.07.88.15,1.33.16.66.01,1.29-.03,1.95.07.7.11,1.36.12,2.07.12.78,0,1.53.24,2.31.2.72-.03,1.57-.21,2.34-.54.09,0,.19,0,.28,0,1.02-.02,2.03-.01,3.05-.02,2.09-.02,3.91-.59,5.87-1.21,1.7-.54,3.3-1.15,4.78-2.18.75-.52,1.6-1.04,2.22-1.71.49-.53.9-1.2,1.29-1.81.9-1.39,1.31-3.22,1.67-4.82.38-1.74.57-3.55.67-5.33Z"/>
      </g>
      <g>
        <path class="cls-3" d="m97.83,59.69c-.64-2.18-1.7-4.34-2.67-6.39-1-2.13-2.13-4.17-3.24-6.24-1.08-2.02-2.37-3.75-3.8-5.54-1.46-1.82-2.81-3.7-4.44-5.37-.34-.35-.7-.7-1.06-1.04.03-.03.05-.06.08-.1.35-.46.79-.84,1.13-1.31.96-1.3,1.64-2.89,1.85-4.49.2-1.53.1-3.13-.1-4.65-.16-1.22-.71-2.34-1.46-3.31-1.67-2.16-4.15-3.89-6.85-4.44-2.93-.6-5.67.33-8.03,2.04-1.12.82-2.05,1.62-2.65,2.91-.36.78-.7,1.64-.73,2.49-1.83-.75-3.72-1.37-5.66-1.77-3.27-.67-6.79-1.59-10.2-1.4-3.41-.19-6.93.73-10.2,1.4-1.94.4-3.82,1.02-5.66,1.77-.03-.85-.37-1.71-.73-2.49-.6-1.29-1.53-2.1-2.65-2.91-2.36-1.71-5.1-2.64-8.03-2.04-2.7.55-5.17,2.29-6.85,4.44-.75.97-1.3,2.08-1.46,3.31-.2,1.52-.3,3.12-.1,4.65.21,1.6.89,3.19,1.85,4.49.34.47.78.85,1.13,1.31.02.03.05.06.08.1-.36.34-.71.69-1.06,1.04-1.63,1.67-2.99,3.55-4.44,5.37-1.43,1.79-2.71,3.51-3.8,5.54-1.11,2.08-2.24,4.11-3.24,6.24-.97,2.06-2.03,4.21-2.67,6.39-1.26,4.32-2.7,9.19-1.59,13.7,1.01,4.12,4.11,7.61,6.91,10.68,3.17,3.47,6.61,6.64,10.22,9.64,1.91,1.58,4.06,2.83,6.16,4.14,2.23,1.38,4.54,2.53,6.98,3.49,1.61.63,3.23,1.14,4.89,1.57.65.37,1.39.55,2.11.8,1.09.39,2.11.7,3.26.9,2.27.38,4.63.51,6.93.51,1.12,0,2.15.24,3.27.08,1.02-.15,2.05.05,3.07-.04,1.88-.16,3.68-.47,5.38-1.2.64-.14,1.29-.29,1.94-.43,2.55-.56,5.01-1.24,7.44-2.19,2.44-.96,4.75-2.11,6.98-3.49,2.11-1.3,4.25-2.55,6.16-4.14,3.61-3,7.05-6.16,10.22-9.64,2.8-3.07,5.9-6.56,6.91-10.68,1.11-4.5-.33-9.38-1.59-13.7Zm-28.72-37.66c.79-.96,2.07-1.78,3.19-2.29,2.56-1.17,5.51-.85,7.89.62,1.08.67,2.2,1.66,2.91,2.71.81,1.2.82,2.65.79,4.06-.04,1.58-.41,2.96-1.24,4.31-.35.56-.72.98-1.17,1.44-.16.16-.29.35-.43.52-.04.06-.07.11-.12.16-.42-.37-.85-.72-1.29-1.08.37-.3.65-.73.85-1.22.21-.52.32-1.1.27-1.66-.03-.29-.1-.6-.25-.84-.02-.03-.08-.1-.14-.17.15-.16.33-.31.43-.48.24-.38.44-.83.46-1.29.02-.58-.38-1.45-.93-1.79.11-.12.19-.28.26-.43.15-.35.16-.76.05-1.13-.27-.84-1.16-1.21-1.93-1.48-1.9-.67-4.03-.53-5.71.65-.75.53-1.38,1.21-1.8,2.03-.35.71-.44,1.3-.38,1.96-1.12-.61-2.27-1.2-3.44-1.73.55-.98,1.03-2.03,1.74-2.89Zm10.18,7.92c-.11.69-.54,1.11-1.08,1.42-1.75-1.32-3.58-2.54-5.44-3.62-.31-.18-.62-.36-.94-.54.47-1.69,1.54-3.13,3.32-3.61.92-.25,1.87-.24,2.8.02.21.06,1.07.23,1.15.5.03.11-.26.49-.29.62-.18.77.38,1.04.86,1.51.84.81-.22,1.27-.6,1.9-.42.7.34,1.12.23,1.8Zm-61.93,1.48c-.83-1.35-1.2-2.73-1.24-4.31-.04-1.4-.02-2.86.79-4.06.71-1.05,1.83-2.04,2.91-2.71,2.38-1.47,5.33-1.79,7.89-.62,1.12.51,2.4,1.34,3.19,2.29.7.85,1.19,1.9,1.74,2.89-1.17.53-2.32,1.12-3.44,1.73.06-.66-.02-1.25-.38-1.96-.41-.82-1.05-1.51-1.8-2.03-1.67-1.18-3.8-1.33-5.71-.65-.76.27-1.66.64-1.93,1.48-.12.37-.1.77.05,1.13.06.15.15.3.26.43-.55.34-.95,1.2-.93,1.79.01.46.22.91.46,1.29.11.18.28.33.43.48-.06.07-.11.13-.14.17-.16.24-.23.56-.25.84-.05.56.07,1.14.27,1.66.2.49.48.92.85,1.22-.43.35-.87.71-1.29,1.08-.04-.05-.08-.1-.12-.16-.14-.18-.27-.36-.43-.52-.46-.46-.83-.89-1.17-1.44Zm3.59-3.28c-.38-.63-1.44-1.09-.6-1.9.48-.46,1.04-.73.86-1.51-.03-.13-.33-.51-.29-.62.08-.27.94-.45,1.15-.5.92-.26,1.87-.27,2.8-.02,1.77.48,2.84,1.92,3.32,3.61-.32.18-.63.36-.94.54-1.86,1.08-3.69,2.3-5.44,3.62-.54-.32-.97-.73-1.08-1.42-.11-.68.65-1.1.23-1.8Zm75.43,47.41c-2.19,3.59-5.02,6.68-7.98,9.64-1.55,1.55-3.11,3.11-4.75,4.55-1.6,1.4-3.29,2.84-5.09,3.98-3.7,2.34-7.41,4.56-11.5,6.16-2.12.83-4.29,1.37-6.49,1.97-.13.04-.26.07-.39.11-.92-.03-1.86.11-2.76.27-1.03.19-2.04.32-3.08.44-1.02.11-2.06-.07-3.09.07-1.04.15-1.98-.05-3.03-.05-2.15.01-4.39.05-6.51-.26-.23-.04-.46-.07-.69-.11-.52-.16-1.04-.33-1.57-.47-2.19-.6-4.36-1.14-6.49-1.97-4.09-1.61-7.8-3.82-11.5-6.16-1.8-1.14-3.49-2.57-5.09-3.98-1.64-1.44-3.21-3.01-4.75-4.55-2.96-2.96-5.79-6.05-7.98-9.64-1.03-1.69-1.37-4.01-1.33-5.97.06-2.25.82-4.51,1.49-6.63.68-2.14,1.35-4.2,2.25-6.26.87-2.01,1.8-4.01,2.89-5.9,1.08-1.86,1.9-3.88,3.18-5.61,1.31-1.77,2.7-3.52,4.08-5.24,1.37-1.72,2.98-3.28,4.68-4.68,1.63-1.35,3.26-2.71,5.03-3.86,2.03-1.33,4.12-2.57,6.27-3.7,2.13-1.12,4.38-1.92,6.66-2.68,1.18-.39,2.4-.6,3.6-.91,1.24-.31,2.48-.63,3.75-.83,1.24-.19,2.53-.45,3.81-.6,1.28.15,2.57.41,3.81.6,1.27.2,2.51.52,3.75.83,1.2.3,2.42.52,3.6.91,2.28.76,4.52,1.56,6.66,2.68,2.15,1.13,4.24,2.37,6.27,3.7,1.77,1.16,3.41,2.52,5.03,3.86,1.7,1.4,3.3,2.96,4.68,4.68,1.38,1.72,2.77,3.47,4.08,5.24,1.28,1.73,2.1,3.75,3.18,5.61,1.1,1.89,2.02,3.89,2.89,5.9.9,2.06,1.57,4.12,2.25,6.26.68,2.13,1.44,4.39,1.49,6.63.05,1.95-.29,4.28-1.33,5.97Z"/>
        <path class="cls-3" d="m68.78,60.59c-.81-.18-1.54-.17-2.34,0-.38.08-.77.09-1.13.25-.18.08-.35.19-.52.28-.13-.23-.28-.45-.44-.66-.44-.57-1.03-.85-1.56-1.31-.57-.49-.89-1.16-1.19-1.84-.04-.09-.09-.18-.13-.28.26.05.51.08.75.09,1.01.04,2.24.15,3.23-.05,1.13-.23,2.18-.65,3.27-1.04,1.07-.38,1.92-1.09,2.78-1.81,1.56-1.31,2.54-3.24,2.99-5.19.52-2.2.19-4.11-.66-6.19-.79-1.94-1.81-3.78-3.59-4.97-1.7-1.13-3.77-2.02-5.8-2.29-1.07-.15-2.06.15-3.11.28-1.05.13-1.92.45-2.86.93-.95.48-1.84,1.11-2.53,1.92-.61.71-1,1.54-1.44,2.35-.94,1.72-1.29,3.54-.74,5.47.08.28.21.67.38,1.1-.04-.01-.07-.03-.11-.04-.5-.2-.98-.5-1.5-.65-1.18-.34-2.5-.08-3.71-.08-1.04,0-2.06.39-2.92.98-.04.02-.08.03-.11.05.22-.52.38-1.02.48-1.35.55-1.92.2-3.75-.74-5.47-.44-.81-.83-1.64-1.44-2.35-.7-.81-1.59-1.44-2.53-1.92-.94-.48-1.8-.8-2.86-.93-1.05-.13-2.04-.42-3.11-.28-2.02.27-4.1,1.17-5.8,2.29-1.78,1.18-2.8,3.03-3.59,4.97-.85,2.08-1.17,3.99-.66,6.19.46,1.95,1.43,3.88,2.99,5.19.86.72,1.71,1.43,2.78,1.81,1.08.38,2.14.81,3.27,1.04.99.2,2.22.09,3.23.05.24,0,.5-.04.75-.09-.05.09-.09.18-.13.28-.3.67-.63,1.34-1.19,1.84-.53.46-1.12.74-1.56,1.31-.16.21-.31.43-.44.66-.17-.1-.33-.21-.52-.28-.36-.16-.75-.16-1.13-.25-.81-.18-1.53-.19-2.34,0-1.46.33-2.96,1.24-3.97,2.34-2.37,2.6-2.43,6.3-2.25,9.62.1,1.78.28,3.59.67,5.33.35,1.6.77,3.43,1.67,4.82.39.61.8,1.28,1.29,1.81.63.67,1.48,1.19,2.22,1.71,1.48,1.02,3.07,1.64,4.78,2.18,1.97.63,3.78,1.2,5.87,1.21,1.02,0,2.04,0,3.05.02.2,0,.4,0,.59-.02.44.07.88.15,1.33.16.66.01,1.29-.03,1.95.07.7.11,1.36.12,2.07.12.78,0,1.53.24,2.31.2.72-.03,1.57-.21,2.34-.54.09,0,.19,0,.28,0,1.02-.02,2.03-.01,3.05-.02,2.09-.02,3.91-.59,5.87-1.21,1.7-.54,3.3-1.15,4.78-2.18.75-.52,1.6-1.04,2.22-1.71.49-.53.9-1.2,1.29-1.81.9-1.39,1.31-3.22,1.67-4.82.38-1.74.57-3.55.67-5.33.18-3.32.12-7.02-2.25-9.62-1.01-1.11-2.5-2.01-3.97-2.34Zm-3.36,6.27c.63-1.32.34-2.95-.03-4.3,0-.03-.02-.05-.02-.08.32.08.64.12.95.13.67.02,1.22-.03,1.85.14-.01.18-.03.37,0,.56.04.41.14.81.23,1.21.22.91.42,1.83.57,2.75.25,1.57.62,3.81-1.07,4.62-.77.37-1.48.77-2.34.88-.85.11-1.3-.11-1.89-.67-.22-.21-.59-.46-.7-.75-.08-.18-.08-.45-.12-.65-.05-.25-.08-.5-.2-.73l.14-.07c1.38-.68,2.02-1.7,2.66-3.04Zm-8.41-26.66c.98-1.21,2.74-2.23,4.28-2.45.79-.12,1.65-.37,2.45-.38.81-.01,1.63.25,2.39.5,1.53.52,3.26,1.23,4.34,2.48,1.16,1.34,1.91,3.06,2.36,4.75.88,3.33-1,6.7-3.75,8.5-.71.46-1.62.69-2.43.92-.63.18-1.39.39-2.03.41-.83.03-1.71.04-2.54.03-.55,0-1.28-.07-1.83-.25-.27-.44-.57-.86-.81-1.32-.35-.65-.66-1.29-1.09-1.89-.56-.79-1.23-1.54-1.98-2.19-.19-.46-.31-1.04-.47-1.42-.36-.86-.7-1.71-.79-2.65-.16-1.83.79-3.64,1.92-5.03Zm-19.08,14.76c-.83,0-1.71,0-2.54-.03-.64-.02-1.41-.23-2.03-.41-.81-.24-1.72-.46-2.43-.92-2.76-1.8-4.63-5.17-3.75-8.5.45-1.7,1.19-3.42,2.36-4.75,1.08-1.24,2.81-1.95,4.34-2.48.76-.26,1.58-.51,2.39-.5.8.01,1.65.26,2.45.38,1.54.23,3.29,1.25,4.28,2.45,1.14,1.39,2.08,3.2,1.92,5.03-.08.94-.42,1.79-.79,2.65-.16.38-.29.96-.47,1.42-.75.65-1.42,1.41-1.98,2.19-.43.6-.75,1.24-1.09,1.89-.24.46-.54.88-.81,1.32-.55.18-1.28.25-1.83.25Zm-1.64,8.19c.58-1.3,2.12-1.48,3-2.49.86-1,1.09-2.24,1.58-3.42.22-.52.33-1.08.54-1.6.25-.62.58-1.2.81-1.84.89-2.43,3.02-4.45,5.41-5.56.27-.08.54-.14.86-.14.46,0,.91.05,1.37.05.91,0,1.86-.09,2.71.31.32.15.65.32.99.44,1.87,1.17,3.46,2.89,4.19,4.9.23.64.56,1.22.81,1.84.21.52.33,1.08.54,1.6.49,1.18.72,2.42,1.58,3.42.88,1.02,2.42,1.19,3,2.49.28.64.45,1.37.44,2.06,0,.72-.28,1.26-.64,1.86-.67,1.12-2.1,1.36-3.28,1.73-.63.19-1.18.39-1.68.83-.52.45-.94.99-1.49,1.41-.5.38-1.06.71-1.59,1.05-.53.34-1.15.41-1.76.5-1.25.18-2.46.22-3.71.25-1.24-.03-2.45-.07-3.71-.25-.62-.09-1.23-.16-1.76-.5-.53-.34-1.09-.67-1.59-1.05-.54-.41-.97-.96-1.49-1.41-.51-.44-1.05-.64-1.68-.83-1.18-.37-2.61-.61-3.28-1.73-.36-.61-.63-1.14-.64-1.86,0-.69.16-1.42.44-2.06Zm-5.24,4.11c.15-.92.35-1.84.57-2.75.09-.4.19-.8.23-1.21.02-.19,0-.38,0-.56.63-.17,1.17-.12,1.85-.14.31,0,.63-.06.95-.13,0,.03-.02.05-.02.08-.37,1.35-.66,2.98-.03,4.3.64,1.34,1.28,2.37,2.66,3.04l.14.07c-.12.22-.15.47-.2.73-.04.19-.05.47-.12.65-.12.29-.49.53-.7.75-.59.57-1.04.78-1.89.67-.87-.11-1.57-.51-2.34-.88-1.69-.81-1.32-3.05-1.07-4.62Zm11.5,16.02c-.04,1.06-.2,2.1-.25,3.16-.01.28-.06.55-.09.8-1.3-.03-2.57-.09-3.85-.46-.58-.17-1.17-.33-1.77-.5.01-.07.02-.14.04-.21.09-.58.09-1.14.06-1.73-.04-.6-.05-1.21-.12-1.8-.04-.43-.42-1.28-.33-1.68.13-.57,1.08-.76,1.58-.91,1.07-.32,2.33-.38,3.43-.17,1.45.28,1.33,2.37,1.3,3.51Zm20.88-.74c-.06.6-.08,1.2-.12,1.8-.04.59-.03,1.14.06,1.73.01.07.02.14.04.21-.6.18-1.19.34-1.77.5-1.27.37-2.55.43-3.85.46-.03-.25-.08-.52-.09-.8-.05-1.05-.22-2.1-.25-3.16-.04-1.14-.16-3.22,1.3-3.51,1.1-.21,2.36-.15,3.43.17.5.15,1.45.34,1.58.91.09.4-.29,1.26-.33,1.68Z"/>
        <path class="cls-3" d="m63.51,48.69c1.2-.68,1.4-1.97.76-2.89-.07-.45-.27-.88-.59-1.24-.76-.84-1.93-1.06-2.86-.36-.8.61-1.13,1.45-.92,2.44.36,1.71,1.88,3.03,3.61,2.05Z"/>
        <path class="cls-3" d="m39.19,44.21c-.93-.7-2.11-.48-2.86.36-.32.36-.53.79-.59,1.24-.64.92-.44,2.21.76,2.89,1.73.98,3.25-.34,3.61-2.05.21-.99-.12-1.83-.92-2.44Z"/>
      </g>
    </g>
  </g>
</svg>