<?xml version="1.0" encoding="UTF-8"?>
<svg id="Layer_1" data-name="Layer 1" xmlns="http://www.w3.org/2000/svg" xmlns:xlink="http://www.w3.org/1999/xlink" viewBox="0 0 100 100">
  <defs>
    <style>
      .cls-1 {
        fill: #fff;
      }

      .cls-2 {
        fill: #db7eb3;
      }

      .cls-3 {
        fill: #0c121c;
      }

      .cls-4 {
        fill: #ffd779;
      }

      .cls-5 {
        fill: #f2f1e7;
      }

      .cls-6 {
        clip-path: url(#clippath);
      }

      .cls-7 {
        fill: #8754a2;
      }

      .cls-8 {
        fill: none;
      }
    </style>
    <clipPath id="clippath">
      <circle class="cls-8" cx="50" cy="50" r="50" transform="translate(-10.41 86.76) rotate(-76.32)"/>
    </clipPath>
  </defs>
  <g class="cls-6">
    <circle class="cls-5" cx="50" cy="50" r="50" transform="translate(-10.41 86.76) rotate(-76.32)"/>
    <g>
      <g>
        <path class="cls-2" d="m55.74,24.08c-.07.55-.04,1.11-.18,1.66-.21.87-.82,1.58-1.52,2.12-.7.54-1.41.72-2.27.81-.78.09-1.52.36-2.28.59-1.45.45-3.23.68-3.97-.97-.57-1.28-.88-2.88-.77-4.3.55-.09,1.09-.18,1.64-.27,1.2-.19,2.4-.28,3.6-.43,1.2.16,2.41.24,3.6.43.71.12,1.43.23,2.14.36Z"/>
        <path class="cls-2" d="m40.89,24.89c.21.68.4,1.36.34,2.05-.13,1.42-1.24,2.18-2.28,2.96-.8.6-1.76.91-2.49,1.62-.69.66-.89,1.36-.88,2.3.02,1.14.18,2.41-.51,3.41-.57.81-1.54,1.26-2.43,1.61-1.22.48-2.42.67-3.66.14-.96-.41-1.33-1.05-1.5-1.84.52-.93,1.07-1.84,1.65-2.72,1.41-2.16,3.02-4.18,4.99-5.87,1.98-1.69,4.31-2.87,6.78-3.65Z"/>
        <path class="cls-2" d="m29.42,52.05c.32.93.78,2.35.3,3.28-.48.92-1.47,1.57-2.39,1.98-.96.43-2.06.76-3.1.91-.83.13-1.64.01-2.46-.04.19-1.2.43-2.38.68-3.57.3-1.43.45-2.86.68-4.29.37-2.41,1.02-4.84,1.77-7.19.57-.02,1.15.12,1.65.44.96.61,1,1.7.98,2.71-.03.98.05,1.88.45,2.79.44,1.02,1.09,1.91,1.45,2.97Z"/>
        <path class="cls-2" d="m26.4,73.53c1.26,2.03.96,4.34-.73,6.02-1.45,1.45-3.67,2.56-5.77,2.4-.03-.05-.07-.09-.12-.13,0-.42.01-.85.02-1.27.02-1.36.2-2.72.3-4.08.29-3.92.53-7.87.9-11.8.83-.35,1.73-.52,2.6-.1,1.22.6.68,2.36.62,3.46-.05,1.01.05,1.96.49,2.88.45.94,1.15,1.73,1.69,2.61Z"/>
        <path class="cls-2" d="m27.13,95.09c.67.58,1.07,1.3,1.04,2.21,0,.21-.07.42-.16.62-1.96-.86-3.82-1.97-5.57-3.19-.98-.68-2-1.38-2.2-2.63-.1-.63-.18-1.28-.19-1.92-.02-.66-.19-1.29-.2-1.95-.02-.68-.02-1.37-.02-2.06,1.24-.45,2.63-.8,3.87-.36,2.08.74,2.26,3.32,2.09,5.15-.16,1.67.03,3.01,1.34,4.14Z"/>
        <path class="cls-2" d="m80.17,87.05c0,.39,0,.78-.02,1.18-.02.66-.19,1.29-.2,1.95-.02.64-.09,1.29-.19,1.92-.21,1.25-1.22,1.94-2.2,2.63-2.2,1.53-4.57,2.89-7.11,3.81-.11.04-.23.08-.34.12,0-.47.08-.96.1-1.39.04-1.01.15-2,.32-3,.32-1.82,1.28-3.15,2.97-3.91.69-.31,1.43-.54,2.04-.98.55-.4,1.02-.92,1.49-1.41.66-.71,1.24-1.47,2.31-1.17.33.09.58.19.83.25Z"/>
        <path class="cls-2" d="m80.19,80.56c0,.43.01.85.02,1.27-.05.04-.09.08-.12.13-2.1.15-4.32-.95-5.77-2.4-1.69-1.68-1.99-3.99-.73-6.02.55-.88,1.24-1.67,1.69-2.61.43-.92.54-1.87.49-2.88-.06-1.1-.6-2.87.62-3.46.87-.43,1.76-.25,2.6.1.37,3.93.61,7.88.9,11.8.1,1.36.28,2.71.3,4.08Z"/>
        <path class="cls-2" d="m77.55,54.61c.25,1.19.49,2.37.68,3.57-.82.05-1.63.16-2.46.04-1.04-.16-2.14-.48-3.1-.91-.92-.41-1.91-1.06-2.39-1.98-.48-.93-.02-2.35.3-3.28.36-1.06,1.01-1.95,1.45-2.97.39-.91.48-1.81.45-2.79-.03-1.02.02-2.1.98-2.71.5-.32,1.08-.46,1.65-.44.75,2.34,1.39,4.77,1.77,7.19.22,1.44.38,2.87.68,4.29Z"/>
        <path class="cls-2" d="m72.52,37.12c-.17.79-.54,1.43-1.5,1.84-1.24.53-2.44.34-3.66-.14-.89-.35-1.86-.8-2.43-1.61-.69-1-.53-2.27-.51-3.41.02-.94-.19-1.63-.88-2.3-.73-.7-1.69-1.02-2.49-1.62-1.04-.77-2.15-1.54-2.28-2.96-.06-.69.13-1.37.34-2.05,2.47.78,4.8,1.96,6.78,3.65,1.97,1.68,3.58,3.7,4.99,5.87.57.88,1.13,1.79,1.65,2.72Z"/>
        <path class="cls-4" d="m80.54,20.78c.81,2.31,1.17,4.78.77,7.2-.37,2.28-1.35,4.42-2.69,6.29-.68.94-1.36,1.89-2.09,2.8-.24.3-.51.58-.78.86-.05-.09-.09-.19-.13-.28-1.56-3.17-3.49-6.31-5.92-8.93,1.03-.3,2.04-1.1,2.68-1.71,1.17-1.11,2.02-2.54,2.85-3.91,1.39-2.28,2.35-4.8,2.69-7.43.07.12.13.23.19.31.36.53.69,1.06,1,1.62.56,1.02,1.05,2.09,1.43,3.19Z"/>
        <path class="cls-4" d="m27.62,27c.65.61,1.66,1.41,2.68,1.71-2.44,2.62-4.36,5.76-5.92,8.93-.05.09-.09.19-.13.28-.27-.27-.54-.55-.78-.86-.72-.9-1.41-1.86-2.09-2.8-1.34-1.86-2.32-4-2.69-6.29-.4-2.43-.04-4.9.77-7.2.38-1.1.87-2.17,1.43-3.19.31-.56.64-1.09,1-1.62.05-.08.12-.19.19-.31.34,2.64,1.29,5.15,2.69,7.43.83,1.37,1.68,2.8,2.85,3.91Z"/>
        <path class="cls-1" d="m39.4,80.98c.38,1.25.21,2.55.12,3.84-1.02-.64-1.99-1.35-2.79-2.28-.09-.1-.17-.21-.26-.32.02-.78.52-1.88,1.06-2.43.39-.4.68-.39,1.09,0,.33.31.65.76.78,1.2Z"/>
        <path class="cls-1" d="m44.92,83c.44.39.48,1.04.48,1.6,0,.83-.14,1.66-.24,2.49-1.15-.3-2.28-.63-3.37-1.08.07-.23.13-.46.2-.66.33-.96.52-2.17,1.53-2.68.48-.25,1.01-.01,1.39.34Z"/>
        <path class="cls-1" d="m51.76,84.94c.22.86.02,2.03.36,2.89-.33.1-.66.21-.99.32-.02,0-.03.01-.04.02-.66,0-1.36-.02-1.99-.12-.33-.05-.66-.1-.99-.15-.19-.06-.39-.12-.59-.17.23-.49.36-1.09.48-1.51.33-1.16.55-2.21,1.48-3.05.58-.53,1.03-.22,1.56.27.54.49.54.81.72,1.51Z"/>
        <path class="cls-1" d="m58,85.35c.07.2.13.43.2.66-1.09.45-2.22.77-3.37,1.08-.09-.83-.23-1.65-.24-2.49,0-.56.04-1.21.48-1.6.39-.35.92-.58,1.39-.34,1.01.52,1.2,1.72,1.53,2.68Z"/>
        <path class="cls-1" d="m63.52,82.22c-.08.11-.17.21-.26.32-.8.92-1.76,1.63-2.79,2.28-.09-1.29-.25-2.59.12-3.84.13-.43.44-.89.78-1.2.41-.38.7-.39,1.09,0,.53.55,1.03,1.65,1.06,2.43Z"/>
        <path class="cls-1" d="m67.8,63.25c-.04.61-.13,1.21-.15,1.81-.05,1.58-.31,3.16-.43,4.74h0c-.34.07-.7-.41-.96-.69-.77-.84-1.34-1.82-1.66-2.9.85-.59,1.64-1.26,2.36-2.02.23-.24.54-.57.84-.93Z"/>
        <path class="cls-1" d="m64.23,70.05c.2,1.22.08,2.37-.94,3.21-.63.52-1.22.75-1.94.27-.55-.37-1.05-.89-1.39-1.45-.37-.6-.56-1.3-.85-1.93-.17-.38-.4-.73-.59-1.1,1.19-.32,2.35-.71,3.41-1.25.44-.22.86-.46,1.28-.7.27,1,.85,1.92,1.02,2.96Z"/>
        <path class="cls-1" d="m56.79,69.45c.24,1.32.53,2.65.43,4.01-.11,1.41-.97,2.93-2.61,2.59-1.28-.27-2.27-2.21-2.62-3.34-.17-.56-.25-1.35-.25-1.94,0-.25.07-.48.09-.71,1.19.06,2.42-.11,3.51-.32.48-.09.96-.19,1.45-.29Z"/>
        <path class="cls-1" d="m48.27,70.77c0,.59-.08,1.37-.25,1.94-.34,1.13-1.33,3.07-2.62,3.34-1.64.34-2.5-1.18-2.61-2.59-.1-1.36.19-2.69.43-4.01.49.1.98.2,1.45.29,1.09.21,2.32.37,3.51.32.02.24.09.46.09.71Z"/>
        <path class="cls-1" d="m41.48,69.04c-.19.37-.41.72-.59,1.1-.29.64-.48,1.33-.85,1.93-.34.56-.84,1.08-1.39,1.45-.72.48-1.31.25-1.94-.27-1.02-.83-1.14-1.99-.94-3.21.17-1.04.75-1.96,1.02-2.96.42.25.85.48,1.28.7,1.06.54,2.22.94,3.41,1.25Z"/>
        <path class="cls-1" d="m35.41,66.2c-.32,1.08-.89,2.06-1.66,2.9-.26.29-.63.77-.96.71h0c-.12-1.59-.39-3.17-.43-4.75-.02-.61-.11-1.21-.15-1.81.3.37.61.69.84.93.72.76,1.52,1.42,2.36,2.02Z"/>
        <path class="cls-1" d="m62.49,48.07c.07,1.57-.05,3.37-.57,4.87-.45,1.3-1.32,2.87-2.39,3.73-1.09.87-2.34,1.83-3.69,2.23-.83.25-1.67.43-2.5.64-.37.05-.74.12-1.1.2-1.19.25-2.28-.07-3.48-.04-.55.01-1.13,0-1.7-.06-.96-.25-1.92-.45-2.88-.74-1.35-.4-2.6-1.36-3.69-2.23-1.08-.86-1.94-2.44-2.39-3.73-.52-1.5-.64-3.3-.57-4.87.15-3.43,1.37-6.45,3.74-8.94.36-.38.75-.71,1.15-1,.59-.21,1.15-.5,1.74-.7,1.2-.39,2.38-.8,3.63-.97,1.33-.19,2.78-.17,4.12-.06,1.23.1,2.47.8,3.71.67,1.16.45,2.23,1.11,3.14,2.07,2.37,2.5,3.59,5.52,3.74,8.94Zm-10.72,2.77c1.72-1.83,1.51-5.31-1.4-5.75-1.33-.2-2.54.65-3.13,1.8-.56.69-.91,1.55-.8,2.43.14,1.16,1.12,1.98,2.18,2.33,1.16.39,2.32.07,3.15-.82Z"/>
        <path class="cls-7" d="m80.22,83.37c-.03.79-.04,1.58-.04,2.38-.4-.17-.82-.31-1.25-.33-.92-.05-1.65.45-2.27,1.08-.67.67-1.25,1.51-2.06,2.03-.83.53-1.82.77-2.64,1.32-1.65,1.11-2.31,2.88-2.55,4.77-.13,1.08-.19,2.17-.17,3.26,0,.36,0,.74.08,1.09-1.01.37-2.04.74-3.06,1.03-1.41.41-2.88.56-4.33.79-1.58.25-3.17.35-4.75.58-.12.02-.24.03-.36.04-1.19-.1-2.43.09-3.6.1-.89,0-1.78.02-2.68.03-.73,0-1.41-.19-2.14-.18-1.52.02-3.14.26-4.63.02-.74-.12-1.5-.13-2.24-.2-.13-.01-.24-.01-.36-.01-1.03-.11-2.05-.21-3.07-.38-1.45-.23-2.92-.39-4.33-.79-1.42-.41-2.82-.95-4.2-1.45-.1-.04-.21-.08-.31-.12.17-.47.27-.94.2-1.53-.1-.84-.41-1.65-.99-2.27-.79-.83-1.49-1.17-1.57-2.44-.07-1.14.21-2.26.02-3.39-.3-1.74-1.36-3.53-3.2-3.92-1.32-.28-2.64.14-3.88.66,0-.72-.01-1.44-.04-2.16,2.44.24,4.94-.98,6.68-2.63,1.97-1.87,2.66-4.6,1.41-7.08-.62-1.22-1.7-2.17-2.25-3.43-.68-1.52-.07-3.16-.26-4.74-.13-1.08-1.03-1.72-2.06-1.86-.88-.12-1.57.07-2.24.4.15-1.5.31-2.99.51-4.48,2.49.17,4.96-.11,7.17-1.43,1.02-.61,2.09-1.58,2.38-2.79.29-1.23-.17-2.74-.63-3.87-.54-1.3-1.63-2.41-1.93-3.8-.26-1.2.08-2.45-.5-3.59-.57-1.12-1.76-1.67-2.94-1.64.05-.16.1-.32.16-.47.43-1.26.98-2.5,1.59-3.71.11.26.27.51.49.74.82.86,2.18,1.31,3.35,1.27,2.06-.07,4.84-1.28,5.59-3.34.22-.6.27-1.23.28-1.86,0-.7-.2-1.59.1-2.24.3-.64,1-1.06,1.6-1.37.61-.32,1.14-.68,1.69-1.09,1.03-.78,1.86-1.51,2.17-2.82.23-.97,0-1.96-.28-2.92.71-.19,1.43-.34,2.15-.48-.11.71-.02,1.54.08,2.2.13.87.32,1.83.71,2.63.81,1.65,2.63,1.91,4.27,1.52,1.07-.25,2.07-.63,3.17-.74.94-.09,1.77-.45,2.52-1.03,1.34-1.04,2.26-2.7,2.06-4.4.43.09.85.19,1.27.3-.27.97-.51,1.95-.28,2.92.31,1.31,1.15,2.05,2.17,2.82.55.42,1.08.77,1.69,1.09.6.31,1.31.73,1.6,1.37.3.65.09,1.54.1,2.24,0,.63.06,1.27.28,1.86.75,2.06,3.53,3.28,5.59,3.34,1.18.04,2.53-.41,3.35-1.27.22-.23.38-.48.49-.74.62,1.21,1.16,2.45,1.59,3.71.05.16.1.32.16.47-1.18-.03-2.36.52-2.94,1.64-.58,1.14-.24,2.39-.5,3.59-.3,1.39-1.4,2.5-1.93,3.8-.46,1.12-.92,2.64-.63,3.87.29,1.2,1.36,2.18,2.38,2.79,2.21,1.32,4.68,1.6,7.17,1.43.19,1.49.36,2.98.51,4.48-.67-.33-1.36-.52-2.24-.4-1.03.15-1.93.78-2.06,1.86-.18,1.58.42,3.22-.26,4.74-.56,1.26-1.63,2.2-2.25,3.43-1.25,2.48-.56,5.21,1.41,7.08,1.74,1.65,4.24,2.88,6.68,2.63Zm-10.56-18.93c.06-.67.09-1.34.08-2.01,0-.64-.17-1.25-.2-1.89-.04-.69-.99-1.27-1.51-.63-.28.36-.53.87-.58,1.37-.36.36-.81.69-1.04.89-.65.58-1.33,1.18-2.04,1.67-1.3.89-2.77,1.83-4.26,2.35-1.78.62-3.67,1.07-5.52,1.42-.93.17-1.85.41-2.79.51-.6.06-1.19.08-1.79.11-.6-.03-1.19-.05-1.79-.11-.94-.1-1.86-.33-2.79-.51-1.85-.35-3.74-.8-5.52-1.42-1.5-.52-2.97-1.46-4.26-2.35-.71-.49-1.4-1.1-2.04-1.67-.22-.2-.67-.53-1.04-.89-.05-.5-.29-1.02-.58-1.37-.52-.64-1.47-.07-1.51.63-.03.64-.19,1.25-.2,1.89-.01.68.02,1.34.08,2.01.11,1.31.14,2.64.26,3.96.25,2.67.31,5.41.91,8.04.56,2.46,1.42,5.04,2.95,7.08,1.49,2,3.49,3.3,5.67,4.41,2.12,1.08,4.71,1.88,7.18,1.81.38.06.76.12,1.16.18.93.15,1.83.15,2.77.21.74.05,1.49,0,2.09-.4,2.27-.07,4.6-.82,6.55-1.81,2.18-1.11,4.18-2.41,5.67-4.41,1.53-2.05,2.38-4.62,2.95-7.08.6-2.62.66-5.37.91-8.04.12-1.32.15-2.64.26-3.96Zm-9.24-5.68c4.72-3.57,4.99-10.97,2.78-16.03-1.16-2.64-2.83-4.92-5.25-6.53-1.09-.73-2.37-1.12-3.67-1.3-.02,0-.04,0-.05,0-.79-.33-1.63-.54-2.49-.56-1.65-.04-3.26.07-4.89.3-.36.05-.74.14-1.12.26,0,0,0,0-.01,0-1.29.18-2.57.57-3.67,1.3-2.41,1.62-4.09,3.9-5.25,6.53-2.22,5.05-1.94,12.46,2.78,16.03,1.24.93,2.47,1.89,3.97,2.36.59.18,1.18.31,1.78.39.95.27,2.01.41,2.97.42,1.19.01,2.42.34,3.59.16.61-.09,1.24-.27,1.85-.49.91-.05,1.81-.19,2.7-.47,1.5-.47,2.74-1.42,3.97-2.36Z"/>
      </g>
      <g>
        <path class="cls-3" d="m77.87,38.63c.92-.97,1.78-2.05,2.6-3.11,1.67-2.13,2.82-4.87,3.16-7.56.37-2.93-.19-5.92-1.32-8.63-.53-1.26-1.19-2.44-1.99-3.55-.7-.98-1.62-2.4-2.85-2.71-.38-.09-.9.12-.97.55-.45,2.79-1.39,5.59-2.93,7.97-.75,1.16-1.5,2.36-2.47,3.35-.92.94-2.21,1.26-3.14,2.1-.89-.79-1.84-1.51-2.85-2.15-2.3-1.44-4.93-2.43-7.58-3-2.45-.53-5.03-.86-7.53-.58-2.5-.28-5.08.05-7.53.58-2.65.57-5.28,1.56-7.58,3-1.01.64-1.96,1.36-2.85,2.15-.93-.84-2.21-1.16-3.14-2.1-.97-.99-1.72-2.19-2.47-3.35-1.54-2.38-2.48-5.17-2.93-7.97-.07-.43-.59-.64-.97-.55-1.23.31-2.15,1.74-2.85,2.71-.8,1.11-1.46,2.29-1.99,3.55-1.13,2.71-1.69,5.7-1.32,8.63.34,2.69,1.49,5.43,3.16,7.56.82,1.05,1.69,2.13,2.6,3.11.38.41.84.8,1.35,1.04-.84,2.07-1.48,4.21-1.98,6.39-.68,2.95-1.02,5.93-1.62,8.89-1.24,6.02-1.25,12.25-1.61,18.36-.2,3.36-.37,6.69-.3,10.05.01.55.02,1.11.03,1.67-.14,1.29-.23,2.64-.16,3.91.08,1.39,0,2.89.31,4.26.31,1.33,1.2,2.08,2.21,2.92.46.39.95.73,1.43,1.11.59.47,1.28.73,1.92,1.12,1.32.81,2.61,1.55,4.04,2.15,2.88,1.2,5.77,2.27,8.87,2.74,1.85.28,3.69.55,5.56.64,1.52.08,3.25.24,4.75-.21.29,0,.57,0,.86,0,.77-.01,1.47.18,2.23.22.96.05,1.92.02,2.88.02.42,0,.85,0,1.29,0,1.21.15,2.5.04,3.66-.02,1.87-.09,3.71-.36,5.56-.64,3.09-.47,5.98-1.54,8.87-2.74,1.44-.6,2.72-1.34,4.04-2.15.63-.39,1.33-.65,1.92-1.12.47-.37.97-.72,1.43-1.11,1.01-.84,1.89-1.59,2.21-2.92.32-1.37.23-2.87.31-4.26.07-1.27-.02-2.62-.16-3.91.01-.56.02-1.12.03-1.67.07-3.36-.09-6.69-.3-10.05-.37-6.12-.38-12.34-1.61-18.36-.61-2.96-.95-5.94-1.62-8.89-.5-2.18-1.14-4.33-1.98-6.39.52-.23.97-.63,1.35-1.04Zm-18.76-13.74c2.47.78,4.8,1.96,6.78,3.65,1.97,1.68,3.58,3.7,4.99,5.87.57.88,1.13,1.79,1.65,2.72-.17.79-.54,1.43-1.5,1.84-1.24.53-2.44.34-3.66-.14-.89-.35-1.86-.8-2.43-1.61-.69-1-.53-2.27-.51-3.41.02-.94-.19-1.63-.88-2.3-.73-.7-1.69-1.02-2.49-1.62-1.04-.77-2.15-1.54-2.28-2.96-.06-.69.13-1.37.34-2.05Zm-14.36-.9c.55-.09,1.09-.18,1.64-.27,1.2-.19,2.4-.28,3.6-.43,1.2.16,2.41.24,3.6.43.71.12,1.43.23,2.14.36-.07.55-.04,1.11-.18,1.66-.21.87-.82,1.58-1.52,2.12-.7.54-1.41.72-2.27.81-.78.09-1.52.36-2.28.59-1.45.45-3.23.68-3.97-.97-.57-1.28-.88-2.88-.77-4.3Zm-10.65,4.55c1.98-1.69,4.31-2.87,6.78-3.65.21.68.4,1.36.34,2.05-.13,1.42-1.24,2.18-2.28,2.96-.8.6-1.76.91-2.49,1.62-.69.66-.89,1.36-.88,2.3.02,1.14.18,2.41-.51,3.41-.57.81-1.54,1.26-2.43,1.61-1.22.48-2.42.67-3.66.14-.96-.41-1.33-1.05-1.5-1.84.52-.93,1.07-1.84,1.65-2.72,1.41-2.16,3.02-4.18,4.99-5.87Zm-10.63,8.53c-.72-.9-1.41-1.86-2.09-2.8-1.34-1.86-2.32-4-2.69-6.29-.4-2.43-.04-4.9.77-7.2.38-1.1.87-2.17,1.43-3.19.31-.56.64-1.09,1-1.62.05-.08.12-.19.19-.31.34,2.64,1.29,5.15,2.69,7.43.83,1.37,1.68,2.8,2.85,3.91.65.61,1.66,1.41,2.68,1.71-2.44,2.62-4.36,5.76-5.92,8.93-.05.09-.09.19-.13.28-.27-.27-.54-.55-.78-.86Zm-1.02,17.54c.3-1.43.45-2.86.68-4.29.37-2.41,1.02-4.84,1.77-7.19.57-.02,1.15.12,1.65.44.96.61,1,1.7.98,2.71-.03.98.05,1.88.45,2.79.44,1.02,1.09,1.91,1.45,2.97.32.93.78,2.35.3,3.28-.48.92-1.47,1.57-2.39,1.98-.96.43-2.06.76-3.1.91-.83.13-1.64.01-2.46-.04.19-1.2.43-2.38.68-3.57Zm-2.65,25.94c.02-1.36.2-2.72.3-4.08.29-3.92.53-7.87.9-11.8.83-.35,1.73-.52,2.6-.1,1.22.6.68,2.36.62,3.46-.05,1.01.05,1.96.49,2.88.45.94,1.15,1.73,1.69,2.61,1.26,2.03.96,4.34-.73,6.02-1.45,1.45-3.67,2.56-5.77,2.4-.03-.05-.07-.09-.12-.13,0-.42.01-.85.02-1.27Zm8.2,17.36c-1.96-.86-3.82-1.97-5.57-3.19-.98-.68-2-1.38-2.2-2.63-.1-.63-.18-1.28-.19-1.92-.02-.66-.19-1.29-.2-1.95-.02-.68-.02-1.37-.02-2.06,1.24-.45,2.63-.8,3.87-.36,2.08.74,2.26,3.32,2.09,5.15-.16,1.67.03,3.01,1.34,4.14.67.58,1.07,1.3,1.04,2.21,0,.21-.07.42-.16.62Zm52.15-9.7c-.02.66-.19,1.29-.2,1.95-.02.64-.09,1.29-.19,1.92-.21,1.25-1.22,1.94-2.2,2.63-2.2,1.53-4.57,2.89-7.11,3.81-.11.04-.23.08-.34.12,0-.47.08-.96.1-1.39.04-1.01.15-2,.32-3,.32-1.82,1.28-3.15,2.97-3.91.69-.31,1.43-.54,2.04-.98.55-.4,1.02-.92,1.49-1.41.66-.71,1.24-1.47,2.31-1.17.33.09.58.19.83.25,0,.39,0,.78-.02,1.18Zm-.27-11.74c.1,1.36.28,2.71.3,4.08,0,.43.01.85.02,1.27-.05.04-.09.08-.12.13-2.1.15-4.32-.95-5.77-2.4-1.69-1.68-1.99-3.99-.73-6.02.55-.88,1.24-1.67,1.69-2.61.43-.92.54-1.87.49-2.88-.06-1.1-.6-2.87.62-3.46.87-.43,1.76-.25,2.6.1.37,3.93.61,7.88.9,11.8Zm-.96-12.46c-.67-.33-1.36-.52-2.24-.4-1.03.15-1.93.78-2.06,1.86-.18,1.58.42,3.22-.26,4.74-.56,1.26-1.63,2.2-2.25,3.43-1.25,2.48-.56,5.21,1.41,7.08,1.74,1.65,4.24,2.88,6.68,2.63-.03.79-.04,1.58-.04,2.38-.4-.17-.82-.31-1.25-.33-.92-.05-1.65.45-2.27,1.08-.67.67-1.25,1.51-2.06,2.03-.83.53-1.82.77-2.64,1.32-1.65,1.11-2.31,2.88-2.55,4.77-.13,1.08-.19,2.17-.17,3.26,0,.36,0,.74.08,1.09-1.01.37-2.04.74-3.06,1.03-1.41.41-2.88.56-4.33.79-1.58.25-3.17.35-4.75.58-.12.02-.24.03-.36.04-1.19-.1-2.43.09-3.6.1-.89,0-1.78.02-2.68.03-.73,0-1.41-.19-2.14-.18-1.52.02-3.14.26-4.63.02-.74-.12-1.5-.13-2.24-.2-.13-.01-.24-.01-.36-.01-1.03-.11-2.05-.21-3.07-.38-1.45-.23-2.92-.39-4.33-.79-1.42-.41-2.82-.95-4.2-1.45-.1-.04-.21-.08-.31-.12.17-.47.27-.94.2-1.53-.1-.84-.41-1.65-.99-2.27-.79-.83-1.49-1.17-1.57-2.44-.07-1.14.21-2.26.02-3.39-.3-1.74-1.36-3.53-3.2-3.92-1.32-.28-2.64.14-3.88.66,0-.72-.01-1.44-.04-2.16,2.44.24,4.94-.98,6.68-2.63,1.97-1.87,2.66-4.6,1.41-7.08-.62-1.22-1.7-2.17-2.25-3.43-.68-1.52-.07-3.16-.26-4.74-.13-1.08-1.03-1.72-2.06-1.86-.88-.12-1.57.07-2.24.4.15-1.5.31-2.99.51-4.48,2.49.17,4.96-.11,7.17-1.43,1.02-.61,2.09-1.58,2.38-2.79.29-1.23-.17-2.74-.63-3.87-.54-1.3-1.63-2.41-1.93-3.8-.26-1.2.08-2.45-.5-3.59-.57-1.12-1.76-1.67-2.94-1.64.05-.16.1-.32.16-.47.43-1.26.98-2.5,1.59-3.71.11.26.27.51.49.74.82.86,2.18,1.31,3.35,1.27,2.06-.07,4.84-1.28,5.59-3.34.22-.6.27-1.23.28-1.86,0-.7-.2-1.59.1-2.24.3-.64,1-1.06,1.6-1.37.61-.32,1.14-.68,1.69-1.09,1.03-.78,1.86-1.51,2.17-2.82.23-.97,0-1.96-.28-2.92.71-.19,1.43-.34,2.15-.48-.11.71-.02,1.54.08,2.2.13.87.32,1.83.71,2.63.81,1.65,2.63,1.91,4.27,1.52,1.07-.25,2.07-.63,3.17-.74.94-.09,1.77-.45,2.52-1.03,1.34-1.04,2.26-2.7,2.06-4.4.43.09.85.19,1.27.3-.27.97-.51,1.95-.28,2.92.31,1.31,1.15,2.05,2.17,2.82.55.42,1.08.77,1.69,1.09.6.31,1.31.73,1.6,1.37.3.65.09,1.54.1,2.24,0,.63.06,1.27.28,1.86.75,2.06,3.53,3.28,5.59,3.34,1.18.04,2.53-.41,3.35-1.27.22-.23.38-.48.49-.74.62,1.21,1.16,2.45,1.59,3.71.05.16.1.32.16.47-1.18-.03-2.36.52-2.94,1.64-.58,1.14-.24,2.39-.5,3.59-.3,1.39-1.4,2.5-1.93,3.8-.46,1.12-.92,2.64-.63,3.87.29,1.2,1.36,2.18,2.38,2.79,2.21,1.32,4.68,1.6,7.17,1.43.19,1.49.36,2.98.51,4.48Zm-2.06-13.7c.22,1.44.38,2.87.68,4.29.25,1.19.49,2.37.68,3.57-.82.05-1.63.16-2.46.04-1.04-.16-2.14-.48-3.1-.91-.92-.41-1.91-1.06-2.39-1.98-.48-.93-.02-2.35.3-3.28.36-1.06,1.01-1.95,1.45-2.97.39-.91.48-1.81.45-2.79-.03-1.02.02-2.1.98-2.71.5-.32,1.08-.46,1.65-.44.75,2.34,1.39,4.77,1.77,7.19Zm-1.12-12.39c-.05-.09-.09-.19-.13-.28-1.56-3.17-3.49-6.31-5.92-8.93,1.03-.3,2.04-1.1,2.68-1.71,1.17-1.11,2.02-2.54,2.85-3.91,1.39-2.28,2.35-4.79,2.69-7.43.07.12.13.23.19.31.36.53.69,1.06,1,1.62.56,1.02,1.05,2.09,1.43,3.19.81,2.31,1.17,4.78.77,7.2-.37,2.28-1.35,4.42-2.69,6.29-.68.94-1.36,1.89-2.09,2.8-.24.3-.51.58-.78.86Z"/>
        <path class="cls-3" d="m68.03,59.91c-.28.36-.53.87-.58,1.37-.36.36-.81.69-1.04.89-.65.58-1.33,1.18-2.04,1.67-1.3.89-2.77,1.83-4.26,2.35-1.78.62-3.67,1.07-5.52,1.42-.93.17-1.85.41-2.79.51-.6.06-1.19.08-1.79.11-.6-.03-1.19-.05-1.79-.11-.94-.1-1.86-.33-2.79-.51-1.85-.35-3.74-.8-5.52-1.42-1.5-.52-2.97-1.46-4.26-2.35-.71-.49-1.4-1.1-2.04-1.67-.22-.2-.67-.53-1.04-.89-.05-.5-.29-1.02-.58-1.37-.52-.64-1.47-.07-1.51.63-.03.64-.19,1.25-.2,1.89-.01.68.02,1.34.08,2.01.11,1.31.14,2.64.26,3.96.25,2.67.31,5.41.91,8.04.56,2.46,1.42,5.04,2.95,7.08,1.49,2,3.49,3.3,5.67,4.41,2.12,1.08,4.71,1.88,7.18,1.81.38.06.76.12,1.16.18.93.15,1.83.15,2.77.21.74.05,1.49,0,2.09-.4,2.27-.07,4.6-.82,6.55-1.81,2.18-1.11,4.18-2.41,5.67-4.41,1.53-2.05,2.38-4.62,2.95-7.08.6-2.62.66-5.37.91-8.04.12-1.32.15-2.64.26-3.96.06-.67.09-1.34.08-2.01,0-.64-.17-1.25-.2-1.89-.04-.69-.99-1.27-1.51-.63Zm-34.28,9.2c-.26.29-.63.77-.96.71h0c-.12-1.59-.39-3.17-.43-4.75-.02-.61-.11-1.21-.15-1.81.3.37.61.69.84.93.72.76,1.52,1.42,2.36,2.02-.32,1.08-.89,2.06-1.66,2.9Zm5.77,15.71c-1.02-.64-1.99-1.35-2.79-2.28-.09-.1-.17-.21-.26-.32.02-.78.52-1.88,1.06-2.43.39-.4.68-.39,1.09,0,.33.31.65.76.78,1.2.38,1.25.21,2.55.12,3.84Zm1.38-14.67c-.29.64-.48,1.33-.85,1.93-.34.56-.84,1.08-1.39,1.45-.72.48-1.31.25-1.94-.27-1.02-.83-1.14-1.99-.94-3.21.17-1.04.75-1.96,1.02-2.96.42.25.85.48,1.28.7,1.06.54,2.22.94,3.41,1.25-.19.37-.41.72-.59,1.1Zm4.26,16.94c-1.15-.3-2.28-.63-3.37-1.08.07-.23.13-.46.2-.66.33-.96.52-2.17,1.53-2.68.48-.25,1.01-.01,1.39.34.44.39.48,1.04.48,1.6,0,.83-.14,1.66-.24,2.49Zm.23-11.04c-1.64.34-2.5-1.18-2.61-2.59-.1-1.36.19-2.69.43-4.01.49.1.98.2,1.45.29,1.09.21,2.32.37,3.51.32.02.24.09.46.09.71,0,.59-.08,1.37-.25,1.94-.34,1.13-1.33,3.07-2.62,3.34Zm5.73,12.1s-.03.01-.04.02c-.66,0-1.36-.02-1.99-.12-.33-.05-.66-.1-.99-.15-.19-.06-.39-.12-.59-.17.23-.49.36-1.09.48-1.51.33-1.16.55-2.21,1.48-3.05.58-.53,1.03-.22,1.56.27.54.49.54.81.72,1.51.22.86.02,2.03.36,2.89-.33.1-.66.21-.99.32Zm.86-15.44c-.17-.56-.25-1.35-.25-1.94,0-.25.07-.48.09-.71,1.19.06,2.42-.11,3.51-.32.48-.09.96-.19,1.45-.29.24,1.32.53,2.65.43,4.01-.11,1.41-.97,2.93-2.61,2.59-1.28-.27-2.27-2.21-2.62-3.34Zm2.85,14.37c-.09-.83-.23-1.65-.24-2.49,0-.56.04-1.21.48-1.6.39-.35.92-.58,1.39-.34,1.01.52,1.2,1.72,1.53,2.68.07.2.13.43.2.66-1.09.45-2.22.77-3.37,1.08Zm8.43-4.55c-.8.92-1.76,1.63-2.79,2.28-.09-1.29-.25-2.59.12-3.84.13-.43.44-.89.78-1.2.41-.38.7-.39,1.09,0,.53.55,1.03,1.65,1.06,2.43-.08.11-.17.21-.26.32Zm.02-9.28c-.63.52-1.22.75-1.94.27-.55-.37-1.05-.89-1.39-1.45-.37-.6-.56-1.3-.85-1.93-.17-.38-.4-.73-.59-1.1,1.19-.32,2.35-.71,3.41-1.25.44-.22.86-.46,1.28-.7.27,1,.85,1.92,1.02,2.96.2,1.22.08,2.37-.94,3.21Zm1.32,7.33c-.02-.1-.05-.21-.08-.31.08,0,.16.01.24.01-.05.1-.1.2-.15.3Zm3.05-15.52c-.05,1.58-.31,3.16-.43,4.74h0c-.34.07-.7-.41-.96-.69-.77-.84-1.34-1.82-1.66-2.9.85-.59,1.64-1.26,2.36-2.02.23-.24.54-.57.84-.93-.04.61-.13,1.21-.15,1.81Z"/>
        <path class="cls-3" d="m39.58,58.76c1.24.93,2.47,1.89,3.97,2.36.59.18,1.18.31,1.78.39.95.27,2.01.41,2.97.42,1.19.01,2.42.34,3.59.16.61-.09,1.24-.27,1.85-.49.91-.05,1.81-.19,2.7-.47,1.5-.47,2.74-1.42,3.97-2.36,4.72-3.57,4.99-10.97,2.78-16.03-1.16-2.64-2.83-4.92-5.25-6.53-1.09-.73-2.37-1.12-3.67-1.3-.02,0-.04,0-.05,0-.79-.33-1.63-.54-2.49-.56-1.65-.04-3.26.07-4.89.3-.36.05-.74.14-1.12.26,0,0,0,0-.01,0-1.29.18-2.57.57-3.67,1.3-2.41,1.62-4.09,3.9-5.25,6.53-2.22,5.05-1.94,12.46,2.78,16.03Zm-2.07-10.69c.15-3.43,1.37-6.45,3.74-8.94.36-.38.75-.71,1.15-1,.59-.21,1.15-.5,1.74-.7,1.2-.39,2.38-.8,3.63-.97,1.33-.19,2.78-.17,4.12-.06,1.23.1,2.47.8,3.71.67,1.16.45,2.23,1.11,3.14,2.07,2.37,2.5,3.59,5.52,3.74,8.94.07,1.57-.05,3.37-.57,4.87-.45,1.3-1.32,2.87-2.39,3.73-1.09.87-2.34,1.83-3.69,2.23-.83.25-1.67.43-2.5.64-.37.05-.74.12-1.1.2-1.19.25-2.28-.07-3.48-.04-.55.01-1.13,0-1.7-.06-.96-.25-1.92-.45-2.88-.74-1.35-.4-2.6-1.36-3.69-2.23-1.08-.86-1.94-2.44-2.39-3.73-.52-1.5-.64-3.3-.57-4.87Z"/>
        <path class="cls-3" d="m48.62,51.66c1.16.39,2.32.07,3.15-.82,1.72-1.83,1.51-5.31-1.4-5.75-1.33-.2-2.54.65-3.13,1.8-.56.69-.91,1.55-.8,2.43.14,1.16,1.12,1.98,2.18,2.33Z"/>
      </g>
    </g>
  </g>
</svg>